<svg width="64" height="64" viewBox="0 0 64 64" fill="none" xmlns="http://www.w3.org/2000/svg">
<path d="M36 40H31V36.981C32.2404 36.0524 33.2476 34.8478 33.9418 33.4625C34.6361 32.0773 34.9984 30.5495 35 29H35.5C36.3839 29.0017 37.2356 28.6682 37.8833 28.0666C38.531 27.4651 38.9264 26.6403 38.9899 25.7586C39.0533 24.877 38.78 24.004 38.2251 23.316C37.6703 22.6279 36.8751 22.1758 36 22.051V13C36 11.9391 35.5786 10.9217 34.8284 10.1716C34.0783 9.42143 33.0609 9 32 9H18C16.9391 9 15.9217 9.42143 15.1716 10.1716C14.4214 10.9217 14 11.9391 14 13V22.051C13.1249 22.1758 12.3297 22.6279 11.7749 23.316C11.22 24.004 10.9467 24.877 11.0101 25.7586C11.0736 26.6403 11.469 27.4651 12.1167 28.0666C12.7644 28.6682 13.6161 29.0017 14.5 29H15C15.0016 30.5495 15.3639 32.0773 16.0582 33.4625C16.7524 34.8478 17.7596 36.0524 19 36.981V40H14C10.5534 40.004 7.24911 41.3749 4.812 43.812C2.37488 46.2491 1.00397 49.5534 1 53V62C1 62.2652 1.10536 62.5196 1.29289 62.7071C1.48043 62.8946 1.73478 63 2 63H48C48.2652 63 48.5196 62.8946 48.7071 62.7071C48.8946 62.5196 49 62.2652 49 62V53C48.996 49.5534 47.6251 46.2491 45.188 43.812C42.7509 41.3749 39.4466 40.004 36 40ZM28.105 52.447L29.9 56.032L27.77 61H22.23L20.1 56.032L21.9 52.447C21.9609 52.3252 21.9963 52.1922 22.0039 52.0562C22.0116 51.9202 21.9914 51.7841 21.9446 51.6562C21.8978 51.5283 21.8253 51.4113 21.7317 51.3124C21.638 51.2135 21.5252 51.1347 21.4 51.081L15.569 48.581L20.114 42.521L20.885 43.292C21.978 44.385 23.4603 44.999 25.006 44.999C26.5517 44.999 28.034 44.385 29.127 43.292L29.898 42.521L34.443 48.581L28.612 51.081C28.4868 51.1347 28.374 51.2135 28.2803 51.3124C28.1867 51.4113 28.1142 51.5283 28.0674 51.6562C28.0206 51.7841 28.0004 51.9202 28.0081 52.0562C28.0157 52.1922 28.0511 52.3252 28.112 52.447H28.105ZM37 25.5C37 25.8978 36.842 26.2794 36.5607 26.5607C36.2794 26.842 35.8978 27 35.5 27H35V24H35.5C35.8978 24 36.2794 24.158 36.5607 24.4393C36.842 24.7206 37 25.1022 37 25.5ZM14.5 27C14.1022 27 13.7206 26.842 13.4393 26.5607C13.158 26.2794 13 25.8978 13 25.5C13 25.1022 13.158 24.7206 13.4393 24.4393C13.7206 24.158 14.1022 24 14.5 24H15V27H14.5ZM16 13C16 12.4696 16.2107 11.9609 16.5858 11.5858C16.9609 11.2107 17.4696 11 18 11H32C32.5304 11 33.0391 11.2107 33.4142 11.5858C33.7893 11.9609 34 12.4696 34 13V22H32C31.7348 22 31.4804 21.8946 31.2929 21.7071C31.1054 21.5196 31 21.2652 31 21V18C31 17.8415 30.9624 17.6854 30.8903 17.5443C30.8181 17.4032 30.7134 17.2813 30.5849 17.1887C30.4564 17.096 30.3077 17.0352 30.151 17.0112C29.9944 16.9873 29.8343 17.0009 29.684 17.051L27.271 17.856L26.707 17.293C26.5195 17.1054 26.2652 17.0001 26 17H20C19.7348 17 19.4804 17.1054 19.2929 17.2929C19.1054 17.4804 19 17.7348 19 18V21C19 21.2652 18.8946 21.5196 18.7071 21.7071C18.5196 21.8946 18.2652 22 18 22H16V13ZM17 29V24H18C18.7956 24 19.5587 23.6839 20.1213 23.1213C20.6839 22.5587 21 21.7956 21 21V19H25.586L26.293 19.707C26.4242 19.8383 26.5895 19.9305 26.7701 19.9733C26.9508 20.016 27.1398 20.0076 27.316 19.949L29 19.387V21C29 21.7956 29.3161 22.5587 29.8787 23.1213C30.4413 23.6839 31.2044 24 32 24H33V29C33 31.1217 32.1571 33.1566 30.6569 34.6569C29.1566 36.1571 27.1217 37 25 37C22.8783 37 20.8434 36.1571 19.3431 34.6569C17.8429 33.1566 17 31.1217 17 29ZM25 39C26.3772 39.0001 27.7394 38.7137 29 38.159V40.586L27.707 41.879C26.989 42.5968 26.0153 43 25 43C23.9847 43 23.011 42.5968 22.293 41.879L21 40.586V38.159C22.2606 38.7137 23.6228 39.0001 25 39ZM3 53C3.00344 50.0837 4.16347 47.2878 6.22563 45.2256C8.28778 43.1635 11.0837 42.0034 14 42H18L13.2 48.4C13.1092 48.5211 13.047 48.6613 13.0183 48.81C12.9895 48.9586 12.9949 49.1119 13.034 49.2581C13.0731 49.4044 13.1449 49.5399 13.244 49.6544C13.3431 49.7689 13.4668 49.8593 13.606 49.919L19.631 52.5L18.105 55.552C18.0401 55.682 18.0044 55.8246 18.0003 55.9699C17.9961 56.1151 18.0237 56.2595 18.081 56.393L20.055 61H3V53ZM47 61H29.945L31.919 56.394C31.9763 56.2605 32.0039 56.1161 31.9997 55.9709C31.9956 55.8256 31.9599 55.683 31.895 55.553L30.369 52.5L36.394 49.918C36.533 49.8583 36.6566 49.7678 36.7556 49.6534C36.8546 49.539 36.9263 49.4037 36.9654 49.2575C37.0045 49.1114 37.0099 48.9583 36.9813 48.8098C36.9526 48.6612 36.8906 48.5211 36.8 48.4L32 42H36C38.9163 42.0034 41.7122 43.1635 43.7744 45.2256C45.8365 47.2878 46.9966 50.0837 47 53V61Z" fill="#00AA4D"/>
<path d="M60 1H42C41.2044 1 40.4413 1.31607 39.8787 1.87868C39.3161 2.44129 39 3.20435 39 4V18C39 18.7956 39.3161 19.5587 39.8787 20.1213C40.4413 20.6839 41.2044 21 42 21H47V26C47 26.1857 47.0517 26.3678 47.1493 26.5257C47.247 26.6837 47.3867 26.8114 47.5528 26.8944C47.7189 26.9775 47.9048 27.0126 48.0898 26.996C48.2748 26.9793 48.4514 26.9114 48.6 26.8L56.333 21H60C60.7956 21 61.5587 20.6839 62.1213 20.1213C62.6839 19.5587 63 18.7956 63 18V4C63 3.20435 62.6839 2.44129 62.1213 1.87868C61.5587 1.31607 60.7956 1 60 1ZM61 18C61 18.2652 60.8946 18.5196 60.7071 18.7071C60.5196 18.8946 60.2652 19 60 19H56C55.7836 19 55.5731 19.0702 55.4 19.2L49 24V20C49 19.7348 48.8946 19.4804 48.7071 19.2929C48.5196 19.1054 48.2652 19 48 19H42C41.7348 19 41.4804 18.8946 41.2929 18.7071C41.1054 18.5196 41 18.2652 41 18V4C41 3.73478 41.1054 3.48043 41.2929 3.29289C41.4804 3.10536 41.7348 3 42 3H60C60.2652 3 60.5196 3.10536 60.7071 3.29289C60.8946 3.48043 61 3.73478 61 4V18Z" fill="#00AA4D"/>
<path d="M59 7H43V9H59V7Z" fill="#00AA4D"/>
<path d="M59 11H43V13H59V11Z" fill="#00AA4D"/>
</svg>
