<svg width="64" height="64" viewBox="0 0 64 64" fill="none" xmlns="http://www.w3.org/2000/svg">
<path d="M11.7339 56.5333H11.7334H3.20012C2.61118 56.5332 2.13359 57.0105 2.13345 57.5995V57.6V62.9333C2.13332 63.5222 2.61065 63.9998 3.19958 64H3.20012H11.7334C12.3223 64.0001 12.7999 63.5228 12.8001 62.9338V62.9333V57.6C12.8002 57.0111 12.3229 56.5335 11.7339 56.5333ZM10.6668 61.8666H4.26678V58.6666H10.6668V61.8666Z" fill="#00AA4D"/>
<path d="M41.6005 50.1334H41.6H33.0667C32.4777 50.1333 32.0001 50.6106 32 51.1995V51.2001V62.9334C31.9999 63.5223 32.4772 63.9999 33.0661 64H33.0667H41.6C42.1889 64.0002 42.6665 63.5228 42.6666 62.9339V62.9334V51.2001C42.6668 50.6112 42.1894 50.1336 41.6005 50.1334ZM40.5333 61.8667H34.1333V52.2667H40.5333V61.8667Z" fill="#00AA4D"/>
<path d="M56.5338 45.8667H56.5332H47.9999C47.411 45.8666 46.9334 46.3439 46.9333 46.9328V46.9334V62.9333C46.9331 63.5222 47.4105 63.9998 47.9994 64H47.9999H56.5332C57.1221 64.0001 57.5997 63.5228 57.5999 62.9338V62.9333V46.9334C57.6 46.3444 57.1227 45.8668 56.5338 45.8667ZM55.4666 61.8666H49.0666V48H55.4666V61.8666Z" fill="#00AA4D"/>
<path d="M26.6672 53.3334H26.6667H18.1334C17.5445 53.3332 17.0669 53.8106 17.0667 54.3995V54.4V62.9333C17.0666 63.5223 17.5439 63.9999 18.1329 64H18.1334H26.6667C27.2556 64.0001 27.7332 63.5228 27.7334 62.9339V62.9333V54.4C27.7335 53.8111 27.2562 53.3335 26.6672 53.3334ZM25.6 61.8667H19.2001V55.4667H25.6V61.8667Z" fill="#00AA4D"/>
<path d="M63.5155 1.87947L60.8972 0.173213C60.4033 -0.148119 59.7426 -0.00838658 59.4211 0.485478C59.4182 0.490011 59.4152 0.494678 59.4123 0.499211L56.1451 5.68986C55.1639 3.54773 52.632 2.60667 50.4899 3.58787C49.5599 4.01386 48.8139 4.75986 48.3879 5.68986L45.1207 0.499211C44.807 0.000546709 44.1484 -0.149453 43.6497 0.164413C43.645 0.167346 43.6405 0.170279 43.636 0.173213L41.0177 1.87947C40.5274 2.19894 40.3861 2.85387 40.701 3.3472L46.9333 13.1117V32.0002C46.9331 32.5891 47.4105 33.0667 47.9994 33.0668H47.9999H56.5332C57.1222 33.0669 57.5998 32.5896 57.5999 32.0007V32.0002V13.1117L63.8321 3.3472C64.1471 2.85387 64.0057 2.19894 63.5155 1.87947ZM55.6343 12.2262C55.525 12.3977 55.4668 12.5968 55.4666 12.8002V30.9335H53.3332V20.2669H51.1999V30.9335H49.0666V12.8002C49.0665 12.5969 49.0082 12.3977 48.8989 12.2262L43.0677 3.08987L43.8926 2.5524L48.9718 10.6221C49.2713 11.0989 49.8899 11.2604 50.3843 10.9909L50.6046 10.8658C51.1473 10.6365 51.4013 10.0106 51.1721 9.46797C51.1082 9.31678 51.0102 9.18238 50.8859 9.07518C50.4097 8.67664 50.1342 8.08785 50.1333 7.46692C50.1333 6.28865 51.0883 5.33359 52.2666 5.33359C53.4448 5.33359 54.3999 6.28865 54.3999 7.46692C54.3991 8.08785 54.1235 8.67678 53.6472 9.07531C53.3788 9.33278 53.2608 9.70971 53.3347 10.0742C53.4094 10.4508 53.6651 10.7661 54.018 10.9169L54.1487 10.9909C54.643 11.2609 55.262 11.0993 55.5612 10.6221L60.6404 2.5524L61.4653 3.08987L55.6343 12.2262Z" fill="#00AA4D"/>
<path d="M52.7426 35.3125C52.5947 35.2386 52.4318 35.2002 52.2665 35.2001H44.7998C44.2108 35.2001 43.7332 35.6775 43.7332 36.2666C43.7332 36.4773 43.7956 36.6831 43.9124 36.8585L45.3736 39.0502C35.2323 43.9294 14.023 49.6001 2.13333 49.6001V51.7335C14.3861 51.7335 36.3053 45.8511 46.5683 40.8424L48.179 43.2586C48.3767 43.5554 48.7098 43.7336 49.0665 43.7336C49.0883 43.7336 49.1107 43.7326 49.1326 43.7315C49.5121 43.7075 49.8502 43.4839 50.0206 43.144L53.2206 36.7441C53.4839 36.2165 53.2699 35.5757 52.7426 35.3125ZM48.9343 40.5459L46.7931 37.3334H50.5406L48.9343 40.5459Z" fill="#00AA4D"/>
<path d="M44.8 14.9336H42.6666V17.0669H44.8V14.9336Z" fill="#00AA4D"/>
<path d="M44.8 19.2002H42.6666V21.3335H44.8V19.2002Z" fill="#00AA4D"/>
<path d="M61.8665 14.9336H59.7332V17.0669H61.8665V14.9336Z" fill="#00AA4D"/>
<path d="M61.8665 19.2002H59.7332V21.3335H61.8665V19.2002Z" fill="#00AA4D"/>
</svg>
