<svg width="64" height="64" viewBox="0 0 64 64" fill="none" xmlns="http://www.w3.org/2000/svg">
<path fill-rule="evenodd" clip-rule="evenodd" d="M43.2049 48.5046C43.1659 48.5046 43.1138 48.5046 43.0747 48.4916C42.7362 48.4264 42.5148 48.0879 42.5929 47.7493C42.8143 46.7337 42.7622 46.0696 42.7101 45.3143C42.6841 44.8456 42.645 44.3638 42.6711 43.7648C42.7492 41.7725 43.856 40.0146 45.7181 38.9209C47.4759 37.8922 47.8145 36.6421 48.1791 35.327C48.4135 34.4806 48.6479 33.5951 49.2599 32.7878C50.0411 31.7461 52.7366 29.0637 54.7419 30.4049C56.9034 31.8503 54.807 35.3009 54.1299 36.4468C53.2314 37.9312 52.6194 40.3011 52.398 41.2517C52.3199 41.5902 51.9813 41.7986 51.6428 41.7204C51.3042 41.6423 51.0959 41.3038 51.174 40.9652C51.4735 39.7152 52.0985 37.3843 53.0491 35.8087C53.8564 34.4675 55.0544 32.1367 54.0387 31.4596C52.997 30.7565 50.9396 32.6576 50.2495 33.5561C49.7807 34.1681 49.5854 34.8973 49.3771 35.6655C48.9864 37.0979 48.5437 38.7125 46.3561 40.0016C44.8717 40.8741 43.9862 42.2673 43.9211 43.8299C43.8951 44.3638 43.9341 44.8065 43.9602 45.2362C44.0123 46.0175 44.0643 46.8248 43.8169 48.0098C43.7518 48.3093 43.4914 48.5046 43.2049 48.5046Z" fill="#00AA4D"/>
<path fill-rule="evenodd" clip-rule="evenodd" d="M54.4554 51.5256C54.3772 51.5256 54.2991 51.5125 54.234 51.4865C53.9085 51.3563 53.7522 51.0047 53.8694 50.6792C54.1819 49.8719 56.9424 42.7101 58.7654 40.0537C60.0806 38.1396 59.0128 30.9127 57.9842 29.0637L51.5125 17.4877C51.174 16.8757 50.6922 16.6023 50.2885 16.7976C49.8328 17.0059 49.377 17.9044 49.976 19.493L54.0908 30.47C54.208 30.7956 54.0517 31.1602 53.7262 31.2773C53.4006 31.3945 53.036 31.2383 52.9188 30.9127L48.8041 19.9227C47.9707 17.683 48.7129 16.1465 49.7547 15.6517C50.6141 15.2611 51.825 15.4824 52.5933 16.8627L59.0649 28.4387C60.1587 30.3919 61.4999 38.2568 59.7941 40.7439C58.3748 42.8012 56.1351 48.2312 55.0283 51.1089C54.9502 51.3693 54.7028 51.5256 54.4554 51.5256Z" fill="#00AA4D"/>
<path fill-rule="evenodd" clip-rule="evenodd" d="M39.1813 55.0674L54.7419 59.2342L56.643 52.1245L41.0825 47.9577L39.1813 55.0674ZM55.1846 60.6275C55.1325 60.6275 55.0804 60.6145 55.0283 60.6014L38.2698 56.1091C37.9313 56.0179 37.736 55.6794 37.8271 55.3408L40.0538 47.0332C40.0928 46.8769 40.197 46.7337 40.3402 46.6556C40.4835 46.5774 40.6527 46.5514 40.809 46.5905L57.5805 51.0828C57.9191 51.174 58.1144 51.5125 58.0232 51.8511L55.7966 60.1587C55.7575 60.315 55.6534 60.4582 55.5101 60.5363C55.406 60.6014 55.2888 60.6275 55.1846 60.6275Z" fill="#00AA4D"/>
<path fill-rule="evenodd" clip-rule="evenodd" d="M20.7952 48.5046C20.5087 48.5046 20.2483 48.2962 20.1832 48.0098C19.9358 46.8248 19.9878 46.0175 20.0399 45.2362C20.066 44.8065 20.092 44.3508 20.079 43.8299C20.0139 42.2673 19.1284 40.8871 17.644 40.0016C15.4564 38.7125 15.0137 37.0848 14.623 35.6655C14.4147 34.8973 14.2194 34.1681 13.7506 33.5561C13.0735 32.6446 11.0031 30.7565 9.9614 31.4596C8.94573 32.1367 10.1437 34.4806 10.951 35.8087C11.9016 37.3843 12.5396 39.7152 12.8261 40.9652C12.9042 41.3038 12.6959 41.6423 12.3573 41.7204C12.0188 41.7986 11.6802 41.5902 11.6021 41.2517C11.3807 40.3011 10.7687 37.9312 9.87025 36.4468C9.18012 35.3139 7.0967 31.8503 9.25824 30.4049C11.2635 29.0637 13.959 31.7461 14.7402 32.7878C15.3522 33.5951 15.5866 34.4806 15.821 35.327C16.1856 36.6421 16.5242 37.8922 18.269 38.9209C20.1181 40.0146 21.2379 41.7856 21.316 43.7648C21.3421 44.3638 21.303 44.8456 21.277 45.3143C21.2249 46.0696 21.1858 46.7337 21.3942 47.7493C21.4723 48.0879 21.2509 48.4134 20.9124 48.4916C20.8863 48.5046 20.8473 48.5046 20.7952 48.5046Z" fill="#00AA4D"/>
<path fill-rule="evenodd" clip-rule="evenodd" d="M9.54469 51.5255C9.29728 51.5255 9.0629 51.3692 8.95873 51.1218C7.85191 48.2441 5.61224 42.8142 4.19291 40.7568C2.48711 38.2698 3.82831 30.4049 4.92211 28.4517L11.3937 16.8757C12.175 15.4824 13.386 15.261 14.2324 15.6647C15.2871 16.1465 16.0293 17.696 15.1829 19.9357L11.0682 30.9127C10.951 31.2382 10.5864 31.3945 10.2609 31.2773C9.93533 31.1601 9.77907 30.7955 9.89627 30.47L14.011 19.493C14.61 17.9043 14.1543 17.0059 13.6985 16.7975C13.2948 16.6152 12.8131 16.8757 12.4745 17.4877L6.00288 29.0637C4.97419 30.8997 3.90644 38.1395 5.2216 40.0537C7.04459 42.71 9.81814 49.8718 10.1176 50.6791C10.2478 51.0047 10.0786 51.3692 9.75303 51.4864C9.70095 51.5125 9.62282 51.5255 9.54469 51.5255Z" fill="#00AA4D"/>
<path fill-rule="evenodd" clip-rule="evenodd" d="M7.35712 52.1376L9.25824 59.2473L24.8188 55.0804L22.9176 47.9708L7.35712 52.1376ZM8.81551 60.6275C8.54207 60.6275 8.28164 60.4452 8.21653 60.1588L5.98988 51.8511C5.95082 51.6949 5.96384 51.5256 6.05499 51.3824C6.13311 51.2391 6.27635 51.135 6.43261 51.0959L23.2041 46.6035C23.3604 46.5645 23.5297 46.5775 23.6729 46.6686C23.8161 46.7468 23.9203 46.89 23.9594 47.0463L26.186 55.3539C26.2772 55.6924 26.0818 56.031 25.7433 56.1221L8.97177 60.6015C8.91969 60.6275 8.8676 60.6275 8.81551 60.6275Z" fill="#00AA4D"/>
<path fill-rule="evenodd" clip-rule="evenodd" d="M24.9229 7.61752C24.4411 13.9719 26.7589 18.5555 32.0065 21.5894C37.2541 18.5555 39.5719 13.9719 39.0901 7.61752C36.4468 7.94306 33.7904 6.95343 32.0065 4.98721C30.2226 6.95343 27.5662 7.94306 24.9229 7.61752ZM32.0065 22.9306C31.9023 22.9306 31.7982 22.9046 31.707 22.8525C25.6651 19.493 22.9827 14.1022 23.7379 6.82322C23.751 6.64092 23.8551 6.48466 23.9984 6.38049C24.1416 6.27632 24.3239 6.23726 24.4932 6.27632C27.1365 6.83624 29.8971 5.79453 31.5117 3.61996C31.6289 3.46371 31.8112 3.37256 32.0195 3.37256C32.2149 3.37256 32.4102 3.46371 32.5274 3.61996C34.142 5.79453 36.8895 6.83624 39.5459 6.27632C39.7152 6.23726 39.8975 6.27632 40.0407 6.38049C40.1839 6.48466 40.2751 6.64092 40.2881 6.82322C41.0433 14.1022 38.3609 19.493 32.319 22.8525C32.2149 22.9046 32.1107 22.9306 32.0065 22.9306Z" fill="#00AA4D"/>
<path fill-rule="evenodd" clip-rule="evenodd" d="M22.2405 21.0816C18.842 21.0816 16.0684 23.8421 16.0684 27.2537C16.0684 30.6523 18.8289 33.4258 22.2405 33.4258C25.6391 33.4258 28.3996 30.6653 28.3996 27.2537C28.3996 23.8421 25.6391 21.0816 22.2405 21.0816ZM22.2405 34.6628C18.1518 34.6628 14.8184 31.3424 14.8184 27.2407C14.8184 23.152 18.1388 19.8185 22.2405 19.8185C26.3292 19.8185 29.6497 23.152 29.6497 27.2407C29.6497 31.3424 26.3292 34.6628 22.2405 34.6628Z" fill="#00AA4D"/>
<path fill-rule="evenodd" clip-rule="evenodd" d="M41.7726 21.0816C38.374 21.0816 35.6005 23.8421 35.6005 27.2537C35.6005 30.6523 38.361 33.4258 41.7596 33.4258C45.1581 33.4258 47.9317 30.6653 47.9317 27.2537C47.9317 23.8421 45.1712 21.0816 41.7726 21.0816ZM41.7726 34.6628C37.6839 34.6628 34.3504 31.3424 34.3504 27.2407C34.3504 23.152 37.6709 19.8185 41.7596 19.8185C45.8483 19.8185 49.1817 23.152 49.1817 27.2407C49.1817 31.3424 45.8613 34.6628 41.7726 34.6628Z" fill="#00AA4D"/>
<path fill-rule="evenodd" clip-rule="evenodd" d="M34.9754 27.8787H29.0246C28.6861 27.8787 28.3996 27.6053 28.3996 27.2537C28.3996 26.9021 28.6861 26.6287 29.0246 26.6287H34.9754C35.3139 26.6287 35.6004 26.9021 35.6004 27.2537C35.6004 27.5922 35.327 27.8787 34.9754 27.8787Z" fill="#00AA4D"/>
<path fill-rule="evenodd" clip-rule="evenodd" d="M32.0066 27.8788C31.668 27.8788 31.3815 27.6053 31.3815 27.2537V22.3186C31.3815 21.9801 31.655 21.6936 32.0066 21.6936C32.3581 21.6936 32.6316 21.9671 32.6316 22.3186V27.2537C32.6316 27.5923 32.3451 27.8788 32.0066 27.8788Z" fill="#00AA4D"/>
<path fill-rule="evenodd" clip-rule="evenodd" d="M41.7725 31.121C41.434 31.121 41.1475 30.8476 41.1475 30.496V24.0114C41.1475 23.6598 41.434 23.3864 41.7725 23.3864C42.1241 23.3864 42.3976 23.6598 42.3976 24.0114V30.496C42.3976 30.8346 42.1111 31.121 41.7725 31.121Z" fill="#00AA4D"/>
<path fill-rule="evenodd" clip-rule="evenodd" d="M45.0149 27.8787H38.5302C38.1787 27.8787 37.9052 27.6053 37.9052 27.2537C37.9052 26.9021 38.1787 26.6287 38.5302 26.6287H45.0149C45.3665 26.6287 45.6399 26.9151 45.6399 27.2537C45.6399 27.5922 45.3534 27.8787 45.0149 27.8787Z" fill="#00AA4D"/>
<path fill-rule="evenodd" clip-rule="evenodd" d="M22.2405 31.4726C20.8993 31.4726 19.8185 30.3788 19.8185 29.0507C19.8185 28.6991 20.105 28.4256 20.4436 28.4256C20.7951 28.4256 21.0686 28.6991 21.0686 29.0507C21.0686 29.7017 21.5894 30.2226 22.2405 30.2226C22.8916 30.2226 23.4124 29.7017 23.4124 29.0507C23.4124 28.3996 22.8916 27.8787 22.2405 27.8787C20.8993 27.8787 19.8185 26.7849 19.8185 25.4568C19.8185 24.1156 20.9123 23.0348 22.2405 23.0348C23.5817 23.0348 24.6625 24.1286 24.6625 25.4568C24.6625 25.7953 24.376 26.0818 24.0375 26.0818C23.6989 26.0818 23.4124 25.7953 23.4124 25.4568C23.4124 24.8057 22.8916 24.2848 22.2405 24.2848C21.5894 24.2848 21.0686 24.8057 21.0686 25.4568C21.0686 26.1078 21.5894 26.6287 22.2405 26.6287C23.5817 26.6287 24.6625 27.7225 24.6625 29.0507C24.6625 30.3919 23.5687 31.4726 22.2405 31.4726Z" fill="#00AA4D"/>
<path fill-rule="evenodd" clip-rule="evenodd" d="M22.2405 24.2719C21.8889 24.2719 21.6155 23.9985 21.6155 23.6469V22.5401C21.6155 22.1885 21.8889 21.915 22.2405 21.915C22.5921 21.915 22.8655 22.1885 22.8655 22.5401V23.6469C22.8655 23.9985 22.5791 24.2719 22.2405 24.2719Z" fill="#00AA4D"/>
<path fill-rule="evenodd" clip-rule="evenodd" d="M22.2405 32.5795C21.8889 32.5795 21.6155 32.3061 21.6155 31.9545V30.8477C21.6155 30.4961 21.8889 30.2227 22.2405 30.2227C22.5921 30.2227 22.8655 30.4961 22.8655 30.8477V31.9545C22.8655 32.3061 22.5791 32.5795 22.2405 32.5795Z" fill="#00AA4D"/>
<path fill-rule="evenodd" clip-rule="evenodd" d="M30.7044 16.5892C30.5482 16.5892 30.3789 16.5241 30.2617 16.4069L28.1913 14.3365C27.9439 14.0891 27.9439 13.6985 28.1913 13.4511C28.4387 13.2037 28.8293 13.2037 29.0767 13.4511L30.7044 15.0788L35.8999 9.89625C36.1473 9.64884 36.538 9.64884 36.7854 9.89625C37.0328 10.1437 37.0328 10.5343 36.7854 10.7817L31.1471 16.4069C31.0299 16.5371 30.8607 16.5892 30.7044 16.5892Z" fill="#00AA4D"/>
</svg>
