<svg width="160" height="94" viewBox="0 0 160 94" fill="none" xmlns="http://www.w3.org/2000/svg">
<path fill-rule="evenodd" clip-rule="evenodd" d="M134.127 42.8977V37.7823V12.9763H123.45V0H160V12.9763H149.528V42.9141H136.604H134.156H134.127V42.8977ZM43.4407 40.6867C43.4718 40.6908 43.5011 40.6958 43.5268 40.6999C43.6048 40.7124 43.6471 40.7173 43.7248 40.7197L43.8011 40.7222H67.8018C71.6953 40.4315 75.1565 37.2332 75.4611 32.7629C75.4611 25.2509 75.4611 17.7389 75.4611 10.2269C74.9278 5.77475 71.9816 2.8177 67.6909 2.27291C59.6615 2.27291 51.6323 2.27291 43.6031 2.27291C37.5413 3.47869 36.4222 6.87047 35.7219 10.4479C35.7219 17.7758 35.7219 25.1037 35.7219 32.4315C36.4808 38.1394 39.6487 40.0246 43.4407 40.6867ZM42.3929 42.9003L42.3804 42.9001L42.3784 42.9041C51.9986 42.9041 58.8946 42.9315 68.5151 42.9315C72.1482 42.6676 76.6992 40.1769 77.6477 33.7519C77.6477 25.4665 77.6477 17.3742 77.6477 9.0888C76.7428 4.01545 73.8027 0.979635 69.023 0.173951C60.0317 0.173951 51.0404 0.173951 42.049 0.173951C35.4856 1.5664 34.1221 5.54608 33.5016 9.89542C33.5016 17.6653 33.5016 25.435 33.5016 33.2048C33.6667 38.3815 37.8742 42.4886 42.3863 42.914L42.3929 42.9003ZM45.0306 36.0757L45.0127 36.1182H46.189H54.1199V13.342L45.2703 35.5089L45.2697 35.5104L45.0502 36.0601L45.0306 36.0757ZM42.5956 38.0482H42.5633L55.6275 5.13766V38.0482H45.527H42.5956ZM136.604 40.6663H147.109L147.08 10.8756L157.741 10.887L157.695 2.19142L125.81 2.24666L125.759 10.857L136.604 10.847V37.7823V40.6827M97.8138 16.0086H97.8112L97.8162 12.9183L102.034 12.8729C105.359 13.2956 104.473 15.8762 102.664 16.0086H99.0573H99.0445H98.969H98.8934H98.8176H98.7417H98.6655H98.5892H98.5126H98.4359H98.359H98.2819H98.2044H98.1268H98.049H97.9709H97.8925H97.8138ZM97.7999 22.9969H97.8041L107.066 42.8971L124.94 42.8242L114.408 23.5402C120.08 21.2986 123.27 18.3653 123.113 12.4023C123.241 7.02656 121.054 -0.256458 106.605 0.00944883C97.62 0.00944883 88.6351 0.00944883 79.6504 0.00944883V42.8123L79.6713 42.7941V42.854H81.9818L97.7675 42.8784L97.7999 22.9969ZM82.168 37.7223H82.1676L82.1615 2.26504L110.549 2.29722C118.201 2.66022 121.395 8.56193 120.804 13.9836C120.378 17.8961 116.981 20.537 111.571 22.7198C114.776 28.7855 117.997 34.5735 121.202 40.6392H109.284L99.2544 18.2935H102.979C109.125 17.5188 108.883 11.3382 102.822 10.8337C100.405 10.8337 97.9877 10.8337 95.5707 10.8337V40.6392H82.1765L82.168 40.6468V40.6274V40.0086V37.7223ZM2.27048 37.7648H2.27007C2.26719 26.0369 2.24834 14.0115 2.24834 2.3382C11.7488 2.3382 21.2495 2.3382 30.7501 2.3382C30.7501 5.24178 30.7501 7.99036 30.7501 10.8939C25.2143 10.8939 19.6785 10.8939 14.1429 10.8939C14.1429 13.3504 14.1429 15.9397 14.1429 18.3962C19.2297 18.3962 24.3167 18.3962 29.4036 18.3962C29.4036 20.8534 29.4036 23.1777 29.4036 25.6348C24.3168 25.6348 19.23 25.6348 14.1432 25.6348C14.1432 30.6251 14.1432 35.7382 14.1432 40.7287H2.27048V40.721V40.1275V37.7648ZM0.0263361 37.7648H0V42.8966H0.0263361V42.9652L0.08998 42.8966H0.0944121L0.0330925 42.9551C5.19488 42.9551 11.1747 42.9551 16.3365 42.9551C16.3365 37.9301 16.3245 32.8645 16.3245 27.8393C21.3368 27.8393 26.5437 27.8455 31.556 27.8455C31.556 23.9369 31.556 20.1165 31.556 16.2079C26.5437 16.2079 21.3315 16.2079 16.3192 16.2079C16.3192 15.2029 16.3192 14.0653 16.3192 13.0604C21.7802 13.0604 27.2633 13.0604 32.7244 13.0604C32.7244 8.77938 32.7244 4.45424 32.7244 0.173245C21.8399 0.173245 10.9108 0.195348 0.0263361 0.195348V37.7648ZM57.1587 38.042V13.6539L62.1677 4.45078C62.1677 15.1366 62.1677 25.8225 62.1677 36.5083C60.4978 37.4344 58.8282 37.8537 57.1587 38.042ZM63.5548 35.8181V13.6539L67.9475 5.14104C67.9475 13.3216 67.9475 21.5022 67.9475 29.6826C67.7968 32.4719 66.0407 34.3517 63.5548 35.8181Z" fill="white"/>
<path fill-rule="evenodd" clip-rule="evenodd" d="M10.1363 61.707V68.6764C10.1363 69.721 10.2436 70.4138 10.4576 70.7548C10.6719 71.0959 11.0036 71.2661 11.4536 71.2661C14.5586 71.2661 16.1111 69.0178 16.1111 64.5205C16.1111 61.8562 15.7366 59.8741 14.9869 58.574C14.2372 57.2738 13.0061 56.6236 11.2926 56.6236C11.0787 56.6236 10.8966 56.6557 10.7467 56.7196C10.5968 56.7837 10.4735 56.9166 10.3771 57.1194C10.2808 57.3218 10.2167 57.6307 10.1845 58.0465C10.1525 58.4622 10.1363 59.0214 10.1363 59.7249V61.707ZM24.3665 63.9772C24.3665 67.6215 23.3763 70.4244 21.3955 72.3853C19.4145 74.3463 16.5394 75.3266 12.7705 75.3266C12.0853 75.3266 11.2873 75.2786 10.3771 75.1826C9.46734 75.0868 8.43382 75.0388 7.27744 75.0388C6.6779 75.0388 6.0299 75.0868 5.33406 75.1826C4.63797 75.2786 4.03316 75.3266 3.51902 75.3266C2.19147 75.3266 1.2813 75.1242 0.78885 74.719C0.296041 74.3141 0.0498047 73.824 0.0498047 73.2486C0.0498047 72.7157 0.114315 72.3639 0.242568 72.1935C0.371177 72.0228 0.526346 71.9004 0.708463 71.8258C0.890548 71.7514 1.08858 71.6766 1.30261 71.6018C1.5169 71.5274 1.71502 71.3141 1.89713 70.9625C2.07886 70.611 2.23442 70.0672 2.36267 69.3321C2.49128 68.5968 2.55542 67.5471 2.55542 66.1831V62.3784C2.55542 60.908 2.50719 59.7623 2.41076 58.9418C2.31442 58.1213 2.19147 57.5084 2.04166 57.1032C1.89175 56.6984 1.72554 56.4371 1.54346 56.3201C1.36173 56.2029 1.19553 56.1018 1.04575 56.0165C0.89581 55.9311 0.772591 55.8084 0.676159 55.6487C0.579824 55.489 0.531596 55.1532 0.531596 54.6415C0.531596 53.789 0.863621 53.2349 1.52754 52.9789C2.19146 52.7233 3.18699 52.5953 4.51497 52.5953C4.94329 52.5953 5.37163 52.6433 5.79996 52.7391C6.22803 52.8351 6.76369 52.8831 7.40609 52.8831C7.81273 52.8831 8.48729 52.8351 9.42973 52.7391C10.3718 52.6433 11.6781 52.5953 13.3486 52.5953C16.8821 52.5953 19.602 53.5918 21.5077 55.5848C23.4139 57.5775 24.3665 60.3752 24.3665 63.9772ZM31.4784 57.6149C29.2943 57.6149 28.2019 56.837 28.2019 55.2808C28.2019 54.5351 28.6891 53.8532 29.6637 53.2349C30.638 52.6169 31.939 52.3076 33.5667 52.3076C34.7015 52.3076 35.5688 52.4994 36.1682 52.8831C36.7681 53.2667 37.0679 53.7998 37.0679 54.4819C37.0679 55.313 36.5594 56.0429 35.5419 56.6716C34.5247 57.3003 33.1702 57.6149 31.4784 57.6149ZM37.3247 60.3324V69.8596C37.3247 70.3286 37.3728 70.6536 37.4693 70.8345C37.5656 71.0157 37.7318 71.2129 37.9674 71.4262C38.2242 71.6607 38.4598 71.8843 38.6739 72.0976C38.8881 72.3106 38.9952 72.6199 38.9952 73.0246C38.9952 74.5592 37.2176 75.3266 33.663 75.3266C31.8211 75.3266 30.429 75.1188 29.4869 74.7031C28.5446 74.2873 28.0736 73.7066 28.0736 72.9608C28.0736 72.5771 28.1537 72.2947 28.3146 72.1134C28.4751 71.9322 28.7054 71.7246 29.0051 71.49C29.155 71.3836 29.2943 71.2771 29.4228 71.1702C29.551 71.0637 29.6368 70.9251 29.6797 70.7548C29.7654 70.4566 29.8189 69.966 29.8402 69.2841C29.8618 68.602 29.8724 67.7389 29.8724 66.6944V66.0231C29.8724 65.213 29.8296 64.5949 29.7438 64.169C29.6585 63.7426 29.4228 63.3908 29.0374 63.1139C28.7589 62.9644 28.5074 62.7993 28.2823 62.6181C28.0574 62.4369 27.945 62.1228 27.945 61.6753C27.945 61.2063 28.1165 60.8385 28.4592 60.5722C28.8017 60.3056 29.3154 60.0338 30.001 59.7569C31.3927 59.2242 32.6777 58.8564 33.8557 58.654C35.0334 58.4512 35.8579 58.35 36.3292 58.35C36.7787 58.35 37.0572 58.4248 37.1642 58.574C37.2711 58.7232 37.3247 59.0002 37.3247 59.4051V60.3324ZM51.2147 65.5118C51.2359 65.213 51.2523 64.9416 51.2629 64.6965C51.2734 64.4511 51.2788 64.2113 51.2788 63.9772C51.2788 62.08 50.8292 61.1315 49.9296 61.1315C49.4801 61.1315 49.1105 61.2969 48.8214 61.6273C48.5322 61.9574 48.2166 62.3357 47.8739 62.7621C47.4456 63.2948 47.0173 63.6948 46.589 63.9609C46.1606 64.2275 45.7 64.3609 45.2075 64.3609C44.6722 64.3609 44.2226 64.1743 43.8584 63.8012C43.4946 63.4282 43.3125 62.9433 43.3125 62.3466C43.3125 61.835 43.4892 61.3343 43.8425 60.8437C44.1957 60.3536 44.7044 59.9273 45.3685 59.5651C46.032 59.2027 46.8299 58.9096 47.7613 58.6858C48.6932 58.4622 49.7369 58.35 50.8933 58.35C53.3131 58.35 55.1495 58.819 56.4022 59.7569C57.655 60.6946 58.2814 62.0589 58.2814 63.8492C58.2814 64.5311 58.2655 65.1704 58.2333 65.7674C58.2014 66.364 58.1851 66.9184 58.1851 67.4297V67.9092C58.1851 68.4636 58.1903 68.9163 58.2014 69.2683C58.212 69.6197 58.2496 69.9022 58.3137 70.1152C58.3778 70.3286 58.4741 70.483 58.6028 70.5789C58.7314 70.6748 58.9025 70.7548 59.1169 70.8187C59.7163 70.9893 60.016 71.3515 60.016 71.9058C60.016 72.2679 59.8879 72.6569 59.6306 73.0726C59.3738 73.4884 59.0204 73.872 58.5706 74.2235C58.121 74.5751 57.5856 74.8628 56.9644 75.0868C56.3434 75.3107 55.6582 75.4225 54.9085 75.4225C54.5018 75.4225 54.1376 75.3745 53.8166 75.2786C53.4952 75.1826 53.2062 75.0067 52.9493 74.751C52.6496 74.4739 52.414 74.2289 52.2424 74.0159C52.0713 73.8025 51.8999 73.696 51.7284 73.696C51.5785 73.696 51.445 73.744 51.3269 73.8399C51.2093 73.9358 51.0754 74.037 50.9255 74.1435C50.3902 74.5271 49.8708 74.8148 49.3677 75.0067C48.8642 75.1985 48.2379 75.2944 47.4886 75.2944C45.8393 75.2944 44.5277 74.8417 43.5533 73.9358C42.5791 73.0299 42.0919 71.8737 42.0919 70.4671C42.0919 69.721 42.263 69.0337 42.6056 68.405C42.9481 67.7763 43.4194 67.2272 44.0192 66.7586C44.6188 66.2897 45.3255 65.9219 46.1393 65.6556C46.9528 65.389 47.8311 65.2558 48.7732 65.2558C49.0946 65.2558 49.4584 65.2772 49.8655 65.32C50.2722 65.3622 50.7222 65.4264 51.2147 65.5118ZM51.1823 68.6448C51.1823 68.2822 51.1343 68.0587 51.0378 67.9734C50.9415 67.8881 50.7222 67.8453 50.3792 67.8453C49.3514 67.8453 48.8377 68.4956 48.8377 69.7957C48.8377 71.0105 49.2444 71.618 50.0582 71.618C50.5936 71.618 50.915 71.3888 51.0219 70.9305C51.1289 70.4724 51.1823 69.7104 51.1823 68.6448ZM62.8559 73.1205C62.8559 72.8007 62.9094 72.5557 63.0164 72.3853C63.1234 72.2147 63.2573 72.0814 63.4178 71.9855C63.5787 71.8896 63.7445 71.8046 63.9159 71.7298C64.087 71.6554 64.248 71.5648 64.3977 71.458C64.7404 71.2023 64.9438 70.4192 65.0079 69.1081C65.0724 67.7973 65.1042 65.9377 65.1042 63.5294V62.2508C65.1042 61.2275 65.0777 60.3858 65.0242 59.7249C64.9708 59.0641 64.7832 58.5846 64.4619 58.2862C64.2904 58.1155 64.0924 57.9827 63.8677 57.8867C63.6428 57.7909 63.4231 57.6839 63.2091 57.5669C62.9952 57.4498 62.8183 57.306 62.679 57.1352C62.5399 56.9646 62.4704 56.709 62.4704 56.3679C62.4704 55.9205 62.588 55.5474 62.8237 55.2492C63.0593 54.9508 63.4448 54.6521 63.9801 54.3539C64.8797 53.8422 65.9609 53.4215 67.2244 53.0911C68.4878 52.7607 69.7406 52.5953 70.9828 52.5953C71.6039 52.5953 72.0105 52.6913 72.2033 52.8831C72.396 53.0749 72.4923 53.4268 72.4923 53.9381C72.4923 54.1941 72.4712 55.2276 72.4282 57.0394C72.3854 58.8512 72.3641 61.4619 72.3641 64.8721C72.3641 66.7476 72.4123 68.2184 72.5087 69.2841C72.605 70.3496 72.7925 71.0211 73.0706 71.2982C73.3062 71.5328 73.59 71.7456 73.922 71.9375C74.254 72.1293 74.4197 72.5025 74.4197 73.0568C74.4197 74.5913 72.4499 75.3586 68.5094 75.3586C64.7404 75.3586 62.8559 74.6125 62.8559 73.1205ZM77.0668 67.174C77.0668 64.5949 78.084 62.4531 80.1188 60.7479C81.018 59.9805 82.0461 59.3893 83.2026 58.9735C84.359 58.5581 85.5579 58.35 86.8001 58.35C88.0851 58.35 89.2522 58.5472 90.3016 58.9418C91.3507 59.336 92.2556 59.8846 93.0159 60.5881C93.7761 61.2917 94.365 62.1386 94.7827 63.1298C95.2001 64.121 95.4091 65.224 95.4091 66.4387C95.4091 67.6324 95.1841 68.778 94.7346 69.8754C94.2846 70.9731 93.6209 71.9484 92.7427 72.8007C90.8582 74.5698 88.524 75.4546 85.74 75.4546C83.3414 75.4546 81.3605 74.7084 79.7974 73.2164C78.9194 72.3853 78.2448 71.4474 77.7737 70.4029C77.3024 69.3589 77.0668 68.2822 77.0668 67.174ZM84.3268 64.9042C84.3268 65.5224 84.3909 66.2311 84.5195 67.0301C84.6477 67.8295 84.8404 68.6126 85.0976 69.3799C85.6114 70.8293 86.2218 71.5538 86.9287 71.5538C87.3354 71.5538 87.6621 71.3783 87.9084 71.0263C88.1546 70.6748 88.2778 70.1688 88.2778 69.5079C88.2778 68.4846 88.1974 67.5365 88.037 66.6627C87.876 65.7885 87.6726 65.0322 87.4264 64.3925C87.1802 63.7532 86.9018 63.2578 86.5914 62.9059C86.2807 62.5543 85.965 62.3784 85.6437 62.3784C84.7658 62.3784 84.3268 63.2204 84.3268 64.9042ZM101.396 68.0693C100.626 67.6429 100.026 67.0728 99.5978 66.3587C99.1694 65.6447 98.955 64.8403 98.955 63.9451C98.955 63.1562 99.1424 62.4211 99.5172 61.7392C99.8921 61.0571 100.422 60.471 101.107 59.9806C101.793 59.4905 102.606 59.1015 103.549 58.8138C104.491 58.526 105.53 58.3822 106.665 58.3822C107.757 58.3822 108.715 58.5049 109.54 58.75C110.364 58.995 111.044 59.1173 111.579 59.1173C112.115 59.1173 112.586 59.0377 112.993 58.8776C113.4 58.7178 113.758 58.5472 114.069 58.3663C114.379 58.185 114.636 58.0143 114.84 57.8547C115.043 57.6949 115.198 57.6149 115.306 57.6149C116.098 57.6149 116.494 58.1477 116.494 59.2133C116.494 59.8314 116.35 60.3858 116.06 60.8759C115.771 61.366 115.327 61.8776 114.727 62.4105C114.792 62.7941 114.824 63.1562 114.824 63.4976C114.824 64.3287 114.642 65.0854 114.278 65.7674C113.913 66.4493 113.405 67.0406 112.752 67.5417C112.099 68.0425 111.306 68.4314 110.375 68.7086C109.443 68.9857 108.399 69.1243 107.243 69.1243C106.9 69.1243 106.504 69.1081 106.054 69.0764C105.604 69.0443 105.123 68.9857 104.609 68.9004C104.33 69.0495 104.191 69.2947 104.191 69.6356C104.191 69.9554 104.395 70.2378 104.802 70.483C105.208 70.7281 105.787 70.8507 106.536 70.8507C107.2 70.8507 107.966 70.7813 108.833 70.6427C109.7 70.5045 110.658 70.435 111.708 70.435C114.856 70.435 116.43 71.7778 116.43 74.4633C116.43 75.3798 116.2 76.2324 115.739 77.0208C115.279 77.8097 114.615 78.497 113.748 79.0829C112.88 79.669 111.831 80.1328 110.6 80.4737C109.368 80.8147 107.971 80.9853 106.408 80.9853C105.165 80.9853 104.041 80.8573 103.035 80.6017C102.028 80.3461 101.177 80.0047 100.481 79.5788C99.7851 79.1525 99.2495 78.6676 98.875 78.1238C98.5002 77.5805 98.3127 77.0103 98.3127 76.4137C98.3127 75.2628 98.9872 74.4845 100.336 74.0797C99.0513 73.3978 98.4091 72.4597 98.4091 71.2661C98.4091 69.8596 99.405 68.7939 101.396 68.0693ZM105.283 63.2416C105.283 64.3713 105.449 65.2398 105.781 65.8475C106.113 66.4546 106.568 66.7586 107.146 66.7586C108.196 66.7586 108.72 65.9593 108.72 64.3609C108.72 62.0374 108.099 60.8759 106.857 60.8759C105.808 60.8759 105.283 61.6644 105.283 63.2416ZM103.035 75.3904C102.971 75.5395 102.938 75.6996 102.938 75.8699C102.938 76.3816 103.286 76.8664 103.983 77.3249C104.678 77.7829 105.562 78.0121 106.632 78.0121C107.575 78.0121 108.303 77.8735 108.817 77.5963C109.331 77.3195 109.588 76.957 109.588 76.5096C109.588 75.9341 109.277 75.6464 108.656 75.6464C108.335 75.6464 107.955 75.6728 107.516 75.7261C107.077 75.7793 106.579 75.8061 106.022 75.8061C104.887 75.8061 103.891 75.6675 103.035 75.3904ZM120.94 69.2203V64.968C120.94 64.4779 120.897 64.1048 120.811 63.8492C120.726 63.5936 120.511 63.348 120.169 63.1139C119.912 62.9644 119.671 62.7993 119.446 62.6181C119.221 62.4369 119.109 62.1228 119.109 61.6753C119.109 61.2063 119.28 60.8385 119.623 60.5722C119.965 60.3056 120.479 60.0338 121.165 59.7569C122.557 59.2242 123.825 58.8564 124.971 58.654C126.117 58.4512 126.914 58.35 127.364 58.35C127.771 58.35 128.05 58.4142 128.2 58.5418C128.349 58.6698 128.424 58.947 128.424 59.3733C128.424 59.9273 128.36 60.8917 128.231 62.2666C128.103 63.6414 128.039 65.4158 128.039 67.5897C128.039 68.7192 128.162 69.5612 128.408 70.1152C128.654 70.6695 129.12 70.9467 129.806 70.9467C130.641 70.9467 131.192 70.6375 131.46 70.0192C131.728 69.4015 131.861 68.3998 131.861 67.0142V64.968C131.861 64.4779 131.829 64.1048 131.765 63.8492C131.701 63.5936 131.497 63.348 131.155 63.1139C130.876 62.9644 130.63 62.7993 130.416 62.6181C130.202 62.4369 130.095 62.1228 130.095 61.6753C130.095 61.2063 130.261 60.8385 130.592 60.5722C130.924 60.3056 131.423 60.0338 132.086 59.7569C133.392 59.2453 134.619 58.8829 135.764 58.6698C136.91 58.4569 137.708 58.35 138.157 58.35C138.65 58.35 138.939 58.4622 139.025 58.6858C139.11 58.9096 139.153 59.4051 139.153 60.1724C139.153 61.8134 139.116 63.4122 139.041 64.968C138.966 66.5241 138.928 68.0372 138.928 69.5079C138.928 69.7851 138.934 70.0086 138.945 70.1794C138.955 70.3496 138.987 70.483 139.041 70.5789C139.094 70.6748 139.169 70.7601 139.266 70.8345C139.362 70.9093 139.496 70.9999 139.667 71.1064C139.924 71.2555 140.138 71.4157 140.31 71.586C140.481 71.7566 140.567 72.0122 140.567 72.3533C140.567 73.0779 139.881 73.7387 138.511 74.3353C137.14 74.9324 135.277 75.2306 132.922 75.2306C132.557 75.2306 132.3 75.2094 132.151 75.1668C132.001 75.1242 131.915 74.9534 131.893 74.6552C131.851 74.2289 131.824 73.8667 131.813 73.568C131.803 73.2698 131.626 73.1205 131.283 73.1205C131.112 73.1205 130.946 73.1896 130.785 73.3282C130.625 73.4668 130.437 73.6212 130.223 73.7919C129.602 74.2609 128.986 74.6178 128.376 74.8628C127.766 75.1079 127.032 75.2306 126.176 75.2306C124.355 75.2306 123.028 74.7299 122.192 73.7281C121.357 72.7263 120.94 71.2239 120.94 69.2203ZM151.726 64.4567H152.015C152.872 64.4567 153.412 64.4087 153.637 64.3129C153.862 64.2169 153.975 63.9024 153.975 63.3696C153.975 62.7515 153.798 62.2666 153.445 61.915C153.091 61.5631 152.668 61.3875 152.176 61.3875C151.641 61.3875 151.169 61.5793 150.763 61.963C150.356 62.3466 150.152 62.8473 150.152 63.4655C150.152 63.8703 150.233 64.1369 150.393 64.2649C150.554 64.3925 150.859 64.4567 151.309 64.4567H151.726ZM158.183 67.5255H151.212C150.87 67.5255 150.623 67.5523 150.473 67.6055C150.323 67.6589 150.249 67.7815 150.249 67.9734C150.249 68.7618 150.586 69.4705 151.26 70.0993C151.935 70.7281 152.893 71.0425 154.135 71.0425C154.628 71.0425 155.072 70.9731 155.468 70.8345C155.864 70.6963 156.223 70.5362 156.544 70.355C156.866 70.174 157.155 70.014 157.412 69.8754C157.669 69.7372 157.893 69.6678 158.086 69.6678C158.45 69.6678 158.761 69.8168 159.018 70.1152C159.275 70.4139 159.404 70.8081 159.404 71.2982C159.404 71.6818 159.243 72.1028 158.922 72.5609C158.6 73.0193 158.119 73.4616 157.476 73.8878C155.849 74.9534 154.028 75.4863 152.015 75.4863C150.73 75.4863 149.558 75.268 148.498 74.8312C147.438 74.3943 146.522 73.7972 145.751 73.0405C144.981 72.2841 144.381 71.3941 143.952 70.3712C143.524 69.3479 143.31 68.2396 143.31 67.046C143.31 65.2772 143.845 63.6252 144.916 62.0906C145.751 60.9185 146.806 60.0074 148.08 59.3571C149.354 58.7072 150.72 58.3822 152.176 58.3822C153.332 58.3822 154.392 58.5581 155.356 58.9096C156.32 59.2613 157.139 59.7408 157.813 60.3484C158.488 60.9559 159.013 61.6753 159.387 62.5064C159.762 63.3375 159.949 64.2222 159.949 65.1598C159.949 66.0337 159.81 66.6464 159.532 66.9984C159.254 67.3499 158.804 67.5255 158.183 67.5255Z" fill="white"/>
<path fill-rule="evenodd" clip-rule="evenodd" d="M6.60825 85.3809L5.95875 86.6945C5.59845 86.3359 5.02652 86.1565 4.24503 86.1565C3.45944 86.1565 2.83718 86.4797 2.37416 87.1282C1.91121 87.7745 1.68074 88.5564 1.68074 89.4716C1.68074 90.3891 1.89656 91.1355 2.32598 91.7172C2.75547 92.2968 3.35467 92.5866 4.12351 92.5866C4.96994 92.5866 5.6299 92.2864 6.10544 91.6859L6.85965 92.9744C6.2039 93.6583 5.24859 94.0002 3.99369 94.0002C2.72826 94.0002 1.74991 93.5874 1.05852 92.7639C0.367199 91.9403 0.0214844 90.8207 0.0214844 89.4091C0.0214844 88.0977 0.402782 86.9926 1.16536 86.0919C1.93007 85.1933 2.92309 84.7429 4.14656 84.7429C5.16058 84.7429 5.9818 84.9556 6.60825 85.3809ZM15.1162 93.8501H13.5197V87.8328L8.81853 93.9877H8.1397V84.9056H9.7362V90.9228L14.4374 84.768H15.1162V93.8501ZM23.1255 85.3809L22.476 86.6945C22.1157 86.3359 21.5437 86.1565 20.7623 86.1565C19.9767 86.1565 19.3544 86.4797 18.8914 87.1282C18.4285 87.7745 18.198 88.5564 18.198 89.4716C18.198 90.3891 18.4138 91.1355 18.8432 91.7172C19.2727 92.2968 19.8719 92.5866 20.6408 92.5866C21.4872 92.5866 22.1471 92.2864 22.6226 91.6859L23.3769 92.9744C22.7211 93.6583 21.7658 94.0002 20.5109 94.0002C19.2455 94.0002 18.2671 93.5874 17.5757 92.7639C16.8844 91.9403 16.5387 90.8207 16.5387 89.4091C16.5387 88.0977 16.92 86.9926 17.6826 86.0919C18.4473 85.1933 19.4403 84.7429 20.6638 84.7429C21.6778 84.7429 22.4991 84.9556 23.1255 85.3809ZM28.5537 86.3067V93.8501H26.9573V86.3067H24.1039V84.9056H31.5454V86.3067H28.5537ZM34.4219 86.3067V88.4083H37.401V89.7594H34.4219V92.4365H38.4946V93.8501H32.8255V84.9056H38.57V86.3067H34.4219ZM48.6283 93.8501H47.0822L46.152 89.0338L44.3418 93.9752H43.7762L41.9598 89.0338L40.9856 93.8501H39.452L41.2622 84.9056H42.1043L44.0527 90.9353L45.9508 84.9056H46.7931L48.6283 93.8501ZM55.0245 93.8501V89.8219H51.442V93.8501H49.8455V84.9056H51.442V88.4083H55.0245V84.9056H56.5957V93.8501H55.0245ZM60.0022 88.2749C60.5008 88.2228 60.88 88.1957 61.1377 88.1957C62.1768 88.1957 62.9834 88.4417 63.5554 88.9338C64.1273 89.4278 64.4144 90.1305 64.4144 91.048C64.4144 91.8986 64.1231 92.5783 63.5428 93.087C62.9604 93.5957 62.1496 93.8501 61.1105 93.8501H58.4435V84.9056H60.0022V88.2749ZM60.0022 92.5241C60.4526 92.5491 60.7271 92.5616 60.8235 92.5616C61.5966 92.5616 62.1224 92.4094 62.401 92.1092C62.6797 91.8068 62.8179 91.4253 62.8179 90.9604C62.8179 90.5058 62.6608 90.143 62.3465 89.8741C62.0302 89.6051 61.5442 89.4716 60.8863 89.4716C60.681 89.4716 60.3877 89.4925 60.0022 89.5321V92.5241ZM67.1421 93.8501H65.5709V84.9056H67.1421V93.8501ZM75.9643 93.8501H74.3678V87.8328L69.6666 93.9877H68.9878V84.9056H70.5842V90.9228L75.2855 84.768H75.9643V93.8501ZM74.9461 82.291C74.8224 82.906 74.5606 83.3731 74.1563 83.6901C73.754 84.0091 73.2491 84.1675 72.6436 84.1675C72.0445 84.1675 71.5479 84.0091 71.1498 83.6901C70.7539 83.3731 70.4941 82.906 70.3705 82.291L71.6527 82.0283C71.747 82.7622 72.0885 83.1292 72.675 83.1292C73.2889 83.1292 73.6283 82.7664 73.6891 82.0408L74.9461 82.291ZM88.7921 93.8501H87.1957V87.8328L82.4945 93.9877H81.8157V84.9056H83.4121V90.9228L88.1133 84.768H88.7921V93.8501ZM95.821 93.8501V89.8219H92.2385V93.8501H90.642V84.9056H92.2385V88.4083H95.821V84.9056H97.3922V93.8501H95.821ZM103.137 86.3067V93.8501H101.54V86.3067H98.687V84.9056H106.129V86.3067H103.137ZM109.005 86.3067V88.4083H111.984V89.7594H109.005V92.4365H113.078V93.8501H107.408V84.9056H113.153V86.3067H109.005ZM120.245 86.3067H116.26V93.8501H114.651V84.9056H120.245V86.3067ZM123.159 90.5538V93.8501H121.563V84.9097C122.738 84.8659 123.362 84.843 123.435 84.843C124.837 84.843 125.87 85.0578 126.536 85.4894C127.2 85.9209 127.533 86.5986 127.533 87.5222C127.533 89.5717 126.316 90.5975 123.884 90.5975C123.7 90.5975 123.459 90.583 123.159 90.5538ZM123.159 86.2816V89.1464C123.433 89.1714 123.647 89.184 123.798 89.184C124.527 89.184 125.059 89.0651 125.396 88.8274C125.732 88.5876 125.899 88.1936 125.899 87.6431C125.899 86.7195 125.147 86.2566 123.645 86.2566C123.419 86.2566 123.257 86.265 123.159 86.2816ZM134.244 93.8501L133.575 92.0362H130.496L129.882 93.8501H128.097L131.692 84.7805H132.383L136.004 93.8501H134.244ZM132.031 87.5201L130.948 90.8228H133.108L132.031 87.5201ZM140.87 86.3067V93.8501H139.274V86.3067H136.421V84.9056H143.862V86.3067H140.87ZM144.715 89.2986C144.715 88.0288 145.065 86.9509 145.766 86.0689C146.468 85.185 147.409 84.7429 148.588 84.7429C149.869 84.7429 150.853 85.1391 151.54 85.9314C152.228 86.7216 152.571 87.8454 152.571 89.2986C152.571 90.756 152.213 91.9027 151.496 92.743C150.782 93.5811 149.768 94.0002 148.459 94.0002C147.239 94.0002 146.311 93.577 145.672 92.7326C145.033 91.8882 144.715 90.7435 144.715 89.2986ZM146.374 89.3007C146.374 90.3891 146.554 91.2084 146.915 91.7589C147.273 92.3114 147.788 92.5866 148.459 92.5866C149.257 92.5866 149.864 92.3093 150.283 91.7568C150.702 91.2022 150.912 90.3849 150.912 89.3007C150.912 87.2053 150.137 86.1565 148.588 86.1565C147.868 86.1565 147.319 86.4401 146.942 87.0051C146.563 87.5723 146.374 88.3374 146.374 89.3007ZM155.577 90.5538V93.8501H153.981V84.9097C155.156 84.8659 155.781 84.843 155.854 84.843C157.256 84.843 158.288 85.0578 158.955 85.4894C159.619 85.9209 159.952 86.5986 159.952 87.5222C159.952 89.5717 158.735 90.5975 156.302 90.5975C156.118 90.5975 155.877 90.583 155.577 90.5538ZM155.577 86.2816V89.1464C155.852 89.1714 156.066 89.184 156.216 89.184C156.946 89.184 157.478 89.0651 157.815 88.8274C158.15 88.5876 158.318 88.1936 158.318 87.6431C158.318 86.7195 157.566 86.2566 156.064 86.2566C155.837 86.2566 155.676 86.265 155.577 86.2816Z" fill="white"/>
</svg>
