<svg width="175" height="98" viewBox="0 0 175 98" fill="none" xmlns="http://www.w3.org/2000/svg">
<path fill-rule="evenodd" clip-rule="evenodd" d="M121.506 45.4993V42.2201V26.3184H114.699V18H138V26.3184H131.324V45.5098H123.085H121.524H121.506V45.4993ZM63.6934 44.0819C63.7133 44.0846 63.732 44.0878 63.7483 44.0904C63.7981 44.0984 63.825 44.1016 63.8746 44.1031L63.9232 44.1046H79.2236C81.7057 43.9183 83.9123 41.8681 84.1065 39.0024C84.1065 34.1869 84.1065 29.3714 84.1065 24.5559C83.7664 21.7019 81.8882 19.8063 79.1529 19.457C74.0342 19.457 68.9156 19.457 63.797 19.457C59.9326 20.23 59.2191 22.4043 58.7727 24.6975C58.7727 29.3951 58.7727 34.0925 58.7727 38.79C59.2565 42.449 61.2761 43.6575 63.6934 44.0819ZM63.0255 45.501L63.0175 45.5008L63.0162 45.5034C69.1491 45.5034 73.5453 45.5209 79.6784 45.5209C81.9945 45.3517 84.8957 43.7551 85.5004 39.6364C85.5004 34.3251 85.5004 29.1376 85.5004 23.8263C84.9235 20.5741 83.0493 18.628 80.0022 18.1115C74.2702 18.1115 68.5382 18.1115 62.8062 18.1115C58.622 19.0041 57.7528 21.5553 57.3573 24.3434C57.3573 29.3242 57.3573 34.3049 57.3573 39.2857C57.4626 42.6042 60.1448 45.237 63.0212 45.5097L63.0255 45.501ZM64.707 41.1261L64.6956 41.1533H65.4455H70.5015V26.5528L64.8598 40.7627L64.8594 40.7637L64.7195 41.1161L64.707 41.1261ZM63.1547 42.3905H63.1341L71.4625 21.2935V42.3905H65.0234H63.1547ZM123.085 44.0688H129.782L129.764 24.9717L136.56 24.9791L136.531 19.4048L116.204 19.4402L116.171 24.9598L123.085 24.9534V42.2201V44.0794M98.3563 28.2622H98.3546L98.3578 26.2812L101.046 26.2521C103.166 26.523 102.601 28.1773 101.448 28.2622H99.149H99.1409H99.0927H99.0445H98.9962H98.9478H98.8992H98.8506H98.8018H98.7529H98.7039H98.6547H98.6053H98.5558H98.5062H98.4564H98.4065H98.3563ZM98.3474 32.742H98.3501L104.255 45.4989L115.649 45.4522L108.935 33.0903C112.551 31.6533 114.585 29.7729 114.484 25.9504C114.566 22.5043 113.172 17.8356 103.961 18.0061C98.2328 18.0061 92.5049 18.0061 86.7772 18.0061V45.4445L86.7904 45.4329V45.4713H88.2634L98.3268 45.4869L98.3474 32.742ZM88.3821 42.1816H88.3818L88.378 19.452L106.475 19.4726C111.353 19.7053 113.389 23.4886 113.013 26.9641C112.741 29.4721 110.576 31.1651 107.126 32.5644C109.17 36.4527 111.223 40.1631 113.266 44.0515H105.669L99.2747 29.7269H101.649C105.567 29.2303 105.413 25.2683 101.549 24.9448C100.008 24.9448 98.4672 24.9448 96.9263 24.9448V44.0515H88.3875L88.3821 44.0563V44.0439V43.6472V42.1816ZM37.4474 42.2089H37.4472C37.4453 34.6908 37.4333 26.982 37.4333 19.4989C43.4898 19.4989 49.5466 19.4989 55.6032 19.4989C55.6032 21.3602 55.6032 23.1222 55.6032 24.9835C52.0741 24.9835 48.5451 24.9835 45.0161 24.9835C45.0161 26.5582 45.0161 28.2181 45.0161 29.7928C48.2589 29.7928 51.5019 29.7928 54.7448 29.7928C54.7448 31.3679 54.7448 32.8579 54.7448 34.433C51.5019 34.433 48.2591 34.433 45.0163 34.433C45.0163 37.632 45.0163 40.9097 45.0163 44.1088H37.4474V44.1039V43.7234V42.2089ZM36.0168 42.2089H36V45.4986H36.0168V45.5425L36.0574 45.4986H36.0602L36.0211 45.5361C39.3117 45.5361 43.1239 45.5361 46.4145 45.5361C46.4145 42.3148 46.4068 39.0676 46.4068 35.8462C49.6022 35.8462 52.9216 35.8502 56.117 35.8502C56.117 33.3446 56.117 30.8955 56.117 28.3899C52.9216 28.3899 49.5988 28.3899 46.4035 28.3899C46.4035 27.7457 46.4035 27.0165 46.4035 26.3723C49.8849 26.3723 53.3804 26.3723 56.8618 26.3723C56.8618 23.628 56.8618 20.8554 56.8618 18.1111C49.9229 18.1111 42.9557 18.1252 36.0168 18.1252V42.2089ZM72.4387 42.3866V26.7527L75.6319 20.8531C75.6319 27.7032 75.6319 34.5533 75.6319 41.4034C74.5673 41.9971 73.5029 42.2658 72.4387 42.3866ZM76.5162 40.961V26.7527L79.3165 21.2956C79.3165 26.5397 79.3165 31.7838 79.3165 37.0278C79.2205 38.8159 78.101 40.0209 76.5162 40.961Z" fill="white"/>
<path fill-rule="evenodd" clip-rule="evenodd" d="M42.4616 57.5566V62.0244C42.4616 62.6939 42.53 63.1381 42.6665 63.3567C42.8031 63.5753 43.0145 63.6845 43.3014 63.6845C45.2808 63.6845 46.2706 62.2432 46.2706 59.3602C46.2706 57.6523 46.0318 56.3817 45.5539 55.5482C45.076 54.7148 44.2911 54.298 43.1988 54.298C43.0624 54.298 42.9463 54.3186 42.8507 54.3595C42.7552 54.4006 42.6766 54.4858 42.6151 54.6158C42.5537 54.7456 42.5129 54.9436 42.4923 55.2101C42.472 55.4766 42.4616 55.8351 42.4616 56.2861V57.5566ZM51.5334 59.012C51.5334 61.3481 50.9021 63.1449 49.6393 64.4019C48.3765 65.659 46.5436 66.2874 44.1409 66.2874C43.7041 66.2874 43.1954 66.2566 42.6151 66.1951C42.0352 66.1337 41.3763 66.1029 40.6391 66.1029C40.2569 66.1029 39.8438 66.1337 39.4002 66.1951C38.9564 66.2566 38.5709 66.2874 38.2431 66.2874C37.3968 66.2874 36.8166 66.1576 36.5026 65.8979C36.1885 65.6384 36.0315 65.3242 36.0315 64.9553C36.0315 64.6137 36.0726 64.3882 36.1544 64.2789C36.2364 64.1696 36.3353 64.0911 36.4514 64.0432C36.5675 63.9955 36.6937 63.9476 36.8302 63.8997C36.9668 63.8519 37.0931 63.7152 37.2092 63.4898C37.325 63.2645 37.4242 62.9159 37.506 62.4447C37.5879 61.9733 37.6288 61.3004 37.6288 60.426V57.9871C37.6288 57.0445 37.5981 56.31 37.5366 55.784C37.4752 55.2581 37.3968 54.8652 37.3013 54.6054C37.2057 54.3459 37.0998 54.1784 36.9837 54.1034C36.8679 54.0283 36.7619 53.9635 36.6664 53.9088C36.5708 53.854 36.4923 53.7754 36.4308 53.673C36.3694 53.5706 36.3386 53.3554 36.3386 53.0274C36.3386 52.4809 36.5503 52.1257 36.9736 51.9616C37.3968 51.7977 38.0315 51.7156 38.878 51.7156C39.1511 51.7156 39.4242 51.7464 39.6972 51.8079C39.9701 51.8694 40.3116 51.9001 40.7211 51.9001C40.9804 51.9001 41.4104 51.8694 42.0112 51.8079C42.6118 51.7464 43.4445 51.7156 44.5095 51.7156C46.7621 51.7156 48.496 52.3545 49.7109 53.6321C50.9261 54.9095 51.5334 56.7029 51.5334 59.012ZM56.0672 54.9334C54.6749 54.9334 53.9785 54.4348 53.9785 53.4372C53.9785 52.9591 54.289 52.522 54.9104 52.1257C55.5315 51.7295 56.3609 51.5312 57.3985 51.5312C58.122 51.5312 58.6749 51.6542 59.057 51.9001C59.4395 52.1461 59.6305 52.4878 59.6305 52.925C59.6305 53.4578 59.3063 53.9257 58.6577 54.3287C58.0092 54.7317 57.1457 54.9334 56.0672 54.9334ZM59.7943 56.6755V62.7828C59.7943 63.0835 59.8249 63.2918 59.8864 63.4078C59.9478 63.524 60.0538 63.6504 60.2039 63.7871C60.3677 63.9374 60.5179 64.0807 60.6543 64.2175C60.7909 64.354 60.8592 64.5523 60.8592 64.8117C60.8592 65.7955 59.726 66.2874 57.4599 66.2874C56.2857 66.2874 55.3982 66.1542 54.7977 65.8877C54.1969 65.6212 53.8967 65.2489 53.8967 64.7708C53.8967 64.5249 53.9477 64.3438 54.0503 64.2276C54.1526 64.1115 54.2994 63.9783 54.4905 63.828C54.5861 63.7597 54.6749 63.6915 54.7568 63.623C54.8385 63.5547 54.8932 63.4659 54.9205 63.3567C54.9752 63.1655 55.0093 62.851 55.0229 62.4139C55.0366 61.9767 55.0434 61.4234 55.0434 60.7538V60.3234C55.0434 59.8042 55.0161 59.408 54.9614 59.1349C54.907 58.8616 54.7568 58.636 54.5111 58.4586C54.3335 58.3627 54.1732 58.2569 54.0297 58.1407C53.8863 58.0245 53.8147 57.8232 53.8147 57.5364C53.8147 57.2357 53.924 56.9999 54.1425 56.8292C54.3608 56.6583 54.6883 56.484 55.1254 56.3066C56.0126 55.9651 56.8318 55.7293 57.5828 55.5996C58.3336 55.4696 58.8591 55.4047 59.1596 55.4047C59.4462 55.4047 59.6237 55.4526 59.6919 55.5482C59.7601 55.6439 59.7943 55.8215 59.7943 56.081V56.6755ZM68.6491 59.9957C68.6626 59.8042 68.6731 59.6301 68.6798 59.4731C68.6866 59.3157 68.69 59.162 68.69 59.012C68.69 57.7958 68.4033 57.1877 67.8298 57.1877C67.5433 57.1877 67.3077 57.2938 67.1234 57.5056C66.939 57.7172 66.7378 57.9597 66.5194 58.233C66.2463 58.5745 65.9733 58.8309 65.7002 59.0015C65.4271 59.1724 65.1335 59.2579 64.8196 59.2579C64.4783 59.2579 64.1917 59.1383 63.9595 58.8991C63.7275 58.66 63.6114 58.3492 63.6114 57.9667C63.6114 57.6387 63.7241 57.3177 63.9493 57.0032C64.1745 56.6891 64.4988 56.4158 64.9221 56.1836C65.3451 55.9513 65.8538 55.7634 66.4476 55.6199C67.0416 55.4766 67.707 55.4047 68.4442 55.4047C69.9869 55.4047 71.1575 55.7053 71.9562 56.3066C72.7548 56.9077 73.1541 57.7823 73.1541 58.9299C73.1541 59.367 73.144 59.7768 73.1235 60.1596C73.1031 60.542 73.0927 60.8974 73.0927 61.2251V61.5325C73.0927 61.8879 73.0961 62.1781 73.1031 62.4037C73.1099 62.6291 73.1338 62.8101 73.1747 62.9467C73.2156 63.0835 73.277 63.1825 73.359 63.2439C73.441 63.3054 73.5501 63.3567 73.6867 63.3976C74.0689 63.507 74.2599 63.7392 74.2599 64.0945C74.2599 64.3266 74.1783 64.576 74.0143 64.8425C73.8505 65.109 73.6253 65.355 73.3385 65.5803C73.0519 65.8057 72.7106 65.9901 72.3146 66.1337C71.9187 66.2772 71.4818 66.3489 71.0039 66.3489C70.7446 66.3489 70.5125 66.3181 70.3078 66.2566C70.103 66.1951 69.9187 66.0823 69.7549 65.9184C69.5639 65.7408 69.4137 65.5837 69.3043 65.4472C69.1952 65.3104 69.0859 65.2421 68.9766 65.2421C68.881 65.2421 68.7959 65.2729 68.7206 65.3343C68.6457 65.3959 68.5603 65.4607 68.4647 65.529C68.1235 65.7749 67.7924 65.9593 67.4717 66.0823C67.1507 66.2053 66.7514 66.2668 66.2737 66.2668C65.2223 66.2668 64.3862 65.9766 63.765 65.3959C63.1439 64.8151 62.8333 64.0739 62.8333 63.1722C62.8333 62.6939 62.9424 62.2534 63.1608 61.8504C63.3792 61.4473 63.6796 61.0954 64.062 60.7949C64.4442 60.4944 64.8948 60.2586 65.4136 60.0879C65.9322 59.917 66.4921 59.8316 67.0927 59.8316C67.2975 59.8316 67.5295 59.8453 67.789 59.8727C68.0483 59.8998 68.3352 59.941 68.6491 59.9957ZM68.6285 62.0041C68.6285 61.7716 68.5978 61.6284 68.5364 61.5737C68.475 61.519 68.3352 61.4916 68.1165 61.4916C67.4613 61.4916 67.1338 61.9084 67.1338 62.7419C67.1338 63.5206 67.393 63.91 67.9118 63.91C68.2532 63.91 68.458 63.7631 68.5262 63.4693C68.5944 63.1757 68.6285 62.6872 68.6285 62.0041ZM76.0704 64.8732C76.0704 64.6682 76.1045 64.5111 76.1727 64.4019C76.2409 64.2925 76.3263 64.2071 76.4286 64.1456C76.5311 64.0841 76.6368 64.0297 76.7462 63.9817C76.8552 63.934 76.9578 63.8759 77.0533 63.8074C77.2718 63.6436 77.4014 63.1415 77.4423 62.3011C77.4834 61.4608 77.5037 60.2687 77.5037 58.7249V57.9053C77.5037 57.2493 77.4868 56.7097 77.4527 56.2861C77.4186 55.8624 77.2991 55.555 77.0942 55.3638C76.9849 55.2544 76.8587 55.1692 76.7154 55.1077C76.572 55.0462 76.432 54.9777 76.2955 54.9027C76.1592 54.8276 76.0464 54.7354 75.9576 54.626C75.8689 54.5166 75.8246 54.3527 75.8246 54.1341C75.8246 53.8472 75.8996 53.6081 76.0498 53.4169C76.2 53.2256 76.4458 53.0342 76.787 52.843C77.3605 52.515 78.0498 52.2453 78.8553 52.0335C79.6607 51.8217 80.4594 51.7156 81.2513 51.7156C81.6472 51.7156 81.9064 51.7772 82.0293 51.9001C82.1522 52.0231 82.2136 52.2487 82.2136 52.5764C82.2136 52.7405 82.2001 53.4031 82.1727 54.5645C82.1454 55.726 82.1319 57.3996 82.1319 59.5857C82.1319 60.7879 82.1626 61.7307 82.2241 62.4139C82.2854 63.097 82.405 63.5274 82.5822 63.705C82.7324 63.8554 82.9133 63.9918 83.125 64.1148C83.3367 64.2378 83.4423 64.477 83.4423 64.8323C83.4423 65.8161 82.1865 66.3079 79.6745 66.3079C77.2718 66.3079 76.0704 65.8297 76.0704 64.8732ZM85.1298 61.0613C85.1298 59.4079 85.7783 58.0349 87.0754 56.9418C87.6487 56.4499 88.3041 56.0709 89.0414 55.8043C89.7786 55.5381 90.5429 55.4047 91.3348 55.4047C92.154 55.4047 92.898 55.5311 93.567 55.784C94.2358 56.0368 94.8127 56.3884 95.2974 56.8394C95.782 57.2904 96.1574 57.8333 96.4237 58.4687C96.6898 59.1042 96.8231 59.8112 96.8231 60.5899C96.8231 61.3551 96.6796 62.0895 96.3931 62.7929C96.1062 63.4966 95.6831 64.1218 95.1232 64.6682C93.9218 65.8022 92.4338 66.3695 90.659 66.3695C89.1299 66.3695 87.8671 65.8911 86.8706 64.9347C86.3109 64.4019 85.8808 63.8007 85.5805 63.1311C85.28 62.4618 85.1298 61.7716 85.1298 61.0613ZM89.7581 59.6062C89.7581 60.0025 89.7989 60.4568 89.881 60.969C89.9626 61.4815 90.0855 61.9835 90.2495 62.4753C90.577 63.4044 90.9662 63.8689 91.4168 63.8689C91.676 63.8689 91.8843 63.7564 92.0413 63.5307C92.1983 63.3054 92.2769 62.981 92.2769 62.5574C92.2769 61.9014 92.2256 61.2936 92.1233 60.7335C92.0207 60.1731 91.8911 59.6882 91.7341 59.2782C91.5771 58.8684 91.3996 58.5508 91.2018 58.3252C91.0037 58.0998 90.8024 57.9871 90.5976 57.9871C90.0379 57.9871 89.7581 58.5268 89.7581 59.6062ZM100.64 61.6352C100.149 61.3618 99.7664 60.9964 99.4933 60.5386C99.2203 60.0809 99.0836 59.5653 99.0836 58.9913C99.0836 58.4857 99.203 58.0144 99.442 57.5773C99.6809 57.14 100.019 56.7643 100.456 56.4499C100.892 56.1358 101.411 55.8864 102.012 55.702C102.613 55.5175 103.275 55.4253 103.998 55.4253C104.695 55.4253 105.306 55.504 105.831 55.6611C106.357 55.8182 106.79 55.8965 107.132 55.8965C107.473 55.8965 107.773 55.8455 108.033 55.7429C108.292 55.6405 108.521 55.5311 108.719 55.4151C108.917 55.2989 109.08 55.1895 109.21 55.0872C109.34 54.9847 109.439 54.9334 109.507 54.9334C110.012 54.9334 110.265 55.275 110.265 55.9581C110.265 56.3543 110.173 56.7097 109.988 57.0239C109.804 57.338 109.521 57.666 109.138 58.0076C109.179 58.2535 109.2 58.4857 109.2 58.7045C109.2 59.2373 109.084 59.7223 108.852 60.1596C108.62 60.5967 108.295 60.9757 107.879 61.297C107.463 61.618 106.957 61.8673 106.364 62.045C105.77 62.2226 105.104 62.3115 104.367 62.3115C104.149 62.3115 103.896 62.3011 103.609 62.2808C103.323 62.2602 103.015 62.2226 102.688 62.168C102.51 62.2635 102.422 62.4207 102.422 62.6392C102.422 62.8442 102.551 63.0253 102.811 63.1825C103.07 63.3395 103.439 63.4182 103.916 63.4182C104.34 63.4182 104.828 63.3737 105.381 63.2848C105.934 63.1962 106.545 63.1517 107.214 63.1517C109.22 63.1517 110.224 64.0125 110.224 65.734C110.224 66.3215 110.077 66.868 109.783 67.3735C109.49 67.8792 109.067 68.3198 108.514 68.6954C107.961 69.0711 107.292 69.3684 106.507 69.5869C105.722 69.8055 104.831 69.9149 103.835 69.9149C103.043 69.9149 102.326 69.8328 101.684 69.669C101.043 69.5051 100.5 69.2862 100.056 69.0132C99.6128 68.7399 99.2713 68.4291 99.0326 68.0805C98.7936 67.7323 98.6741 67.3667 98.6741 66.9843C98.6741 66.2465 99.1041 65.7476 99.9642 65.4881C99.145 65.0509 98.7355 64.4496 98.7355 63.6845C98.7355 62.7828 99.3704 62.0996 100.64 61.6352ZM103.118 58.5404C103.118 59.2646 103.224 59.8214 103.435 60.2109C103.647 60.6001 103.937 60.7949 104.306 60.7949C104.975 60.7949 105.309 60.2825 105.309 59.2579C105.309 57.7685 104.913 57.0239 104.121 57.0239C103.452 57.0239 103.118 57.5293 103.118 58.5404ZM101.684 66.3283C101.644 66.4239 101.623 66.5265 101.623 66.6357C101.623 66.9637 101.845 67.2745 102.289 67.5684C102.732 67.862 103.295 68.009 103.978 68.009C104.579 68.009 105.043 67.9201 105.371 67.7424C105.698 67.5649 105.862 67.3326 105.862 67.0457C105.862 66.6768 105.664 66.4924 105.268 66.4924C105.063 66.4924 104.821 66.5094 104.541 66.5435C104.261 66.5776 103.944 66.5948 103.589 66.5948C102.865 66.5948 102.231 66.5059 101.684 66.3283ZM113.099 62.373V59.6471C113.099 59.3329 113.071 59.0938 113.017 58.9299C112.962 58.766 112.826 58.6086 112.607 58.4586C112.444 58.3627 112.29 58.2569 112.147 58.1407C112.003 58.0245 111.931 57.8232 111.931 57.5364C111.931 57.2357 112.041 56.9999 112.259 56.8292C112.478 56.6583 112.805 56.484 113.242 56.3066C114.13 55.9651 114.938 55.7293 115.669 55.5996C116.399 55.4696 116.908 55.4047 117.194 55.4047C117.454 55.4047 117.631 55.4458 117.727 55.5276C117.822 55.6097 117.87 55.7874 117.87 56.0606C117.87 56.4158 117.829 57.034 117.747 57.9154C117.665 58.7967 117.624 59.9342 117.624 61.3277C117.624 62.0518 117.703 62.5915 117.86 62.9467C118.017 63.302 118.314 63.4797 118.751 63.4797C119.283 63.4797 119.635 63.2815 119.805 62.8851C119.976 62.4892 120.061 61.847 120.061 60.9588V59.6471C120.061 59.3329 120.041 59.0938 120 58.9299C119.959 58.766 119.829 58.6086 119.611 58.4586C119.433 58.3627 119.276 58.2569 119.14 58.1407C119.003 58.0245 118.935 57.8232 118.935 57.5364C118.935 57.2357 119.041 56.9999 119.252 56.8292C119.464 56.6583 119.782 56.484 120.205 56.3066C121.037 55.9786 121.819 55.7463 122.55 55.6097C123.28 55.4732 123.788 55.4047 124.075 55.4047C124.389 55.4047 124.573 55.4766 124.628 55.6199C124.683 55.7634 124.71 56.081 124.71 56.5729C124.71 57.6249 124.686 58.6498 124.638 59.6471C124.59 60.6447 124.566 61.6146 124.566 62.5574C124.566 62.7351 124.57 62.8783 124.577 62.9878C124.584 63.097 124.604 63.1825 124.638 63.2439C124.672 63.3054 124.72 63.3601 124.782 63.4078C124.843 63.4557 124.928 63.5138 125.038 63.582C125.201 63.6777 125.338 63.7804 125.447 63.8895C125.556 63.9989 125.611 64.1628 125.611 64.3814C125.611 64.8459 125.174 65.2695 124.3 65.652C123.427 66.0347 122.239 66.2259 120.737 66.2259C120.505 66.2259 120.341 66.2123 120.246 66.185C120.15 66.1576 120.096 66.0482 120.082 65.857C120.055 65.5837 120.037 65.3515 120.031 65.1601C120.024 64.9689 119.911 64.8732 119.693 64.8732C119.584 64.8732 119.478 64.9175 119.375 65.0064C119.273 65.0952 119.153 65.1942 119.017 65.3036C118.621 65.6042 118.229 65.833 117.839 65.9901C117.45 66.1472 116.983 66.2259 116.437 66.2259C115.276 66.2259 114.43 65.9049 113.897 65.2627C113.365 64.6205 113.099 63.6574 113.099 62.373ZM132.725 59.3193H132.909C133.455 59.3193 133.8 59.2886 133.944 59.2271C134.087 59.1656 134.159 58.964 134.159 58.6224C134.159 58.2262 134.046 57.9154 133.821 57.69C133.596 57.4644 133.326 57.3519 133.012 57.3519C132.671 57.3519 132.37 57.4748 132.111 57.7208C131.851 57.9667 131.722 58.2877 131.722 58.684C131.722 58.9434 131.773 59.1143 131.875 59.1964C131.978 59.2782 132.172 59.3193 132.459 59.3193H132.725ZM136.841 61.2866H132.397C132.179 61.2866 132.022 61.3038 131.927 61.3379C131.831 61.3721 131.783 61.4507 131.783 61.5737C131.783 62.0791 131.998 62.5334 132.428 62.9365C132.858 63.3395 133.469 63.5411 134.261 63.5411C134.575 63.5411 134.858 63.4966 135.111 63.4078C135.363 63.3192 135.592 63.2166 135.797 63.1004C136.002 62.9844 136.186 62.8818 136.35 62.7929C136.514 62.7043 136.657 62.6598 136.78 62.6598C137.012 62.6598 137.21 62.7554 137.374 62.9467C137.537 63.1381 137.619 63.3908 137.619 63.705C137.619 63.9509 137.517 64.2208 137.312 64.5145C137.107 64.8083 136.8 65.0918 136.391 65.3651C135.353 66.0482 134.193 66.3898 132.909 66.3898C132.09 66.3898 131.343 66.2499 130.667 65.9698C129.991 65.6898 129.408 65.307 128.916 64.8219C128.425 64.337 128.042 63.7665 127.769 63.1108C127.496 62.4548 127.36 61.7443 127.36 60.9792C127.36 59.8453 127.701 58.7863 128.384 57.8026C128.916 57.0512 129.588 56.4671 130.401 56.0503C131.213 55.6337 132.084 55.4253 133.012 55.4253C133.749 55.4253 134.425 55.5381 135.039 55.7634C135.654 55.9888 136.176 56.2962 136.606 56.6857C137.036 57.0752 137.37 57.5364 137.609 58.0691C137.848 58.6019 137.968 59.169 137.968 59.77C137.968 60.3302 137.879 60.723 137.701 60.9487C137.524 61.174 137.237 61.2866 136.841 61.2866Z" fill="white"/>
<path fill-rule="evenodd" clip-rule="evenodd" d="M40.2127 72.7332L39.7987 73.5752C39.569 73.3453 39.2044 73.2303 38.7062 73.2303C38.2054 73.2303 37.8087 73.4375 37.5135 73.8532C37.2184 74.2675 37.0715 74.7687 37.0715 75.3555C37.0715 75.9436 37.209 76.4221 37.4828 76.7949C37.7566 77.1665 38.1386 77.3523 38.6287 77.3523C39.1683 77.3523 39.589 77.1598 39.8922 76.7749L40.373 77.6009C39.955 78.0393 39.346 78.2585 38.5459 78.2585C37.7392 78.2585 37.1155 77.9938 36.6748 77.4659C36.2341 76.938 36.0137 76.2203 36.0137 75.3154C36.0137 74.4747 36.2568 73.7663 36.7429 73.1889C37.2304 72.6129 37.8634 72.3242 38.6434 72.3242C39.2899 72.3242 39.8134 72.4605 40.2127 72.7332ZM45.6366 78.1623H44.6188V74.3049L41.6218 78.2505H41.189V72.4284H42.2068V76.2858L45.2038 72.3402H45.6366V78.1623ZM50.7425 72.7332L50.3284 73.5752C50.0987 73.3453 49.7341 73.2303 49.2359 73.2303C48.7351 73.2303 48.3384 73.4375 48.0432 73.8532C47.7481 74.2675 47.6012 74.7687 47.6012 75.3555C47.6012 75.9436 47.7388 76.4221 48.0125 76.7949C48.2863 77.1665 48.6683 77.3523 49.1585 77.3523C49.6981 77.3523 50.1188 77.1598 50.4219 76.7749L50.9028 77.6009C50.4847 78.0393 49.8757 78.2585 49.0757 78.2585C48.269 78.2585 47.6453 77.9938 47.2045 77.4659C46.7638 76.938 46.5434 76.2203 46.5434 75.3154C46.5434 74.4747 46.7865 73.7663 47.2726 73.1889C47.7601 72.6129 48.3932 72.3242 49.1732 72.3242C49.8196 72.3242 50.3431 72.4605 50.7425 72.7332ZM54.203 73.3266V78.1623H53.1853V73.3266H51.3662V72.4284H56.1102V73.3266H54.203ZM57.9439 73.3266V74.6738H59.8431V75.5399H57.9439V77.2561H60.5403V78.1623H56.9262V72.4284H60.5884V73.3266H57.9439ZM67.0005 78.1623H66.0149L65.4219 75.0748L64.2679 78.2425H63.9073L62.7493 75.0748L62.1283 78.1623H61.1507L62.3046 72.4284H62.8415L64.0836 76.2938L65.2936 72.4284H65.8306L67.0005 78.1623ZM71.0781 78.1623V75.58H68.7942V78.1623H67.7765V72.4284H68.7942V74.6738H71.0781V72.4284H72.0798V78.1623H71.0781ZM74.2514 74.5883C74.5693 74.5549 74.811 74.5375 74.9753 74.5375C75.6377 74.5375 76.1519 74.6952 76.5166 75.0107C76.8811 75.3274 77.0641 75.7778 77.0641 76.366C77.0641 76.9112 76.8785 77.347 76.5085 77.6731C76.1372 77.9992 75.6204 78.1623 74.9579 78.1623H73.2577V72.4284H74.2514V74.5883ZM74.2514 77.3122C74.5385 77.3283 74.7135 77.3363 74.7749 77.3363C75.2678 77.3363 75.603 77.2387 75.7806 77.0462C75.9583 76.8524 76.0464 76.6078 76.0464 76.3098C76.0464 76.0184 75.9463 75.7859 75.7459 75.6134C75.5442 75.441 75.2344 75.3555 74.815 75.3555C74.6841 75.3555 74.4971 75.3688 74.2514 75.3942V77.3122ZM78.8031 78.1623H77.8014V72.4284H78.8031V78.1623ZM84.4272 78.1623H83.4095V74.3049L80.4124 78.2505H79.9797V72.4284H80.9974V76.2858L83.9945 72.3402H84.4272V78.1623ZM83.7781 70.7524C83.6993 71.1466 83.5323 71.4461 83.2746 71.6492C83.0182 71.8537 82.6963 71.9553 82.3103 71.9553C81.9283 71.9553 81.6118 71.8537 81.358 71.6492C81.1056 71.4461 80.94 71.1466 80.8612 70.7524L81.6786 70.584C81.7387 71.0544 81.9564 71.2897 82.3303 71.2897C82.7216 71.2897 82.938 71.0571 82.9768 70.592L83.7781 70.7524ZM92.605 78.1623H91.5872V74.3049L88.5902 78.2505H88.1575V72.4284H89.1752V76.2858L92.1722 72.3402H92.605V78.1623ZM97.0859 78.1623V75.58H94.802V78.1623H93.7843V72.4284H94.802V74.6738H97.0859V72.4284H98.0875V78.1623H97.0859ZM101.75 73.3266V78.1623H100.732V73.3266H98.9129V72.4284H103.657V73.3266H101.75ZM105.491 73.3266V74.6738H107.39V75.5399H105.491V77.2561H108.087V78.1623H104.473V72.4284H108.135V73.3266H105.491ZM112.656 73.3266H110.116V78.1623H109.09V72.4284H112.656V73.3266ZM114.514 76.0492V78.1623H113.496V72.4311C114.245 72.403 114.643 72.3883 114.69 72.3883C115.584 72.3883 116.242 72.526 116.667 72.8027C117.09 73.0793 117.303 73.5137 117.303 74.1058C117.303 75.4196 116.527 76.0772 114.976 76.0772C114.858 76.0772 114.705 76.0679 114.514 76.0492ZM114.514 73.3105V75.147C114.689 75.163 114.825 75.1711 114.921 75.1711C115.386 75.1711 115.725 75.0949 115.94 74.9425C116.154 74.7888 116.261 74.5362 116.261 74.1833C116.261 73.5912 115.781 73.2945 114.824 73.2945C114.679 73.2945 114.577 73.2999 114.514 73.3105ZM121.58 78.1623L121.154 76.9995H119.191L118.8 78.1623H117.662L119.954 72.3482H120.394L122.702 78.1623H121.58ZM120.17 74.1045L119.479 76.2216H120.857L120.17 74.1045ZM125.805 73.3266V78.1623H124.787V73.3266H122.968V72.4284H127.712V73.3266H125.805ZM128.256 75.2446C128.256 74.4306 128.479 73.7396 128.926 73.1742C129.374 72.6075 129.973 72.3242 130.725 72.3242C131.541 72.3242 132.169 72.5781 132.607 73.086C133.045 73.5926 133.264 74.313 133.264 75.2446C133.264 76.1788 133.036 76.9139 132.579 77.4526C132.123 77.9898 131.477 78.2585 130.642 78.2585C129.865 78.2585 129.273 77.9872 128.866 77.4459C128.459 76.9046 128.256 76.1708 128.256 75.2446ZM129.313 75.2459C129.313 75.9436 129.428 76.4688 129.658 76.8217C129.886 77.1759 130.215 77.3523 130.642 77.3523C131.151 77.3523 131.538 77.1745 131.806 76.8203C132.073 76.4648 132.206 75.9409 132.206 75.2459C132.206 73.9027 131.712 73.2303 130.725 73.2303C130.266 73.2303 129.916 73.4121 129.675 73.7743C129.434 74.1379 129.313 74.6284 129.313 75.2459ZM135.181 76.0492V78.1623H134.163V72.4311C134.912 72.403 135.31 72.3883 135.357 72.3883C136.25 72.3883 136.909 72.526 137.334 72.8027C137.757 73.0793 137.969 73.5137 137.969 74.1058C137.969 75.4196 137.193 76.0772 135.643 76.0772C135.525 76.0772 135.372 76.0679 135.181 76.0492ZM135.181 73.3105V75.147C135.356 75.163 135.492 75.1711 135.588 75.1711C136.053 75.1711 136.392 75.0949 136.607 74.9425C136.821 74.7888 136.928 74.5362 136.928 74.1833C136.928 73.5912 136.448 73.2945 135.49 73.2945C135.346 73.2945 135.243 73.2999 135.181 73.3105Z" fill="white"/>
</svg>
