<svg width="175" height="98" viewBox="0 0 175 98" fill="none" xmlns="http://www.w3.org/2000/svg">
<path fill-rule="evenodd" clip-rule="evenodd" d="M121.506 45.4993V42.2201V26.3184H114.699V18H138V26.3184H131.324V45.5098H123.085H121.524H121.506V45.4993ZM63.6934 44.0819C63.7133 44.0846 63.732 44.0878 63.7483 44.0904C63.7981 44.0984 63.825 44.1016 63.8746 44.1031L63.9232 44.1046H79.2236C81.7057 43.9183 83.9123 41.8681 84.1065 39.0024C84.1065 34.1869 84.1065 29.3714 84.1065 24.5559C83.7664 21.7019 81.8882 19.8063 79.1529 19.457C74.0342 19.457 68.9156 19.457 63.797 19.457C59.9326 20.23 59.2191 22.4043 58.7727 24.6975C58.7727 29.3951 58.7727 34.0925 58.7727 38.79C59.2565 42.449 61.2761 43.6575 63.6934 44.0819ZM63.0255 45.501L63.0175 45.5008L63.0162 45.5034C69.1491 45.5034 73.5453 45.5209 79.6784 45.5209C81.9945 45.3517 84.8957 43.7551 85.5004 39.6364C85.5004 34.3251 85.5004 29.1376 85.5004 23.8263C84.9235 20.5741 83.0493 18.628 80.0022 18.1115C74.2702 18.1115 68.5382 18.1115 62.8062 18.1115C58.622 19.0041 57.7528 21.5553 57.3573 24.3434C57.3573 29.3242 57.3573 34.3049 57.3573 39.2857C57.4626 42.6042 60.1448 45.237 63.0212 45.5097L63.0255 45.501ZM64.707 41.1261L64.6956 41.1533H65.4455H70.5015V26.5528L64.8598 40.7627L64.8594 40.7637L64.7195 41.1161L64.707 41.1261ZM63.1547 42.3905H63.1341L71.4625 21.2935V42.3905H65.0234H63.1547ZM123.085 44.0688H129.782L129.764 24.9717L136.56 24.9791L136.531 19.4048L116.204 19.4402L116.171 24.9598L123.085 24.9534V42.2201V44.0794M98.3563 28.2622H98.3546L98.3578 26.2812L101.046 26.2521C103.166 26.523 102.601 28.1773 101.448 28.2622H99.149H99.1409H99.0927H99.0445H98.9962H98.9478H98.8992H98.8506H98.8018H98.7529H98.7039H98.6547H98.6053H98.5558H98.5062H98.4564H98.4065H98.3563ZM98.3474 32.742H98.3501L104.255 45.4989L115.649 45.4522L108.935 33.0903C112.551 31.6533 114.585 29.7729 114.484 25.9504C114.566 22.5043 113.172 17.8356 103.961 18.0061C98.2328 18.0061 92.5049 18.0061 86.7772 18.0061V45.4445L86.7904 45.4329V45.4713H88.2634L98.3268 45.4869L98.3474 32.742ZM88.3821 42.1816H88.3818L88.378 19.452L106.475 19.4726C111.353 19.7053 113.389 23.4886 113.013 26.9641C112.741 29.4721 110.576 31.1651 107.126 32.5644C109.17 36.4527 111.223 40.1631 113.266 44.0515H105.669L99.2747 29.7269H101.649C105.567 29.2303 105.413 25.2683 101.549 24.9448C100.008 24.9448 98.4672 24.9448 96.9263 24.9448V44.0515H88.3875L88.3821 44.0563V44.0439V43.6472V42.1816ZM37.4474 42.2089H37.4472C37.4453 34.6908 37.4333 26.982 37.4333 19.4989C43.4898 19.4989 49.5466 19.4989 55.6032 19.4989C55.6032 21.3602 55.6032 23.1222 55.6032 24.9835C52.0741 24.9835 48.5451 24.9835 45.0161 24.9835C45.0161 26.5582 45.0161 28.2181 45.0161 29.7928C48.2589 29.7928 51.5019 29.7928 54.7448 29.7928C54.7448 31.3679 54.7448 32.8579 54.7448 34.433C51.5019 34.433 48.2591 34.433 45.0163 34.433C45.0163 37.632 45.0163 40.9097 45.0163 44.1088H37.4474V44.1039V43.7234V42.2089ZM36.0168 42.2089H36V45.4986H36.0168V45.5425L36.0574 45.4986H36.0602L36.0211 45.5361C39.3117 45.5361 43.1239 45.5361 46.4145 45.5361C46.4145 42.3148 46.4068 39.0676 46.4068 35.8462C49.6022 35.8462 52.9216 35.8502 56.117 35.8502C56.117 33.3446 56.117 30.8955 56.117 28.3899C52.9216 28.3899 49.5988 28.3899 46.4035 28.3899C46.4035 27.7457 46.4035 27.0165 46.4035 26.3723C49.8849 26.3723 53.3804 26.3723 56.8618 26.3723C56.8618 23.628 56.8618 20.8554 56.8618 18.1111C49.9229 18.1111 42.9557 18.1252 36.0168 18.1252V42.2089ZM72.4387 42.3866V26.7527L75.6319 20.8531C75.6319 27.7032 75.6319 34.5533 75.6319 41.4034C74.5673 41.9971 73.5029 42.2658 72.4387 42.3866ZM76.5162 40.961V26.7527L79.3165 21.2956C79.3165 26.5397 79.3165 31.7838 79.3165 37.0278C79.2205 38.8159 78.101 40.0209 76.5162 40.961Z" fill="#00AA4D"/>
<path fill-rule="evenodd" clip-rule="evenodd" d="M42.4614 57.5568V62.0245C42.4614 62.6941 42.5298 63.1382 42.6662 63.3568C42.8029 63.5755 43.0143 63.6846 43.3011 63.6846C45.2806 63.6846 46.2703 62.2433 46.2703 59.3604C46.2703 57.6524 46.0316 56.3818 45.5536 55.5484C45.0757 54.7149 44.2909 54.2981 43.1985 54.2981C43.0622 54.2981 42.9461 54.3187 42.8505 54.3596C42.7549 54.4008 42.6764 54.4859 42.6149 54.6159C42.5535 54.7457 42.5126 54.9437 42.4921 55.2102C42.4717 55.4767 42.4614 55.8352 42.4614 56.2862V57.5568ZM51.5331 59.0121C51.5331 61.3482 50.9019 63.145 49.6391 64.402C48.3762 65.6591 46.5434 66.2875 44.1407 66.2875C43.7039 66.2875 43.1952 66.2568 42.6149 66.1952C42.0349 66.1338 41.3761 66.103 40.6389 66.103C40.2567 66.103 39.8436 66.1338 39.4 66.1952C38.9562 66.2568 38.5706 66.2875 38.2429 66.2875C37.3966 66.2875 36.8163 66.1578 36.5024 65.898C36.1882 65.6385 36.0312 65.3243 36.0312 64.9554C36.0312 64.6138 36.0724 64.3883 36.1541 64.2791C36.2361 64.1697 36.335 64.0912 36.4511 64.0433C36.5672 63.9957 36.6935 63.9477 36.8299 63.8998C36.9665 63.8521 37.0928 63.7154 37.2089 63.49C37.3248 63.2646 37.4239 62.916 37.5057 62.4448C37.5877 61.9734 37.6286 61.3005 37.6286 60.4262V57.9872C37.6286 57.0446 37.5978 56.3101 37.5364 55.7842C37.475 55.2582 37.3966 54.8653 37.3011 54.6056C37.2055 54.346 37.0995 54.1786 36.9835 54.1035C36.8676 54.0284 36.7617 53.9636 36.6662 53.9089C36.5706 53.8542 36.492 53.7755 36.4306 53.6731C36.3691 53.5707 36.3384 53.3555 36.3384 53.0275C36.3384 52.481 36.5501 52.1258 36.9733 51.9617C37.3966 51.7978 38.0312 51.7158 38.8778 51.7158C39.1509 51.7158 39.4239 51.7466 39.697 51.808C39.9699 51.8695 40.3114 51.9003 40.7209 51.9003C40.9801 51.9003 41.4102 51.8695 42.011 51.808C42.6115 51.7466 43.4443 51.7158 44.5092 51.7158C46.7618 51.7158 48.4958 52.3546 49.7106 53.6322C50.9258 54.9096 51.5331 56.703 51.5331 59.0121ZM56.067 54.9335C54.6746 54.9335 53.9782 54.4349 53.9782 53.4373C53.9782 52.9593 54.2888 52.5221 54.9101 52.1258C55.5312 51.7296 56.3606 51.5314 57.3983 51.5314C58.1217 51.5314 58.6746 51.6543 59.0568 51.9003C59.4392 52.1462 59.6303 52.4879 59.6303 52.9252C59.6303 53.4579 59.3061 53.9258 58.6575 54.3289C58.009 54.7319 57.1455 54.9335 56.067 54.9335ZM59.794 56.6756V62.7829C59.794 63.0836 59.8247 63.292 59.8862 63.4079C59.9476 63.5241 60.0535 63.6505 60.2037 63.7872C60.3675 63.9376 60.5176 64.0808 60.6541 64.2176C60.7907 64.3542 60.859 64.5524 60.859 64.8118C60.859 65.7956 59.7257 66.2875 57.4597 66.2875C56.2854 66.2875 55.398 66.1543 54.7974 65.8879C54.1967 65.6213 53.8965 65.2491 53.8965 64.7709C53.8965 64.525 53.9475 64.3439 54.0501 64.2278C54.1524 64.1116 54.2992 63.9785 54.4902 63.8281C54.5858 63.7599 54.6746 63.6916 54.7565 63.6231C54.8383 63.5548 54.893 63.466 54.9203 63.3568C54.975 63.1656 55.0091 62.8511 55.0226 62.414C55.0364 61.9768 55.0432 61.4235 55.0432 60.7539V60.3236C55.0432 59.8043 55.0158 59.4081 54.9612 59.135C54.9068 58.8617 54.7565 58.6361 54.5109 58.4587C54.3333 58.3628 54.1729 58.257 54.0295 58.1408C53.8861 58.0247 53.8145 57.8233 53.8145 57.5365C53.8145 57.2358 53.9238 57 54.1422 56.8293C54.3606 56.6584 54.6881 56.4842 55.1252 56.3067C56.0124 55.9652 56.8316 55.7294 57.5825 55.5997C58.3333 55.4697 58.8589 55.4048 59.1594 55.4048C59.4459 55.4048 59.6235 55.4527 59.6917 55.5484C59.7599 55.644 59.794 55.8216 59.794 56.0812V56.6756ZM68.6489 59.9958C68.6624 59.8043 68.6728 59.6303 68.6796 59.4732C68.6863 59.3159 68.6897 59.1621 68.6897 59.0121C68.6897 57.7959 68.4031 57.1879 67.8296 57.1879C67.543 57.1879 67.3074 57.2939 67.1231 57.5057C66.9388 57.7173 66.7376 57.9598 66.5191 58.2331C66.2461 58.5746 65.973 58.831 65.7 59.0016C65.4269 59.1725 65.1332 59.258 64.8193 59.258C64.478 59.258 64.1914 59.1384 63.9592 58.8993C63.7273 58.6601 63.6112 58.3493 63.6112 57.9668C63.6112 57.6388 63.7239 57.3179 63.9491 57.0034C64.1743 56.6892 64.4986 56.4159 64.9219 56.1838C65.3449 55.9514 65.8536 55.7635 66.4474 55.62C67.0414 55.4767 67.7068 55.4048 68.444 55.4048C69.9866 55.4048 71.1573 55.7055 71.9559 56.3067C72.7546 56.9078 73.1539 57.7824 73.1539 58.93C73.1539 59.3672 73.1437 59.777 73.1232 60.1597C73.1029 60.5421 73.0925 60.8975 73.0925 61.2252V61.5326C73.0925 61.888 73.0958 62.1782 73.1029 62.4039C73.1096 62.6292 73.1336 62.8102 73.1745 62.9468C73.2154 63.0836 73.2768 63.1826 73.3588 63.244C73.4407 63.3056 73.5498 63.3568 73.6865 63.3977C74.0686 63.5071 74.2597 63.7393 74.2597 64.0947C74.2597 64.3268 74.178 64.5761 74.014 64.8426C73.8503 65.1091 73.625 65.3551 73.3382 65.5804C73.0516 65.8058 72.7104 65.9902 72.3143 66.1338C71.9184 66.2773 71.4816 66.349 71.0036 66.349C70.7444 66.349 70.5122 66.3182 70.3076 66.2568C70.1027 66.1952 69.9184 66.0824 69.7547 65.9185C69.5636 65.7409 69.4134 65.5838 69.304 65.4473C69.195 65.3105 69.0857 65.2423 68.9764 65.2423C68.8808 65.2423 68.7957 65.273 68.7204 65.3345C68.6454 65.396 68.5601 65.4609 68.4645 65.5291C68.1233 65.775 67.7922 65.9594 67.4714 66.0824C67.1505 66.2054 66.7512 66.2669 66.2735 66.2669C65.222 66.2669 64.3859 65.9767 63.7647 65.396C63.1437 64.8153 62.8331 64.074 62.8331 63.1724C62.8331 62.6941 62.9421 62.2535 63.1606 61.8505C63.3789 61.4474 63.6794 61.0955 64.0618 60.7951C64.444 60.4945 64.8945 60.2587 65.4133 60.088C65.9319 59.9171 66.4918 59.8317 67.0924 59.8317C67.2973 59.8317 67.5292 59.8454 67.7887 59.8729C68.048 59.8999 68.3349 59.9411 68.6489 59.9958ZM68.6283 62.0042C68.6283 61.7718 68.5976 61.6285 68.5361 61.5738C68.4747 61.5191 68.3349 61.4917 68.1162 61.4917C67.461 61.4917 67.1335 61.9086 67.1335 62.742C67.1335 63.5207 67.3928 63.9101 67.9116 63.9101C68.2529 63.9101 68.4578 63.7632 68.526 63.4694C68.5942 63.1758 68.6283 62.6873 68.6283 62.0042ZM76.0701 64.8733C76.0701 64.6683 76.1042 64.5113 76.1725 64.402C76.2407 64.2926 76.326 64.2072 76.4284 64.1457C76.5309 64.0843 76.6366 64.0298 76.7459 63.9818C76.855 63.9341 76.9576 63.876 77.0531 63.8076C77.2715 63.6437 77.4012 63.1417 77.4421 62.3012C77.4832 61.4609 77.5034 60.2688 77.5034 58.725V57.9054C77.5034 57.2494 77.4865 56.7098 77.4524 56.2862C77.4184 55.8625 77.2988 55.5552 77.0939 55.3639C76.9847 55.2545 76.8584 55.1693 76.7152 55.1078C76.5718 55.0464 76.4317 54.9778 76.2953 54.9028C76.1589 54.8278 76.0462 54.7356 75.9574 54.6261C75.8687 54.5167 75.8244 54.3528 75.8244 54.1342C75.8244 53.8474 75.8993 53.6082 76.0496 53.417C76.1998 53.2257 76.4455 53.0343 76.7868 52.8431C77.3603 52.5151 78.0496 52.2454 78.855 52.0336C79.6605 51.8218 80.4591 51.7158 81.251 51.7158C81.647 51.7158 81.9062 51.7773 82.0291 51.9003C82.152 52.0232 82.2134 52.2488 82.2134 52.5766C82.2134 52.7407 82.1999 53.4032 82.1725 54.5646C82.1452 55.7261 82.1316 57.3997 82.1316 59.5858C82.1316 60.788 82.1623 61.7309 82.2238 62.414C82.2852 63.0971 82.4047 63.5275 82.582 63.7051C82.7322 63.8555 82.9131 63.992 83.1248 64.1149C83.3364 64.2379 83.442 64.4771 83.442 64.8325C83.442 65.8162 82.1863 66.3081 79.6742 66.3081C77.2715 66.3081 76.0701 65.8298 76.0701 64.8733ZM85.1296 61.0614C85.1296 59.4081 85.7781 58.035 87.0752 56.9419C87.6485 56.45 88.3039 56.071 89.0412 55.8045C89.7783 55.5382 90.5427 55.4048 91.3346 55.4048C92.1537 55.4048 92.8978 55.5312 93.5668 55.7842C94.2355 56.0369 94.8124 56.3885 95.2971 56.8395C95.7818 57.2905 96.1572 57.8335 96.4235 58.4688C96.6896 59.1043 96.8228 59.8113 96.8228 60.59C96.8228 61.3552 96.6794 62.0896 96.3928 62.7931C96.1059 63.4967 95.6828 64.122 95.123 64.6683C93.9216 65.8024 92.4336 66.3696 90.6588 66.3696C89.1296 66.3696 87.8668 65.8912 86.8703 64.9348C86.3106 64.402 85.8806 63.8008 85.5802 63.1312C85.2798 62.462 85.1296 61.7718 85.1296 61.0614ZM89.7578 59.6063C89.7578 60.0026 89.7987 60.4569 89.8807 60.9691C89.9624 61.4816 90.0852 61.9836 90.2492 62.4755C90.5768 63.4045 90.9659 63.869 91.4166 63.869C91.6758 63.869 91.8841 63.7565 92.0411 63.5309C92.198 63.3056 92.2766 62.9811 92.2766 62.5575C92.2766 61.9015 92.2253 61.2937 92.1231 60.7336C92.0205 60.1732 91.8908 59.6884 91.7339 59.2783C91.5769 58.8685 91.3994 58.5509 91.2015 58.3253C91.0034 58.0999 90.8022 57.9872 90.5974 57.9872C90.0377 57.9872 89.7578 58.5269 89.7578 59.6063ZM100.64 61.6353C100.148 61.362 99.7662 60.9965 99.4931 60.5387C99.22 60.081 99.0833 59.5654 99.0833 58.9915C99.0833 58.4858 99.2028 58.0145 99.4417 57.5774C99.6807 57.1402 100.019 56.7645 100.455 56.4501C100.892 56.1359 101.411 55.8865 102.012 55.7021C102.612 55.5176 103.275 55.4254 103.998 55.4254C104.695 55.4254 105.305 55.5041 105.831 55.6612C106.357 55.8183 106.79 55.8967 107.131 55.8967C107.473 55.8967 107.773 55.8456 108.032 55.743C108.292 55.6406 108.52 55.5312 108.718 55.4153C108.916 55.299 109.08 55.1896 109.21 55.0873C109.34 54.9849 109.438 54.9335 109.507 54.9335C110.012 54.9335 110.264 55.2751 110.264 55.9582C110.264 56.3544 110.172 56.7098 109.988 57.024C109.804 57.3382 109.52 57.6661 109.138 58.0077C109.179 58.2537 109.2 58.4858 109.2 58.7046C109.2 59.2374 109.084 59.7225 108.851 60.1597C108.619 60.5968 108.295 60.9759 107.879 61.2971C107.462 61.6181 106.957 61.8674 106.363 62.0451C105.77 62.2227 105.104 62.3116 104.367 62.3116C104.148 62.3116 103.896 62.3012 103.609 62.2809C103.322 62.2603 103.015 62.2227 102.688 62.1681C102.51 62.2636 102.421 62.4208 102.421 62.6393C102.421 62.8444 102.551 63.0254 102.811 63.1826C103.07 63.3397 103.438 63.4183 103.916 63.4183C104.339 63.4183 104.828 63.3738 105.38 63.2849C105.933 63.1963 106.544 63.1518 107.213 63.1518C109.22 63.1518 110.224 64.0126 110.224 65.7341C110.224 66.3217 110.077 66.8682 109.783 67.3736C109.49 67.8793 109.066 68.3199 108.514 68.6955C107.961 69.0712 107.292 69.3685 106.507 69.587C105.722 69.8056 104.831 69.915 103.834 69.915C103.042 69.915 102.326 69.833 101.684 69.6691C101.043 69.5052 100.5 69.2864 100.056 69.0133C99.6125 68.7401 99.271 68.4293 99.0323 68.0807C98.7933 67.7324 98.6738 67.3668 98.6738 66.9844C98.6738 66.2466 99.1039 65.7477 99.964 65.4882C99.1447 65.0511 98.7353 64.4497 98.7353 63.6846C98.7353 62.7829 99.3702 62.0998 100.64 61.6353ZM103.118 58.5405C103.118 59.2647 103.223 59.8215 103.435 60.211C103.647 60.6002 103.937 60.7951 104.305 60.7951C104.974 60.7951 105.309 60.2827 105.309 59.258C105.309 57.7686 104.913 57.024 104.121 57.024C103.452 57.024 103.118 57.5294 103.118 58.5405ZM101.684 66.3284C101.643 66.424 101.623 66.5267 101.623 66.6358C101.623 66.9638 101.845 67.2746 102.288 67.5685C102.732 67.8621 103.295 68.0091 103.978 68.0091C104.578 68.0091 105.043 67.9202 105.37 67.7425C105.698 67.565 105.862 67.3327 105.862 67.0459C105.862 66.677 105.664 66.4925 105.268 66.4925C105.063 66.4925 104.821 66.5095 104.541 66.5436C104.261 66.5777 103.943 66.5949 103.589 66.5949C102.865 66.5949 102.23 66.506 101.684 66.3284ZM113.098 62.3731V59.6472C113.098 59.333 113.071 59.0939 113.017 58.93C112.962 58.7661 112.825 58.6087 112.607 58.4587C112.443 58.3628 112.29 58.257 112.146 58.1408C112.003 58.0247 111.931 57.8233 111.931 57.5365C111.931 57.2358 112.041 57 112.259 56.8293C112.477 56.6584 112.805 56.4842 113.242 56.3067C114.129 55.9652 114.938 55.7294 115.669 55.5997C116.399 55.4697 116.907 55.4048 117.194 55.4048C117.454 55.4048 117.631 55.4459 117.727 55.5278C117.822 55.6098 117.87 55.7875 117.87 56.0608C117.87 56.4159 117.829 57.0341 117.747 57.9155C117.665 58.7968 117.624 59.9343 117.624 61.3278C117.624 62.0519 117.703 62.5916 117.86 62.9468C118.017 63.3021 118.314 63.4798 118.751 63.4798C119.283 63.4798 119.635 63.2816 119.805 62.8853C119.976 62.4893 120.061 61.8471 120.061 60.9589V59.6472C120.061 59.333 120.041 59.0939 120 58.93C119.959 58.7661 119.829 58.6087 119.611 58.4587C119.433 58.3628 119.276 58.257 119.14 58.1408C119.003 58.0247 118.935 57.8233 118.935 57.5365C118.935 57.2358 119.041 57 119.252 56.8293C119.464 56.6584 119.781 56.4842 120.204 56.3067C121.037 55.9787 121.819 55.7464 122.549 55.6098C123.279 55.4733 123.788 55.4048 124.075 55.4048C124.389 55.4048 124.573 55.4767 124.628 55.62C124.682 55.7635 124.71 56.0812 124.71 56.573C124.71 57.625 124.686 58.6499 124.638 59.6472C124.59 60.6448 124.566 61.6147 124.566 62.5575C124.566 62.7352 124.57 62.8785 124.577 62.9879C124.583 63.0971 124.604 63.1826 124.638 63.244C124.672 63.3056 124.72 63.3602 124.781 63.4079C124.843 63.4558 124.928 63.5139 125.037 63.5822C125.201 63.6778 125.338 63.7805 125.447 63.8896C125.556 63.999 125.611 64.1629 125.611 64.3815C125.611 64.846 125.174 65.2696 124.3 65.6521C123.426 66.0348 122.239 66.226 120.737 66.226C120.505 66.226 120.341 66.2124 120.245 66.1851C120.15 66.1578 120.095 66.0483 120.081 65.8571C120.054 65.5838 120.037 65.3516 120.03 65.1602C120.024 64.969 119.911 64.8733 119.693 64.8733C119.583 64.8733 119.478 64.9176 119.375 65.0065C119.273 65.0953 119.153 65.1943 119.017 65.3037C118.621 65.6044 118.228 65.8331 117.839 65.9902C117.45 66.1473 116.983 66.226 116.437 66.226C115.276 66.226 114.43 65.905 113.897 65.2628C113.365 64.6206 113.098 63.6575 113.098 62.3731ZM132.725 59.3195H132.909C133.455 59.3195 133.8 59.2887 133.943 59.2273C134.087 59.1657 134.158 58.9641 134.158 58.6226C134.158 58.2263 134.046 57.9155 133.82 57.6901C133.595 57.4646 133.326 57.352 133.012 57.352C132.67 57.352 132.37 57.4749 132.111 57.7209C131.851 57.9668 131.722 58.2878 131.722 58.6841C131.722 58.9435 131.773 59.1144 131.875 59.1965C131.977 59.2783 132.172 59.3195 132.459 59.3195H132.725ZM136.841 61.2867H132.397C132.179 61.2867 132.022 61.3039 131.926 61.338C131.831 61.3722 131.783 61.4508 131.783 61.5738C131.783 62.0792 131.998 62.5335 132.428 62.9366C132.858 63.3397 133.469 63.5413 134.261 63.5413C134.575 63.5413 134.858 63.4967 135.111 63.4079C135.363 63.3193 135.592 63.2167 135.797 63.1005C136.001 62.9845 136.186 62.8819 136.349 62.7931C136.513 62.7045 136.657 62.66 136.779 62.66C137.012 62.66 137.209 62.7555 137.373 62.9468C137.537 63.1382 137.619 63.391 137.619 63.7051C137.619 63.9511 137.517 64.221 137.312 64.5146C137.107 64.8085 136.8 65.092 136.391 65.3652C135.353 66.0483 134.192 66.3899 132.909 66.3899C132.09 66.3899 131.343 66.25 130.667 65.9699C129.991 65.6899 129.408 65.3071 128.916 64.8221C128.425 64.3371 128.042 63.7666 127.769 63.1109C127.496 62.4549 127.36 61.7444 127.36 60.9793C127.36 59.8454 127.701 58.7864 128.383 57.8027C128.916 57.0513 129.588 56.4672 130.401 56.0504C131.213 55.6338 132.083 55.4254 133.012 55.4254C133.749 55.4254 134.425 55.5382 135.039 55.7635C135.653 55.989 136.176 56.2963 136.606 56.6858C137.036 57.0753 137.37 57.5365 137.609 58.0692C137.848 58.602 137.967 59.1692 137.967 59.7702C137.967 60.3304 137.879 60.7232 137.701 60.9488C137.524 61.1741 137.237 61.2867 136.841 61.2867Z" fill="#00AA4D"/>
<path fill-rule="evenodd" clip-rule="evenodd" d="M40.2127 72.7332L39.7987 73.5752C39.569 73.3453 39.2044 73.2303 38.7062 73.2303C38.2054 73.2303 37.8087 73.4375 37.5135 73.8532C37.2184 74.2675 37.0715 74.7687 37.0715 75.3555C37.0715 75.9436 37.209 76.4221 37.4828 76.7949C37.7566 77.1665 38.1386 77.3523 38.6287 77.3523C39.1683 77.3523 39.589 77.1598 39.8922 76.7749L40.373 77.6009C39.955 78.0393 39.346 78.2585 38.5459 78.2585C37.7392 78.2585 37.1155 77.9938 36.6748 77.4659C36.2341 76.938 36.0137 76.2203 36.0137 75.3154C36.0137 74.4747 36.2568 73.7663 36.7429 73.1889C37.2304 72.6129 37.8634 72.3242 38.6434 72.3242C39.2899 72.3242 39.8134 72.4605 40.2127 72.7332ZM45.6366 78.1623H44.6188V74.3049L41.6218 78.2505H41.189V72.4284H42.2068V76.2858L45.2038 72.3402H45.6366V78.1623ZM50.7425 72.7332L50.3284 73.5752C50.0987 73.3453 49.7341 73.2303 49.2359 73.2303C48.7351 73.2303 48.3384 73.4375 48.0432 73.8532C47.7481 74.2675 47.6012 74.7687 47.6012 75.3555C47.6012 75.9436 47.7388 76.4221 48.0125 76.7949C48.2863 77.1665 48.6683 77.3523 49.1585 77.3523C49.6981 77.3523 50.1188 77.1598 50.4219 76.7749L50.9028 77.6009C50.4847 78.0393 49.8757 78.2585 49.0757 78.2585C48.269 78.2585 47.6453 77.9938 47.2045 77.4659C46.7638 76.938 46.5434 76.2203 46.5434 75.3154C46.5434 74.4747 46.7865 73.7663 47.2726 73.1889C47.7601 72.6129 48.3932 72.3242 49.1732 72.3242C49.8196 72.3242 50.3431 72.4605 50.7425 72.7332ZM54.203 73.3266V78.1623H53.1853V73.3266H51.3662V72.4284H56.1102V73.3266H54.203ZM57.9439 73.3266V74.6738H59.8431V75.5399H57.9439V77.2561H60.5403V78.1623H56.9262V72.4284H60.5884V73.3266H57.9439ZM67.0005 78.1623H66.0149L65.4219 75.0748L64.2679 78.2425H63.9073L62.7493 75.0748L62.1283 78.1623H61.1507L62.3046 72.4284H62.8415L64.0836 76.2938L65.2936 72.4284H65.8306L67.0005 78.1623ZM71.0781 78.1623V75.58H68.7942V78.1623H67.7765V72.4284H68.7942V74.6738H71.0781V72.4284H72.0798V78.1623H71.0781ZM74.2514 74.5883C74.5693 74.5549 74.811 74.5375 74.9753 74.5375C75.6377 74.5375 76.1519 74.6952 76.5166 75.0107C76.8811 75.3274 77.0641 75.7778 77.0641 76.366C77.0641 76.9112 76.8785 77.347 76.5085 77.6731C76.1372 77.9992 75.6204 78.1623 74.9579 78.1623H73.2577V72.4284H74.2514V74.5883ZM74.2514 77.3122C74.5385 77.3283 74.7135 77.3363 74.7749 77.3363C75.2678 77.3363 75.603 77.2387 75.7806 77.0462C75.9583 76.8524 76.0464 76.6078 76.0464 76.3098C76.0464 76.0184 75.9463 75.7859 75.7459 75.6134C75.5442 75.441 75.2344 75.3555 74.815 75.3555C74.6841 75.3555 74.4971 75.3688 74.2514 75.3942V77.3122ZM78.8031 78.1623H77.8014V72.4284H78.8031V78.1623ZM84.4272 78.1623H83.4095V74.3049L80.4124 78.2505H79.9797V72.4284H80.9974V76.2858L83.9945 72.3402H84.4272V78.1623ZM83.7781 70.7524C83.6993 71.1466 83.5323 71.4461 83.2746 71.6492C83.0182 71.8537 82.6963 71.9553 82.3103 71.9553C81.9283 71.9553 81.6118 71.8537 81.358 71.6492C81.1056 71.4461 80.94 71.1466 80.8612 70.7524L81.6786 70.584C81.7387 71.0544 81.9564 71.2897 82.3303 71.2897C82.7216 71.2897 82.938 71.0571 82.9768 70.592L83.7781 70.7524ZM92.605 78.1623H91.5872V74.3049L88.5902 78.2505H88.1575V72.4284H89.1752V76.2858L92.1722 72.3402H92.605V78.1623ZM97.0859 78.1623V75.58H94.802V78.1623H93.7843V72.4284H94.802V74.6738H97.0859V72.4284H98.0875V78.1623H97.0859ZM101.75 73.3266V78.1623H100.732V73.3266H98.9129V72.4284H103.657V73.3266H101.75ZM105.491 73.3266V74.6738H107.39V75.5399H105.491V77.2561H108.087V78.1623H104.473V72.4284H108.135V73.3266H105.491ZM112.656 73.3266H110.116V78.1623H109.09V72.4284H112.656V73.3266ZM114.514 76.0492V78.1623H113.496V72.4311C114.245 72.403 114.643 72.3883 114.69 72.3883C115.584 72.3883 116.242 72.526 116.667 72.8027C117.09 73.0793 117.303 73.5137 117.303 74.1058C117.303 75.4196 116.527 76.0772 114.976 76.0772C114.858 76.0772 114.705 76.0679 114.514 76.0492ZM114.514 73.3105V75.147C114.689 75.163 114.825 75.1711 114.921 75.1711C115.386 75.1711 115.725 75.0949 115.94 74.9425C116.154 74.7888 116.261 74.5362 116.261 74.1833C116.261 73.5912 115.781 73.2945 114.824 73.2945C114.679 73.2945 114.577 73.2999 114.514 73.3105ZM121.58 78.1623L121.154 76.9995H119.191L118.8 78.1623H117.662L119.954 72.3482H120.394L122.702 78.1623H121.58ZM120.17 74.1045L119.479 76.2216H120.857L120.17 74.1045ZM125.805 73.3266V78.1623H124.787V73.3266H122.968V72.4284H127.712V73.3266H125.805ZM128.256 75.2446C128.256 74.4306 128.479 73.7396 128.926 73.1742C129.374 72.6075 129.973 72.3242 130.725 72.3242C131.541 72.3242 132.169 72.5781 132.607 73.086C133.045 73.5926 133.264 74.313 133.264 75.2446C133.264 76.1788 133.036 76.9139 132.579 77.4526C132.123 77.9898 131.477 78.2585 130.642 78.2585C129.865 78.2585 129.273 77.9872 128.866 77.4459C128.459 76.9046 128.256 76.1708 128.256 75.2446ZM129.313 75.2459C129.313 75.9436 129.428 76.4688 129.658 76.8217C129.886 77.1759 130.215 77.3523 130.642 77.3523C131.151 77.3523 131.538 77.1745 131.806 76.8203C132.073 76.4648 132.206 75.9409 132.206 75.2459C132.206 73.9027 131.712 73.2303 130.725 73.2303C130.266 73.2303 129.916 73.4121 129.675 73.7743C129.434 74.1379 129.313 74.6284 129.313 75.2459ZM135.181 76.0492V78.1623H134.163V72.4311C134.912 72.403 135.31 72.3883 135.357 72.3883C136.25 72.3883 136.909 72.526 137.334 72.8027C137.757 73.0793 137.969 73.5137 137.969 74.1058C137.969 75.4196 137.193 76.0772 135.643 76.0772C135.525 76.0772 135.372 76.0679 135.181 76.0492ZM135.181 73.3105V75.147C135.356 75.163 135.492 75.1711 135.588 75.1711C136.053 75.1711 136.392 75.0949 136.607 74.9425C136.821 74.7888 136.928 74.5362 136.928 74.1833C136.928 73.5912 136.448 73.2945 135.49 73.2945C135.346 73.2945 135.243 73.2999 135.181 73.3105Z" fill="#00AA4D"/>
</svg>
