<svg width="3840" height="1440" viewBox="0 0 3840 1440" fill="none" xmlns="http://www.w3.org/2000/svg">
<path fill-rule="evenodd" clip-rule="evenodd" d="M363.358 905.502L361.22 833.131L362.202 833.651L364.61 834.749L369.213 833.266L370.994 831.137L365.293 825.696L364.321 817.222L367.874 817.308L369.348 818.454L378.005 820.698L381.414 818.483L381.905 818.002L383.302 816.384L383.793 815.845L384.833 814.901L386.634 813.36L370.099 809.055L373.229 806.118L376.416 803.98L377.148 796.767L382.233 794.003L380.74 790.276L380.211 787.83L375.376 778.528L376.002 774.82L383.514 771.719L380.461 767.511L384.698 769.254L383.234 762.744L379.507 760.49L370.619 758.487L365.004 753.951L356.568 756.571L333.311 764.044L339.07 767.135L339.908 783.179L341.064 796.238L335.94 808.998L337.886 809.999L337.144 818.011L340.428 824.204L339.995 831.638L342.999 837.619L349.538 835.51L351.002 830.232L357.984 844.995L359.592 905.579L318.404 905.001L324.721 901.005L322.063 899.117L324.644 891.201L324.875 890.614L325.058 881.792L320.58 882.438L320.802 878.258L319.165 878.768L318.23 878.325L314.138 872.538L310.391 871.69L311.788 870.747L312.712 870.246L313.223 870.005L310.507 867.453L310.208 858.94L307.714 860.567L306.366 861.742L300 853.21L296.004 856.523L291.266 852.738L290.524 852.362L289.542 852.016L287.837 808.998L301.002 803.999L300 771.998L270.002 781.003L270.089 814.381L281.51 810.5L282.002 856.542L279.055 854.914L271.004 855.435L267.662 862.59L261.441 864.41L261.085 864.824L260.786 865.209L259.034 865.883L256.404 885.5L250.241 893.32L248.055 899.002L249.75 905.569L173.999 905.386L171.167 902.208L172.256 899.136L175.703 894.004L167.161 888.9L155.788 889.824L152.003 886.059L149.201 888.148L142.961 894.899L140.688 900.639L142.431 904.732L124.182 904.452L118.943 898.222L120.002 896.276L120.994 894.967L116.718 894.283L117.999 889.092L112.182 890.787L111.672 890.893L111.219 890.922L107.204 889.005L108.455 886.28L108.619 879.934L102.61 879.992L105.268 874.887L101.657 873.414L97.5059 870.881L96.9377 870.669L93.9331 870.246L97.843 864.217L92.6812 864.757L94.0005 859.094L86.4697 848.472L88.4824 843.792L85.0059 839.073L81.982 850.956L81.5775 851.611L80.576 852.998L82.1457 856.619L82.2228 857.158L82.1939 858.064L84.6881 861.954L78.1203 860.076L79.3722 865.315L77.6484 867.559L75.5587 868.917L74.8075 869.369L79.1604 874.965L66.8433 877.902L72.5155 882.601L76.5891 887.002H72.3229L76.5313 892.52L77.9084 894.004L75.9631 895.304L72.2459 896.286L53.9966 895.14L50.6164 899.705L48.3533 902.546L33.3013 905.579L33.6961 901.891L28.1876 896.998L33.3205 892.309L33.5709 881.417L33.3013 880.714L31.0286 866.413L33.3494 863.004L29.5551 860.047L24.7111 856.715L26.0786 854.211L27.4654 851.573L22.9007 851.216L21.9665 842.915L19.5879 840.7L14.8979 843.012L3.99654 842.366L0 845.246V1440H1076.04L1086.3 1401.29L1116.61 1286.61L1206.05 941.037L1201.33 931.436L1191.85 924.464L1167.8 915.758L1140.5 910.452L1097.5 905.531L1094.68 814.679L1107.3 816.085L1107 783.006L1072 777.006L1073 811.001L1088.01 813.148L1088.85 905.627L1040.04 905.598H652.312L651.6 890.999L661.798 881.638L673.633 880.666L672.025 874.907L680.586 871.69L676.898 868.291L680.625 864.997L671.756 857.361L677.418 849.262L668.578 836.386L671.746 832.072L643.067 819.003L652.495 799.001L643.587 789.323L638.002 789.776V787.253L632.06 786.001L635.845 783.006L634.795 781.07L638.82 776.053L627.341 770.419L634.439 768.002L612.135 772.865L607.147 770.804L597.131 794.735L596.004 789.708L587.568 792.029L587.684 787.272L582.002 782.322L576.195 783.93L581.164 779.105L570.128 773.212L573.094 768.628L567.441 767L563.512 741.451L558.995 741.143L557.195 749.839L552.38 764.313L547.381 764.362L547.295 774.001L556.492 777.998L541.18 780.232L549.384 795.005L539.802 801.005L539.793 807.206L529.787 809.999L543.134 814.005L532.686 817.645L533.764 822.701L527.062 824.81L530.654 827.218L528.034 829.78L537 830.213L536.74 830.935L539.08 834.951L522.94 839.236L535.604 844.398L533.726 848.867L528.208 849.069L530.875 851.775L524.115 854.52L528.968 857.004L522.824 859.999L536.836 859.807L538.329 866.885L525.049 874.868L532.676 873.51L529.864 879.144L534.275 882.004L527.004 887.128L528.506 890.286L523.537 891.008L534.005 893.83L535.007 897.085L540.428 895.843L539.918 901.871L534.487 902.382L532.214 905.406L463.541 903.73L462.578 886.376L466.391 882.312L470.003 891.018L474.346 888.235L471.235 883.998L478.997 880.608L484.843 892.135L493.722 885.731L490.111 878.72L495.003 872.037L495.985 867.077L488.512 856.003L494.627 851.005L489.928 851.419L490.891 848.53L478.275 834.999L481.742 832.216L475.174 825.003L478.939 822.172L450.001 811.145L447.015 814.111L442.248 813.206L426.416 837.002L434.862 892.337L441.593 896.507L441.16 892.251L445.985 892.607L447.998 888.302L450.463 890.171L460.536 886.376L460.045 905.146L363.358 905.502Z" fill="#FF0000" fill-opacity="0.5"/>
<path fill-rule="evenodd" clip-rule="evenodd" d="M1209.29 1440H2528.07L2515.83 1384.16L2453.21 1366.89L2445.56 1354.73L2430.08 1231.14L2422.08 1159.86L2449.8 1150.21L2472.23 1147.04L2465.59 1110.39L2438.56 967.434L2427.76 936.223L2416.25 926.66L2399.52 919.851L2384.04 917.078L2370.28 910.048L2363 916.972L2297.23 917.001L2295.41 907.602L2292.02 901.852L2294.86 898L2284 882.139L2280.5 885.529L2275.82 894.659L2268.59 915.421L2260.11 915.209L2255.24 911.579L2252.63 899.377L2243.35 883.459L2238.62 893.628L2232.39 901.997L2234.51 909.354L2233.17 914.988L2195.28 915.017L2191.53 880.396L1822.98 880.098L1814.01 858.372L1806.31 879.347L1759 879.809L1747.94 851.024L1739 877.016L1701.35 875.572L1699.01 867.27L1694.07 870.939L1690.8 847.875L1683.81 871.893L1678 880.184L1553.44 880.444L1548 913.698L1453.9 915.258L1443 882.101L1434.58 916.095L1387.46 914.998L1391.89 906.725L1383.04 905.801L1385.45 899.358L1374 874.984L1358.76 918.31L1349.46 918.57L1336.14 924.329L1326.16 933.17L1323.4 969.004L1323.43 1008.01L1326.23 1023.67L1325.45 1031.3L1317.32 1031.75L1317.68 1023.62L1319.4 1014.03L1319.19 954.568L1318.78 955.406L1313.35 978.509L1287.08 1097.05L1276.89 1144.45L1338.57 1163.71L1296.45 1372L1276.7 1376.76L1219.27 1388.35L1209.29 1440Z" fill="#FF0000" fill-opacity="0.5"/>
<path fill-rule="evenodd" clip-rule="evenodd" d="M1312.17 463.003L1308 470.168L1268.35 475.215L1236.08 489.101L1211.53 556.513L1169.3 696.7L1185 697.047C1184.95 729.308 1187.12 762.946 1187.59 795.593L1179.58 795.352L1179 717H1163L1151.43 753.354L1139.7 791.644L1138.77 803.239L1142.84 813.977L1154.25 823.761L1170.56 828.085L1209.74 831.696L1294 832.679L1392.99 832.399L2627.01 827.68L2656.93 826.419L2668.21 821.642L2673.84 813.851L2675.79 794.639L2668.98 769.1L2666.99 764.506L2666.44 797.066L2668.49 805.483L2663.57 801.794L2664.38 760.982L2653.1 717H2625L2626.03 735.972L2626.59 797.297L2617.06 797.307L2618.99 729L2620 696.998L2646.85 696.97L2637.21 663.765L2606.95 562.031L2586.49 494.523L2572 483.005L2549 475.003L2521.41 471.632L2503.83 411.135L1707.34 411.01L1703.43 467.491L1389.48 467.414L1385.42 303.999L1366.54 305.001L1369.45 467.462L1332.47 468.002L1328.57 303.999H1310L1309.67 324.001L1312.17 463.003Z" fill="#FF0000" fill-opacity="0.5"/>
<path fill-rule="evenodd" clip-rule="evenodd" d="M3840 435.75L3837.01 436.145L3831.01 411.617L3825.99 425.003L3821.8 427.998L3823.99 431.975L3814.66 436.337L3813.42 432.004L3816.33 425.003L3812.15 415.777L3808.13 413.976L3812.15 401.775L3807.49 399.55L3802.14 390.998L3803.16 384.931L3794.01 389.554L3788.44 381.455L3785 366.644L3776.25 385.432L3779.08 389.949L3771.56 392.462L3774.58 399.569L3780.54 403.537L3770.75 396.873L3769.24 400.879L3752.44 407.437L3744.43 415.478L3748.45 427.333L3754.56 427.535L3749.42 430.925L3744.44 423.654L3738.59 423.414L3740.99 419.783L3736.18 411.029L3743.3 406.041L3737 398.337L3724.4 394.571L3731.72 392.915L3727.82 389.901L3734.95 387.888L3728.76 386L3733.96 380.299L3725.23 374.02L3720.29 375.869L3721.69 369.369L3716.63 367.193L3724.16 359.768L3714.48 363.523L3721.37 356.272L3715.7 356.33L3705.96 325.08L3701.05 328.2L3701.32 343.3L3696 344.716L3697.52 350.06L3691.17 355.001L3698.67 360.134L3693.78 364.785L3685.94 363.803L3692.8 374.001L3699.32 378.999L3677.37 381.58L3681.81 377.362L3677.91 372.99L3673.01 357.899L3669.38 359.007L3674 355.001L3668.24 345.496L3668.16 350.359L3664.51 350.003L3665.88 364.005L3661.27 367.096L3663.47 372.027L3656.81 377.006L3659.64 381.002L3647.72 382.659L3652.09 387.869L3638.78 386.761L3640.74 396.699L3635.65 394.764L3639.53 410.567L3626 413.533L3605 410.403L3594.01 414.891L3593.9 417.857L3587 414.785L3584.49 418.666L3586.71 402.121L3575.16 394.918L3566.18 389.005L3576.63 375.638L3573.36 362.002L3578 343.916L3578.42 338.514L3565 337.233L3548.57 343.57L3551 369.667L3549.38 374.406L3542.36 378.306L3543.42 382.004L3527.07 405.001L3530.39 410.095L3515.97 406.33L3512.47 408.593L3511.81 408.14L3507.43 406.002L3506.31 395.929L3500.22 395.005L3489 396.863L3486.32 390.594L3483.76 400.07L3475.39 386L3476.34 377.564L3468.71 393.001L3470.56 396.449L3458.88 396.709L3463.07 393.984L3459.15 392.838L3460.02 388.042L3437.5 381.802L3430.22 363.822L3433.76 353.248L3429 351.428L3425.71 356.002L3426.93 369.003L3422.59 371.391L3424.88 375.985L3418.2 380.829L3422.05 383.93L3419.01 388.841L3409.85 387.955L3410.5 388.35L3416.63 397.085L3421.94 400.128L3404.91 401.101L3413.01 395.631L3414.68 392.327L3401.49 394.003L3407.21 389.063L3402.14 383.997L3399.64 371.709L3397.05 367.905L3393.38 369.619L3397.03 355.858L3390.19 354.221L3392.76 359.007L3388.81 375.012L3383.79 377.998L3386.62 383.005L3382.01 388.292L3378.49 387.426L3382.95 392L3380 397.412L3370.72 395.621L3380.56 401.264L3376.82 406.869L3385.92 412.002L3370 414.149L3367.19 419.61L3362.59 417.366L3358.77 430.742L3341.58 436.415L3331.61 419.542L3316.53 419.292L3315.62 414.39L3304.26 408.737L3291.11 408.111L3284.49 390.998L3286 381.137L3280.98 396.362L3276.94 397.99L3279.17 403.229L3265.85 412.57L3269.03 417L3269.17 421.854L3254.03 426.89L3258.56 430.001L3256 438.889L3242.55 438.389L3250.38 424.28L3254.95 423.009L3247.44 416.567L3243.26 408.005L3243.94 402.092L3236 411.8L3232.86 405.049L3232.89 412.811L3228.91 414.005L3234.71 420.005L3234.87 425.898L3228 427.574L3218.64 417.626L3216.54 424.396L3209.41 423.568L3209 398.963L3197.15 401.9L3188.42 389.997L3190.92 383.256L3171.05 403.258L3171.9 405.829L3153.08 407.004L3156.2 403.874L3151.48 400.475L3159.97 400.176L3153.89 398.741L3160.15 390.998L3152.16 384.257L3147.16 386.212L3145.06 383.814L3147.77 379.278L3142.21 377.699L3149.64 369.571L3138.29 371.622L3141.9 368.001L3141.43 367.828L3134.27 358.169L3138.95 356.792L3128 331.628L3124.81 336L3124.64 351.004L3119.31 353.71L3124.19 359.999L3117.7 367.01L3120.86 370.005L3117 374.54L3105.85 371.931L3117.49 377.516L3105 377.41L3101.01 383.285L3097 379.394L3090.14 381.002L3093.43 403.999L3089.13 405.935L3094.54 411L3083.52 431.513L3089.39 436L3080.48 433.005L3084.98 427.006L3076.76 402.603L3070 406.609L3057.01 409.797L3043.35 406.705L3040.24 399.001L3049.63 395.005L3042.91 387.002L3045.38 377.516L3034.04 374.049L3032.01 379.057L3018.74 377.651L3018.78 384.999L3025.61 389.005L3026.09 401.004L3023.91 405.03L3010.09 396.863L3008.5 390.488L3012.43 387.416L3004.45 381.503L3001.3 388.167L2987.78 384.999L2987.23 405.309L2971.22 412.984L2976.59 409.633L2974.63 401.649L2971.62 394.35L2966.03 393.194L2949.47 402.401L2947.34 411.549L2942.99 406.869L2949.04 423L2941 426.736L2933.52 421.517L2940.38 421.006L2932.94 416.827L2936.57 414.005L2934.1 409.999L2937.75 408.545L2937.28 407.745L2935.93 397.99L2932.05 396.006L2928.73 385.307L2925.03 404.808L2916.49 404.596L2892.28 405.665L2886.31 398.654L2880 401.804L2874.35 397.653L2881.26 389.852L2871.58 391.923L2874.28 388.148L2868.58 371.651L2864.57 356.522L2860.65 355.646L2858.72 375.003L2854.79 376.457L2856.86 382.004L2850.36 386.694L2852 394.812L2841.65 392.867L2842 410.259L2837.39 413.1L2832.37 419.003L2836.85 425.735L2827.52 402.998L2807.83 373.924L2801.55 372.73L2795.94 379.23L2800.55 380.501L2785.2 379.885L2786.93 375.157L2782.07 371.998L2781 357.996L2775.25 363.003L2777 369.995L2771.06 373.886L2775.84 377.006L2769.44 375.426L2760.98 390.112L2762.64 394.022L2768.53 394.003L2762.39 397.046L2763.5 400.571L2767.65 399.357L2766.92 408.785L2780.16 412.657L2783.16 408.737L2792.06 417L2790.81 421.006L2766.67 429.558L2744 420.207L2761.88 414.005L2761.43 413.475L2756.19 406.002L2743 390.709L2736.24 406.339L2730.42 402.381L2731.64 409.643L2710.55 413.003L2714.56 416.355L2710.7 420.005L2716.03 432.36L2707.01 428.73L2701.51 444.87L2689.94 449.078L2690.12 453.99L2684.7 449.396L2682.01 457.476L2679.64 455.492L2675.77 463.774L2674.38 467.703L2677.38 477.006L2678.88 482.717L2670.41 489.429L2670.83 493.936L2670.5 502.998L2674.3 504.654L2677.38 507.668L2678.95 509.123L2682.81 513.215L2685.68 514.111L2687.13 514.005L2739.03 667.231L2755.6 667.405L2754.69 698.915L2830.03 699.002L2829.22 797.056L2821.43 796.893L2824.91 716.114L2799.22 716.037L2798.74 727.806L2788.12 728.056L2788.36 716.028L2755.91 716.037L2778 782.004L2780.69 784.479L2787.75 790.999H2788.6L2789.22 795.525L2789.18 795.708L2789.67 796.219L2788.63 799.608L2790.58 811.425L2793.6 832.284L2839.01 831.003L2839.16 816.567L2840.16 814.728L2845.09 814.15L2861 807.679L2865 817.001L2874 830.001L2937.8 832.775L2939.31 822.162L3040.21 821.902L3044 832.457L3091 832.447L3092.68 827.681L3096.99 828.971L3096.8 823.097L3098.22 823.53V823.511L3098.37 823.578L3102.42 824.801L3102.83 832.38L3157.1 832.457L3162 805.001L3325.66 803.383L3328.39 831.85L3349.27 832.245L3346.23 829.645L3340.98 826.217L3342.3 826.274L3341.15 825.292L3347.47 826.467L3353.59 826.689L3357.52 822.278L3353.1 817.03L3356.73 816.586L3357.36 813.524L3357.08 810.953L3357.9 810.962L3359.2 804.703L3358.95 804.231L3361.44 793.984L3361.45 793.975L3361.85 792.001L3367.41 780.435L3368.71 782.313C3374.22 788.909 3366.91 780.165 3373.45 787.994L3374.44 787.532L3376.66 791.837L3374.02 796.825L3373.99 796.999H3378.04H3378.32L3378.18 798.231L3379.33 807.833L3381.76 806.224L3383.63 814.622L3380.65 818.435L3382.84 818.763L3387.83 818.147L3386.97 819.379L3387.3 819.427L3383.1 825.697L3389 820.93L3391.62 823.732L3393.97 823L3389.39 828.191L3387.53 831.195C3497.75 832.207 3608.04 833.218 3718.29 834.229L3709.2 825.986V825.976L3709.1 825.909L3709.11 825.889L3708.12 825.003L3709.67 825.119L3711.92 822.105L3718.91 825.822L3719.04 825.831L3723 820.997L3721.94 819.206L3718.39 815.585L3720.8 815.749L3723.05 814.997L3720.61 809.624L3723.59 808.709L3724.17 802.488L3730.6 800.427L3730.81 800.003L3730.87 797.817L3729.04 794.004L3731.13 788.938L3731.28 783.603L3733.49 783.218L3734.67 780.348L3734.62 777.68L3735.61 778.075L3736.04 777.035L3736.24 778.335L3740.37 780.001L3737.55 786.935L3737.75 788.216L3740.08 789.006L3739.05 796.69L3739.09 796.999L3739.67 797.162L3742.88 797.913L3741.43 806.754L3746.75 810.298L3747.22 817.973L3749.72 817.607L3752.18 816.635L3749.49 820.785L3747.4 825.119L3747.91 825.003L3752.94 820.939L3757.73 822.933L3761.09 822.23L3750.55 830.454L3750.65 830.473L3786.26 830.001L3782.03 825.003L3790.05 820.496L3790.55 820.073L3788.05 815.999H3788.06L3787.35 814.997L3790.86 813.726L3791.91 812.869L3791.94 810.423L3790.26 807.524L3786.44 806.446L3794.08 795.063L3795.34 791.432L3801.66 795.005L3801.05 801.929L3804.2 808.006L3803.77 809.402L3801.44 819.004L3802.46 819.659L3806.69 821.315L3806.16 826.535L3811.88 825.697L3808.53 831.6L3808.2 832.447L3818.84 829.886L3814.27 834.691L3838.01 833.016L3836.86 834.788L3840 834.528V435.75Z" fill="#FF0000" fill-opacity="0.5"/>
<path fill-rule="evenodd" clip-rule="evenodd" d="M3840 0.00195312H0V281.695L19.7708 286.087L17.084 290.834L30.9611 289.814L32.2131 283.525L31.3367 278.999L33.8213 275.484L34.4184 272.489L51.5313 304.413L53.7077 306.031L52.9758 307.109L58.7636 317.905L66.9974 318.078L70.9554 322.999L66.9107 330.732L72.1399 339.669L76.9743 332.707L82.2131 325.002L75.8091 319.003L86.2578 318.059L83.7925 312.002L86.2193 304.962L91.6026 288.09L91.8626 288.61L91.9974 288.225L113.001 329.375L121.004 328.065L125.308 333.005L119.684 340.998L123.729 341.268L122.843 347.239L128.92 350.002L126.859 354.769L127.225 356.089L131.164 356.474L136.412 342.067L146.1 341.181L161.065 323.221L161.239 323.519L161.296 323.356L170.85 336L170.262 339.217L176.031 349.251L171.004 352.343L175.857 355.001L171.418 359.585L186.999 357.996L191.661 347.788L192.344 341.345L193.75 343.213L194.318 341.961L198.19 349.116L203.602 356.31L208.003 344.003L208.08 343.762L204.681 342.895L210.276 337.425L217.999 315.054L228.843 328.229L229.719 338.427L229.873 340.006L234.053 342.789L234.544 343.001L228.486 346.93L234.043 350.002L229.555 355.001L240.168 363.62L241.478 363.562L252.918 327.256L252.995 326.996L278.092 317.568L278.207 317.221L287.5 315.122L284.294 311L277.986 300.166L277.196 299.001L290.12 298.105L286.971 290.998L296.774 263.542L296.996 261.982L297.208 262.319L297.497 261.501L318.933 296.67L318.779 296.911L318.828 296.979L317.239 299.425L316.16 301.177L323.19 306.878L322.583 307.745L322.853 308.005L320.888 310.962L331.867 310.133L331.809 310.365L336.682 315.931L336.884 315.998L329.276 326.014L333.812 326.187L343.375 333.939L348.585 343.425L345.85 346.738L352.129 354.269L358.003 349.126L361.98 354.981L373.257 364.053L375.992 359.007L369.665 357.167L381.78 336.799L382.002 335.913L382.146 336.183L382.599 335.442L391.998 349.983L402.196 346.401L402.755 345.024L401.349 343.358L408.822 329.885L408.995 329.452L409.342 329.933L419.656 340.998L421.206 346.825L424.837 352.006L474.77 345.784L470.792 342L477.071 340.006L469.03 333.997L469.261 333.882L486.239 319.061L486.172 319.003L487.125 315.488L479.498 308.487L479.585 308.477L479.402 308.333L492.181 307.013L489.196 300.185L496.081 289.005L496.274 288.957L498.999 272.229L505.577 286.867L507.56 286.424L520.099 306.002L519.964 306.156L520.138 306.224L519.29 306.907L517.191 309.247L522.449 314.38L522.381 314.631L523.412 315.69L528.246 307.841L561.923 309.729L557.127 319.764L576.484 355.184L577.168 349.251L585.748 347.133L587.039 344.35L597.054 344.33L598.942 343.858L597.815 341.364L597.102 339.794H597.112L597.016 339.563H602.495L603.256 339.525L597.959 335.037L595.244 332.813L595.282 332.774L595.099 332.62L596.399 331.994L607.301 324.328L616.247 322.056L612.068 318.935L612.241 318.069L612.164 318.001L612.308 317.751L612.973 314.486L608.668 309.18L606.029 307.004L606.886 306.975L606.482 306.484L617.884 306.012L623.239 284.536L626.002 272.431L626.185 272.749L626.33 272.152L627.823 275.551L645.07 304.943L645.59 315.94L646.996 319.138L656.732 318.271L661.191 322.999L654.026 332.004L654.055 332.033L657.927 332.755L657.994 335.519L665.303 342L661.288 344.908L668.414 350.051L668 359.845L682.195 337.194L704.123 330.848L710.999 328.806L711.008 328.864L711.885 328.604L712.848 335.981L725.752 340.363L726.003 350.108L732.503 350.744L729.97 354.635L735.094 357.004L731.232 365.998L733.996 366.865L748.037 348.779L754.999 353.142L756.559 339.563L787.8 330.126L788.146 340.661L794.252 336.809L803.468 343.502L802.052 352.054L802.332 353.046L809.641 353.999L807.927 359.007L811.798 364.082L813.012 361.992L815.949 369.533L820.003 374.858L911.404 374.454L912.126 371.276L912.212 370.207L912.357 370.274L914.928 358.987L914.466 356.002L916.17 353.498L916.941 350.147L917.576 351.457L917.634 351.37L918.222 352.795L928.998 375.003L976.417 375.099L975.926 364.188L990.978 365.132L995.995 363.504L999.241 365.642L1012.5 366.47L1009.86 375.243L1045.92 378.017L1037.79 396.757L1066 396.998L1070 377.998L1075 374.203L1083.83 383.005L1081.06 385.875L1084.95 396.911L1137 396.998L1146 362.079L1160 396.998H1169L1177 373.934L1184.49 396.931L1210 396.998L1216 375.003L1222 367.135L1230.76 382.244L1227.91 385.981L1232 396.516L1263 396.95L1262.68 392.356L1255.43 389.583L1261.76 387.724L1260.19 380.126L1267.94 379.404L1263.61 372.027L1273.44 369.436L1271.8 364.611L1276.05 361.896L1272.1 357.158L1298.38 359.007L1308.64 376.177L1302.79 382.004L1308.78 383.997L1304.77 387.897L1308.57 395.178L1334.21 396.931L1334.32 387.002L1354.17 368.695L1356.55 376.004L1352.88 378.874L1356.22 386.328L1370 396.796L1372 391.037L1382.22 396.931L1384.94 388.571L1387.11 396.931L1400.19 325.349L1414.69 354.288L1410.78 362.002L1425.81 368.916L1421.56 372.489L1425.76 375.003L1424.01 377.93L1428.99 380.405L1424.52 381.734L1427.66 384.662L1423.35 387.763L1435.65 394.35L1432.32 396.661L1455.17 396.959L1462.73 370.476L1509.04 396.931L1509.11 406.801L2324.7 409.691L2321.85 394.995L2344.96 394.966L2357 354.172L2361.85 370.756L2366.01 372.874L2369 394.995H2401.01L2397 387.002L2404.78 379.384L2395.42 372.999L2404.21 371.035L2399.47 364.005L2417.92 351.649L2413.29 349.251L2416.8 346.006L2414.44 340.44L2420.05 341.326L2426.01 321.121L2438.87 356.946L2448.95 359.007L2443.15 364.005L2447.7 366.326L2445.08 370.033L2450.78 374.001L2447.2 376.553L2452.09 380.058L2447.95 380.646L2451.01 394.003L2483.3 394.494L2482.19 389.197L2486.67 387.493L2484.88 380.001L2493.11 370.033L2488.56 367L2497 354.009L2513.83 379.192L2510.86 382.861L2513.86 386L2513 394.995L2528.31 394.985L2538.06 361.992L2532.85 359.007L2542.56 343.849L2563.52 375.474L2556.3 378.672L2562.75 382.004L2558.03 384.642L2564.58 390.42L2563.33 394.504L2577 394.995L2589.01 357.996L2603 358.997L2606 382.996L2610 394.995L2616.13 394.985L2628.89 355.078L2637.74 373.972L2639.22 394.716L2660.28 395.014L2661.75 386.135L2658.29 383.169L2666.53 377.574L2663.45 374.675L2673.42 353.421L2678.07 371.362L2682.53 373.452L2684.21 394.658L2693.17 386.8L2689.29 384.286L2695.69 382.716L2707.01 351.861L2722.3 352.997L2718.44 356.002L2727.11 369.003L2724.12 372.999L2730.18 376.004L2724.91 380.145L2734.78 383.005L2726.33 388.658L2750.57 383.429L2752.08 391.721L2777.76 358.227L2776.7 356.724L2778.5 357.254L2781 353.999L2793.99 376.842L2804 350.185L2811.77 361L2816 376.996H2853L2860.58 356.358L2860.65 355.646L2860.82 355.684L2861 355.193L2861.22 355.771L2864.57 356.522L2868.58 371.651L2870.36 376.794L3017.06 376.842L3036 363.995L3049 376.996H3094.01L3107.31 372.633L3105.85 371.93L3107.95 372.422L3119.05 368.772L3114.1 365.141L3120.88 359.007L3119.14 353.999L3119.41 353.835L3119.31 353.71L3121.19 352.757L3124.08 351.004L3124.22 336L3124.81 336.019V336L3128 331.628L3135.77 349.492L3142.92 362.002L3140.23 365.748L3145.98 364.101L3152.83 369.003L3145.77 376.842L3381 376.996L3387.22 359.007L3391.17 358.93L3392.24 361.106L3392.76 359.007L3390.19 354.221L3397.03 355.858L3394.45 365.594L3395.85 368.464L3397.05 367.905L3399.64 371.709L3400.69 376.852L3419.01 376.996L3425.99 358.93L3425.71 356.002L3428.75 351.774L3429 351.129L3429.16 351.486L3433.76 353.248L3432.06 358.294L3440.02 376.842L3533.16 376.399L3548.23 343.232L3549.01 343.396L3565 337.233L3578.42 338.514L3578 343.916L3576.67 349.097L3587.19 351.274L3591.08 376.659L3654 375.994L3659.12 366.037L3664.3 364.246L3665.37 358.766L3664.51 350.002L3667.03 350.253L3668 345.313L3673.25 346.93L3679.47 374.742L3680.68 376.1L3691.96 376.331L3684.3 370.842L3688.79 368.03L3686.92 365.257L3680.03 361L3692 362.801L3695.12 358.843L3690.46 354.548L3696.98 350.002L3695.64 345.004L3696.04 344.86L3696 344.715L3697.67 344.272L3701.07 343.049L3701.04 327.997L3701.11 328.152L3705.96 325.079L3715.03 354.172L3716.01 356.002L3717.24 356.31L3721.37 356.272L3720.55 357.129L3728.06 359.007L3718.72 366.817L3726.58 368.31L3726.96 375.263L3727.99 376.004L3780.31 376.476L3785 362.069L3791 376.996L3825.05 376.842L3820.9 363.003L3840 357.196V0.00195312Z" fill="#FF0000" fill-opacity="0.5"/>
<path fill-rule="evenodd" clip-rule="evenodd" d="M2662.21 1440H3840V840.45L3833.76 839.005L3833.31 845.304L3820 849.57L3817.42 843.435L3812.06 844.003L3812.95 842L3809.23 840.556L3809.16 836.309L3815.62 832.004L3807.78 833.584L3810.38 826.717L3805.18 827.478L3805.79 821.777L3801.44 819.003L3803.87 808.998L3800.37 809.633L3801.66 795.005L3795.33 791.432L3789.96 807.004L3792.89 812.079L3788.05 815.999L3790.55 820.072L3783.58 826.005L3787 830.001L3772.31 832.592L3783.81 843.002H3780.7L3789.48 851.563L3762.61 849.859L3770.95 845.005L3761 843.753L3753.33 836.001L3759.22 832.052L3748.89 830.155L3757.83 822.981L3752.94 820.939L3747.15 825.619L3751.12 817.405L3744.96 818.3L3741.08 808.911L3742.88 797.913L3739.01 796.998L3740.08 789.005L3737.12 788.004L3740.37 780.001L3734.62 777.68L3734.73 783.006L3731.28 783.603L3730.81 800.003L3722.91 815.893L3718.39 815.585L3723.71 820.997L3720 825.899L3708.12 825.003L3720.25 836.001L3712.68 836.829L3727.7 845.015L3708 846.026L3707 849.088L3701.76 854L3694.65 856.629L3696.42 862.619L3700.58 864.959L3691.03 865.623L3685.77 856.378L3650.01 877.035L3645.08 875.003L3648.73 871.998L3646.3 868.002L3649.71 864.997L3647.96 853.056L3642.47 852.314L3645.69 846.835L3641.4 845.583L3640.07 841.095L3636.39 843.002L3635.77 861.675L3625.48 869.158L3635.62 871.998L3625.4 880.666L3629.56 882.004L3624.01 887.272L3622.71 893.098L3628.62 893.638L3618.93 898L3615.73 900.88L3618.19 905.82L3592.72 905.878L3555.12 843.926L3429.76 843.869L3427.7 887.792L3420 886.896L3413.91 871.902L3404.91 864.728L3407.57 848L3415.06 841.49L3396.9 831.234L3386.03 832.004L3393.97 823L3381.77 826.794L3387.83 818.146L3380.13 819.1L3383.63 814.622L3381.76 806.224L3377 809.383L3378.32 796.998H3373.94L3376.66 791.837L3368.71 782.312L3361.44 793.984L3358.95 804.231L3362.48 811.001L3357.08 810.953L3357.71 816.711L3353.6 817L3358.45 823L3354 827.671L3341.15 825.292L3354.82 837.002H3345.28L3362.38 845.997L3340.58 847.894L3342 851.322L3330 851.457L3330.92 844.177L3324.05 843.734L3316.65 839.824L3311.92 852.998L3315.22 854.751L3312.89 858.998L3316.8 861.001L3302.5 870.275L3316.54 873.327L3304.32 876.929L3303.19 882.996L3307.72 884.97L3305.51 889.477L3298.43 890.643L3302.51 893.002L3298.7 892.511L3299.48 897.769L3287.64 899.801L3292.56 902.998L3261.22 905.001L3267.57 901.457L3269.53 889.997L3274.08 888.081L3273.63 887.84L3270.84 867.838L3289.4 862.609L3283.4 855.367L3285.53 852.382L3280.93 850.003L3276 840.151L3274.47 836.482L3271.57 839.005L3271.37 845.352L3260.06 838.177L3262.91 842.742L3257.01 839.14L3252.72 843.002L3256.51 850.003L3249.45 862.301L3239.8 873L3233.59 877.488L3243.52 888.572L3235 889.68L3235.11 885.645L3230.17 887.089L3233.33 874.685L3223.53 882.996L3225.53 888.572L3221 886.665L3219.68 889.005H3216.25L3222.46 879.414L3213.01 885.75L3203.42 882.004L3207.92 880.974L3206.49 874.531L3203.51 879.558L3195.46 879.539L3194.12 873.886L3179.1 885.962L3175 883.247L3163.01 883.16L3157.76 887.051L3151.44 877.998L3155.12 877.411L3150.53 850.629L3114.98 855.175L3107.18 856.908L3107.04 856.378L3106.22 843.358L3101.87 842.954L3103.34 838.081L3099.16 839.005L3102.84 833.998H3099.64L3101.39 824.916L3098.22 823.51L3097.77 828.769L3093.82 830.001L3093.38 846.998L3088.07 850.003L3091.61 855.396L3082.79 862.002L3086.69 868.002L3084 870.766L3072.66 860.635L3069.26 865.354L3056.43 870.506L3054.9 876.005L3046.87 877.911L3056.85 893.002L3049.51 898.693L3041 890.662L3040 886.848L3029.35 887.465L3033.3 871.787L3030.35 873L3031.71 854L3020.65 846.392L3023.08 843.175L3015.32 839.728L3012.47 836.434L3004 837.619L2997.78 834.999L2992.89 847.836L2995.12 852.988L2986.56 862.282L2992.6 867.877L2989 864.872L2984.23 870.092L2989.62 879L2980.54 882.438L2984.62 886.81L2980.62 892L2978.76 896.19L2981.24 898.25L2976.69 901.005L2979.22 905.223L2958.67 905.492L2935.13 843.676L2868.99 843.146L2872 836.165L2854.93 813.004L2840.16 814.728L2839.16 808.208V820.207L2831.25 822.23L2829.91 834.999L2832.26 840.267L2833.87 834.739L2840.01 836.001L2812.15 840.209L2802.92 840.999L2808.18 835.076L2800.43 833.006L2807.98 824.878L2798 827.719L2796.4 825.003L2801.99 820.997L2801.38 820.862L2796 821.055L2793.94 810.201L2790.58 811.424L2791.97 800.003L2788.34 800.658L2789.22 795.525L2788.6 790.999H2785.19L2787.49 787.002H2785.87L2787.55 782.466L2782.09 780.271L2773.23 806.86L2777.58 813.428L2772.42 819.418L2767.45 818.56L2769 829.549L2755.87 826.919L2770.45 834.556L2770.87 839.111L2765.08 840.151L2774.16 849.204L2757.01 849.733L2752.49 858.487L2741.86 861.107L2725.91 833.006L2732.21 826.746L2722.96 826.024L2715.26 825.822L2707.14 825.032L2715.84 841.008L2710.91 846.835L2714.21 853.865L2711.06 858.16L2705.19 881.186L2698.46 878.557L2703.2 884.999L2696.62 888.485L2698.55 893.695L2693 895.583L2690.86 892.029L2687.74 900.629L2682.84 901.265L2688.02 904.77L2606.15 911.916L2577.45 918.426L2562.75 924.657L2550.72 935.683L2549.07 949.82L2595.56 1151.41L2607.75 1202.18L2608.03 1179H2684V1220.01L2649 1219.98L2647.12 1294.79L2647.62 1319.59L2638.98 1319.83L2641.45 1295.97L2643 1220.01H2611.67L2662.21 1440Z" fill="#FF0000" fill-opacity="0.5"/>
<path fill-rule="evenodd" clip-rule="evenodd" d="M0 284.286V818.002H281.587L281.51 810.5L270.089 814.381L270.002 781.003L300 771.999L301.002 804L287.837 808.998L288.194 818.002H337.144L337.558 813.582L337.154 809.624L335.94 808.998L338.223 803.316L339.398 797.365L339.003 767.097L333.311 764.044L349.721 758.776L359.679 752.237L364.263 754.183L365.004 753.952L366.401 755.078L378.872 760.346L379.507 760.49L383.234 762.744L384.698 769.254L380.461 767.511L383.514 771.719L378.997 773.578V779.183L386.759 793.782L379.681 795.39L379.479 795.496L387 806.927L388.502 818.002H429.999L431 815.19L437.828 817.405L436.085 812.291L447.323 813.803L450.001 811.145L462.241 815.806L478.997 818.06L525.762 817.588L525.136 809.999L539.802 801.756V801.005L549.057 795.207L545.041 791.962L545.792 788.524L542.547 782.688L537.491 778.489L552.245 778.017L551.07 775.648L547.295 774.002L547.381 764.362L552.38 764.314L552.678 763.399L552.206 762.002L553.015 762.378L557.195 749.839L558.995 741.143L563.512 741.451L567.441 767.001L573.094 768.628L571.544 771.016L576.022 773.096L583.928 777.074L580.991 780.964L587.886 786.637L596.996 789.959L597.324 794.292L597.487 793.888L601.417 773.424L606.434 772.509L607.147 770.804L609.795 771.902L634.602 767.405L634.111 770.997L642.894 776.005L638.002 788.091V789.391L643.789 789.169L652.649 799.002L649.943 817.915L904.999 818.002L904.556 745.217L900.175 739.005L905.568 742.424L907.417 817.588L965.997 818.002L997.69 817.155L1017.76 809.797L1030.1 798.655L1040.45 772.422L1055.82 728.181L1049.01 727.96L1049 717H1019.99V727.998H1009L1009.01 717H982.282L983.399 797.153L974.79 795.997L975.001 697.008H1043.93L1044 668.002L1076.9 667.983L1101.61 596.613L1132.56 507.562L1135 495.997V487.002L1116 476.996L1096.01 471.998L1071 469.003L1014.82 467L1009.66 437.503L1017.44 423.529L1010.92 417.135L1009.41 410.586L1014.59 406.484L1005.2 402.025L1013.94 396.998L1001.67 371.998L1006.52 370.457L995.995 363.504L983.534 367.539L977.351 380.087L981.232 388.08L971.226 402.689L977.005 408.169L972.738 405.28L967.365 408.4L970.013 411.992L965.063 412.551L963.339 420.005L965.005 432.273L961.49 426.601L958.004 429.616L949.578 427.449L948.316 424.3L954.489 421.603L944.965 417L948.576 414.564L944.262 413.292L943.954 406.609L947.998 401.312L936.558 398.337L932.657 388.003L936.182 384.999L929.701 379.298L924.867 381.397L928.083 376.582L917.634 351.37L914.466 356.002L917.008 372.422L912.212 370.207L911.201 383.997L909.006 388.706L900.107 387.859L908.168 394.003L904.576 396.95L913.455 401.466L900.001 404.153L898.287 410.923L889.755 411.809L900.878 417L891.999 420.062L884.997 427.324L887.193 429.182L883.341 430.001L880.356 441.461L871.371 440.998L875.309 445.005L874.549 451.659L859.333 450.571L858.505 443.435L848.258 441.721L843.732 436.511L843.029 432.495L848.2 430.001L839.678 426.004L840.275 425.494L842.528 422.364L839.177 421.998L838.801 415.488L843.52 410.528L831.338 407.649L827.351 398.78L830.125 393.993L819.628 390.613L822.786 387.069L813.012 361.992L810.122 367L803.43 357.004L799.616 343.29L791.344 343.358L786.49 341.384L784.93 334.122L778.998 335.201L777.004 339.197L769.724 336.722L770.956 342.164L761.451 342.443L757.484 350.311L761.894 354.278L750.001 356.609L747.565 353.412L741.459 371.411L736.413 375.58L735.999 378.71L724.134 368.656L715.997 373.183L708.832 373.972L725.463 354.432L721.534 348.539L725.675 340.998L712.636 336.174L710.999 328.806L682.33 337.339L682.204 344.86L687.145 345.534L676.003 353.624L675.001 350.465L673.451 355.501L678.218 361L675.434 360.451L680.51 371.189L675.531 369.388L673.287 371.285L670.195 382.399L679.19 391.095L662.029 385.182L667.133 384.19L667.461 379.538L653.429 370.005L669.974 368.704L660.084 359.007L664.706 356.002L660.527 353.604L663.069 351.004L656.559 345.553L665.169 342L664.485 341.605L658.081 339.092L657.927 332.755L653.892 332.004L661.066 322.999L656.607 318.396L645.754 319.273L645.07 304.943L626.002 272.431L621.996 289.977L618.057 306.002L606.482 306.484L613.628 315.295L612.164 318.001L616.44 321.998L607.301 324.328L595.244 332.813L603.42 339.515L597.102 339.795L599.173 344.321L587.039 344.35L584.602 349.598L580.818 355.001L585.344 358.005L570.677 363.292L566.834 347.634L570.34 344.359L565.323 341.634L556.829 319.571L528.381 308.015L521.293 319.85L523.71 315.998L516.805 308.882L520.138 306.224L512.886 303.142L498.999 272.229L496.274 289.005L493.857 296.998L489.494 300.002L492.325 307.119L479.498 308.487L487.231 315.594L486.297 319.003L469.126 333.997L477.264 340.006L470.908 342L475.511 346.006L438.252 364.12L420.744 363.003L423.585 358.41L418.125 356.002L422.94 353.392L419.656 340.998L408.995 329.567L401.349 343.358L404.055 346.574L391.998 353.807L382.002 335.914L378.13 351.909L372.121 356.657L379.161 359.382L373.412 364.592L357.262 351.177L351.724 365.921L345.628 346.998L348.585 343.425L343.375 333.939L333.812 326.187L329.093 326.004L336.74 315.998L331.732 310.268L320.368 311.742L322.853 308.005L315.958 301.389L318.828 296.979L296.996 261.982L294.299 280.309L290.332 283.352L287.202 290.998L290.274 298.259L277.312 299.001L284.294 311L288.261 316.104L278.371 317.472L252.995 326.996L248.045 344.003L254.016 346.112L249.49 353.46L253.824 357.023L249.846 359.007L246.765 363.34L234.13 363.87L226.743 354.384L232.791 350.003L225.039 347.768L234.371 343.001L229.873 340.006L228.804 328.999L224.24 326.486L217.999 315.199L212.183 335.557L204.681 342.895L213.752 345.226L214.089 356.002L210.574 365.575L192.344 341.345L190.466 359.007L187.173 368.107L169.973 360.23L174.75 354.818L167.566 353.104L174.076 349.001L168.837 346.998L170.85 336L161.296 323.356L155.114 340.363L136.412 342.067L129.122 362.069L125.154 359.999L127.6 357.456L125.636 350.359L119.665 345.64L119.559 340.998L125.154 333.005L121.004 328.19L113.001 329.471L91.6026 288.09L83.9755 312.002L86.3927 318.204L75.9439 319.003L82.3383 325.003L71.9762 339.9L66.7759 330.598L70.8302 322.999L66.9974 318.175L58.571 318.088L51.2713 309.652L53.7077 306.031L41.1981 296.748L34.8325 274.049L31.3367 278.999L34.2836 294.186L28.9966 292.009L26.2231 300.002L28.8714 306.002L26.0016 310.133L22.5154 299.511L12.8756 289.66L15.6876 286L7.25155 286.26L4.60324 288.302L0 284.286Z" fill="#FF0000" fill-opacity="0.5"/>
<path fill-rule="evenodd" clip-rule="evenodd" d="M468 818.002L478.939 822.172L475.174 825.003L481.742 832.216L478.275 834.999L490.891 848.53L489.928 851.419L494.627 851.005L488.512 856.003L495.985 867.078L495.003 872.037L490.111 878.721L493.722 885.731L484.843 892.135L478.997 880.608L471.235 883.998L474.346 888.235L470.003 891.018L466.391 882.313L462.578 886.377L463.541 903.73L532.214 905.406L534.487 902.382L539.918 901.872L540.428 895.843L535.007 897.085L534.005 893.83L523.537 891.009L528.506 890.286L527.004 887.128L534.275 882.005L529.864 879.144L532.676 873.511L525.049 874.869L538.329 866.885L536.836 859.807L522.824 860L528.968 857.004L524.115 854.52L530.875 851.775L528.208 849.069L533.726 848.867L535.604 844.399L522.94 839.237L539.08 834.951L536.74 830.936L537 830.213L528.034 829.78L530.654 827.218L527.062 824.811L533.764 822.702L532.926 818.734L643.067 819.004L671.746 832.072L668.578 836.386L677.418 849.262L671.756 857.361L680.625 864.998L676.898 868.291L680.586 871.691L672.025 874.907L673.633 880.666L661.798 881.639L651.6 890.999L652.312 905.599H1040.04L1088.85 905.627L1088.01 813.148L1073 811.001L1072 777.006L1107 783.006L1107.3 816.086L1094.68 814.68L1097.5 905.531L1140.5 910.452L1167.8 915.758L1191.85 924.464L1201.33 931.436L1206.05 941.038L1116.61 1286.61L1086.3 1401.29L1076.04 1440H1209.29L1219.27 1388.35L1276.7 1376.76L1296.45 1372L1338.57 1163.71L1276.89 1144.45L1287.08 1097.05L1313.35 978.509L1318.78 955.406L1319.19 954.568L1319.4 1014.03L1317.68 1023.62L1317.32 1031.75L1325.45 1031.3L1326.22 1023.67L1323.43 1008.01L1323.4 969.004L1326.16 933.17L1336.14 924.329L1349.46 918.57L1358.76 918.31L1374 874.984L1385.45 899.358L1383.04 905.801L1391.89 906.725L1387.46 914.998L1434.58 916.096L1443 882.101L1453.9 915.258L1548 913.698L1553.44 880.444L1678 880.184L1683.81 871.893L1690.8 847.875L1694.07 870.939L1699.01 867.27L1701.35 875.572L1739 877.016L1747.94 851.024L1759 879.809L1806.31 879.347L1814.01 858.372L1822.98 880.098L2191.53 880.396L2195.28 915.017L2233.17 914.988L2234.51 909.354L2232.39 901.997L2238.62 893.628L2243.35 883.459L2252.63 899.377L2255.24 911.579L2260.11 915.209L2268.59 915.421L2275.82 894.659L2280.5 885.529L2284 882.139L2294.86 898L2292.02 901.852L2295.41 907.602L2297.23 917.001L2363 916.972L2370.28 910.048L2384.04 917.078L2399.52 919.851L2416.25 926.66L2427.76 936.223L2438.56 967.434L2465.59 1110.39L2472.23 1147.04L2449.8 1150.21L2422.08 1159.86L2430.08 1231.14L2445.56 1354.73L2453.21 1366.89L2515.83 1384.16L2528.07 1440H2662.22L2611.67 1220.01H2643L2641.45 1295.97L2638.98 1319.83L2647.62 1319.59L2647.12 1294.79L2649 1219.98L2684 1220.01V1179H2608.03L2607.75 1202.18L2595.56 1151.41L2549.07 949.82L2550.72 935.683L2562.75 924.657L2577.45 918.426L2606.15 911.916L2688.02 904.77L2682.84 901.265L2687.74 900.629L2690.86 892.03L2693 895.583L2698.55 893.696L2696.62 888.486L2703.2 885L2698.46 878.557L2705.19 881.186L2711.06 858.16L2714.21 853.865L2710.91 846.835L2715.84 841.009L2707.14 825.032L2715.26 825.822L2722.96 826.024L2732.21 826.746L2725.91 833.006L2741.86 861.107L2752.49 858.488L2757.01 849.734L2774.16 849.204L2765.08 840.152L2770.87 839.112L2770.63 836.502H2871.85L2868.99 843.147L2935.13 843.676L2958.67 905.493L2979.22 905.223L2976.69 901.005L2981.24 898.251L2978.76 896.19L2980.62 892.001L2984.62 886.81L2980.54 882.438L2989.62 879L2984.23 870.092L2989 864.872L2992.6 867.877L2986.56 862.282L2995.12 852.989L2992.89 847.837L2997.2 836.502H3001.34L3004 837.619L3012 836.502H3012.52L3015.32 839.728L3023.08 843.175L3020.65 846.392L3031.71 854L3030.35 873L3033.3 871.787L3029.35 887.465L3040 886.849L3041 890.662L3049.51 898.694L3056.85 893.002L3046.87 877.912L3054.9 876.005L3056.43 870.506L3069.26 865.354L3072.66 860.635L3084 870.766L3086.69 868.002L3082.79 862.003L3091.61 855.396L3088.07 850.003L3093.38 846.999L3093.65 836.502H3101L3099.16 839.006L3103.34 838.081L3101.87 842.954L3106.22 843.358L3107.04 856.379L3107.18 856.908L3114.98 855.175L3150.53 850.629L3155.12 877.411L3151.44 877.998L3157.76 887.051L3163.01 883.16L3175 883.247L3179.1 885.963L3194.12 873.886L3195.46 879.539L3203.51 879.558L3203.42 882.005L3213.01 885.751L3216.25 889.006H3219.68L3221 886.666L3225.53 888.572L3223.53 882.996L3233.33 874.686L3230.17 887.089L3235.11 885.645L3235 889.68L3243.52 888.572L3233.59 877.488L3239.8 873L3249.45 862.301L3256.51 850.003L3252.72 843.002L3257.01 839.14L3262.91 842.742L3260.06 838.177L3271.37 845.352L3271.57 839.006L3274.45 836.502H3274.47L3276 840.152L3280.93 850.003L3285.53 852.382L3283.4 855.367L3289.4 862.609L3270.84 867.838L3273.63 887.84L3274.08 888.081L3269.53 889.998L3267.57 901.458L3261.22 905.001L3292.56 902.998L3287.64 899.801L3299.48 897.769L3298.7 892.511L3302.51 893.002L3298.43 890.643L3305.51 889.478L3307.72 884.971L3303.19 882.996L3304.32 876.929L3316.54 873.328L3302.5 870.275L3316.8 861.001L3312.89 858.998L3315.22 854.751L3311.92 852.998L3316.65 839.824L3324.05 843.734L3330.92 844.177L3330 851.458L3342 851.323L3340.58 847.894L3362.38 845.997L3345.28 837.003L3354.24 836.502H3406.23L3415.06 841.49L3407.57 848L3404.91 864.728L3413.91 871.902L3420 886.897L3427.7 887.792L3429.76 843.869L3555.12 843.927L3592.72 905.878L3618.19 905.82L3615.73 900.88L3618.93 898L3628.62 893.638L3622.71 893.099L3624.01 887.272L3629.56 882.005L3625.4 880.666L3635.62 871.999L3625.48 869.158L3635.77 861.675L3636.39 843.002L3640.07 841.095L3641.4 845.583L3645.69 846.835L3642.47 852.315L3647.96 853.056L3649.71 864.998L3646.3 868.002L3648.73 871.999L3645.08 875.003L3650.01 877.035L3685.77 856.379L3691.03 865.624L3700.58 864.959L3696.42 862.619L3694.65 856.629L3701.76 854L3707 849.088L3708 846.026L3727.7 845.015L3712.68 836.829L3720.25 836.001H3753.33L3761 843.753L3770.95 845.005L3762.61 849.859L3789.48 851.563L3780.7 843.002H3783.81L3776.07 836.001H3810.16L3809.16 836.309L3809.23 840.556L3812.95 842.001L3812.06 844.004L3817.42 843.436L3820 849.57L3833.31 845.304L3833.76 839.006L3840 840.45V834.528L3836.86 834.788L3820.88 834.229H3774.12H3755.98H3718.29L3398.76 832.284H3349.31L3349.27 832.245L3328.39 831.85L3325.66 803.383L3162 805.001L3157.13 832.284H3102.82L3102.42 824.801L3098.37 823.578L3101.39 824.917L3099.97 832.284H3093.75L3093.82 830.001L3097.77 828.769L3098.22 823.53L3096.8 823.097L3096.99 828.971L3092.68 827.681L3091.06 832.284H3043.94L3040.21 821.902L2939.31 822.162L2937.88 832.284H2926.48L2874 830.001L2865 817.001L2861 807.679L2845.09 814.15L2854.94 813.004L2869.14 832.284H2766.11L2769 829.549L2767.45 818.561L2772.42 819.418L2777.58 813.428L2773.23 806.86L2780.69 784.479L2778 782.004L2755.91 716.037L2788.36 716.028L2788.12 728.056L2798.74 727.806L2799.22 716.037L2824.91 716.114L2821.43 796.893L2829.22 797.056L2830.03 699.002L2754.69 698.915L2755.6 667.405L2739.03 667.231L2687.13 514.005L2685.68 514.111L2682.81 513.215L2678.95 509.123L2677.38 507.668L2674.3 504.654L2670.5 502.998L2670.83 493.936L2670.41 489.429L2678.88 482.717L2677.38 477.006L2674.38 467.703L2675.77 463.774L2679.64 455.492L2682.01 457.476L2684.7 449.396L2690.12 453.99L2689.94 449.078L2701.51 444.87L2707.01 428.73L2716.03 432.36L2710.7 420.005L2714.56 416.355L2710.55 413.003L2731.64 409.642L2730.42 402.381L2736.24 406.339L2743 390.709L2756.19 406.002L2761.43 413.475L2761.88 414.005L2744 420.207L2766.67 429.558L2790.81 421.006L2792.06 417L2783.16 408.737L2780.16 412.657L2766.92 408.785L2767.65 399.357L2763.5 400.571L2762.39 397.046L2768.53 394.003L2762.64 394.022L2760.98 390.112L2765.65 382.004H2813.3L2827.52 402.998L2833.53 417.645L2837.39 413.1L2842 410.259L2841.65 392.867L2852 394.812L2850.36 386.694L2856.86 382.004H2872.16L2874.28 388.148L2871.58 391.923L2881.26 389.852L2874.35 397.653L2880 401.804L2886.31 398.654L2892.28 405.665L2916.49 404.596L2925.03 404.808L2928.73 385.307L2932.05 396.006L2935.92 397.99L2937.28 407.745L2937.75 408.545L2934.1 409.999L2936.57 414.005L2932.94 416.827L2940.38 421.006L2933.52 421.517L2941 426.736L2949.04 423L2942.99 406.869L2947.34 411.549L2949.47 402.401L2966.03 393.194L2971.62 394.35L2974.63 401.649L2976.59 409.633L2987.23 405.309L2987.78 384.999L3001.29 388.167L3004.22 382.004H3005.13L3012.43 387.416L3008.5 390.488L3010.09 396.863L3023.91 405.03L3026.09 401.004L3025.61 389.005L3018.78 384.999L3018.76 382.004H3044.21L3042.91 387.002L3049.63 395.005L3040.24 399.001L3043.35 406.705L3057.01 409.797L3070 406.609L3076.76 402.603L3084.98 427.006L3094.54 411L3089.13 405.935L3093.43 403.999L3090.29 382.004H3146.15L3145.06 383.814L3147.16 386.212L3152.16 384.257L3160.15 390.998L3153.89 398.741L3159.97 400.176L3151.48 400.475L3156.2 403.874L3153.08 407.004L3171.9 405.829L3171.05 403.258L3190.92 383.256L3188.42 389.997L3197.15 401.9L3209 398.963L3209.41 423.568L3216.54 424.396L3218.64 417.626L3228 427.574L3234.87 425.898L3234.71 420.005L3228.91 414.005L3232.89 412.811L3232.86 405.049L3236 411.8L3243.94 402.092L3243.26 408.005L3247.44 416.567L3254.95 423.009L3250.38 424.28L3242.55 438.389L3256 438.889L3258.56 430.001L3254.03 426.89L3269.17 421.854L3269.03 417L3265.85 412.57L3279.17 403.229L3276.94 397.99L3280.98 396.362L3285.71 382.004H3285.87L3284.49 390.998L3291.11 408.111L3304.26 408.737L3315.62 414.39L3316.53 419.292L3331.61 419.542L3341.58 436.415L3358.77 430.742L3362.59 417.366L3367.19 419.61L3370 414.149L3385.92 412.002L3376.82 406.869L3380.56 401.264L3370.72 395.621L3380 397.412L3382.95 392L3378.49 387.426L3382.01 388.292L3386.62 383.005L3386.05 382.004H3438.2L3460.02 388.042L3459.15 392.838L3463.07 393.984L3458.88 396.709L3470.56 396.449L3468.71 393.001L3474.15 382.004H3475.84L3475.39 386L3483.76 400.07L3486.32 390.594L3489 396.863L3500.22 395.005L3506.31 395.929L3507.43 406.002L3511.81 408.14L3512.47 408.593L3515.97 406.33L3530.39 410.095L3527.07 405.001L3543.42 382.004H3571.65L3566.18 389.005L3575.16 394.918L3586.71 402.121L3584.49 418.666L3587 414.785L3593.9 417.857L3594.01 414.891L3605 410.403L3626 413.533L3639.53 410.567L3635.65 394.764L3640.74 396.699L3638.78 386.761L3652.09 387.869L3647.72 382.659L3652.46 382.004H3732.4L3728.76 386L3734.95 387.888L3727.82 389.901L3731.72 392.915L3724.4 394.571L3737 398.337L3743.3 406.041L3736.18 411.029L3740.99 419.783L3738.59 423.414L3744.44 423.654L3749.42 430.925L3754.56 427.535L3748.45 427.333L3744.43 415.478L3752.44 407.437L3769.24 400.879L3770.75 396.873L3774.52 399.444L3771.56 392.462L3779.08 389.949L3776.25 385.432L3777.85 382.004H3788.81L3794.01 389.554L3803.16 384.931L3802.14 390.998L3807.49 399.55L3812.15 401.775L3808.13 413.976L3812.15 415.777L3816.33 425.003L3813.42 432.004L3814.66 436.337L3823.98 431.975L3821.8 427.998L3825.99 425.003L3831.01 411.617L3837.01 436.145L3840 435.75V357.196L3820.9 363.003L3825.05 376.842H3790.94L3785 362.069L3780.31 376.476C3717.34 375.917 3655.86 375.975 3591.08 376.659L3587.19 351.274L3576.67 349.097L3573.36 362.002L3576.63 375.638L3575.69 376.842H3544.99L3549.38 374.406L3551 369.667L3548.57 343.57L3549.01 343.396L3548.23 343.233L3533.16 376.399L3440.02 376.842L3432.06 358.294L3430.22 363.822L3435.48 376.842L3388.8 375.012L3392.24 361.106L3391.17 358.93L3387.22 359.007L3381.05 376.842H3145.77H3143H3116.09L3107.31 372.634L3094.49 376.842H3048.85L3036 363.995L3017.06 376.842L2870.36 376.794L2870.37 376.842H2854.94L2854.79 376.457L2858.72 375.003L2860.58 356.359L2853.06 376.842H2815.96L2811.77 361L2804 350.186L2793.99 376.842L2781 353.999L2778.5 357.254L2776.7 356.724L2777.76 358.227L2763.5 376.842H2729.11L2730.18 376.004L2724.12 373L2727.11 369.003L2718.44 356.002L2722.3 352.998L2707.01 351.861L2695.69 382.716L2689.29 384.286L2693.17 386.8L2684.21 394.658L2682.53 373.452L2678.07 371.362L2673.42 353.421L2663.45 374.675L2666.53 377.574L2658.29 383.169L2661.75 386.135L2660.28 395.014L2639.22 394.716L2637.74 373.972L2628.89 355.078L2616.13 394.985L2610 394.995L2606 382.996L2603 358.997L2589.01 357.996L2577 394.995L2563.33 394.504L2564.58 390.421L2558.03 384.642L2562.75 382.004L2556.3 378.672L2563.52 375.475L2542.56 343.849L2532.85 359.007L2538.06 361.992L2528.31 394.985L2513 394.995L2513.86 386L2510.86 382.861L2513.83 379.192L2497 354.009L2488.56 367L2493.11 370.033L2484.88 380.001L2486.67 387.493L2482.19 389.198L2483.3 394.494L2451.01 394.003L2447.95 380.646L2452.09 380.058L2447.2 376.553L2450.78 374.001L2445.08 370.033L2447.7 366.326L2443.15 364.005L2448.95 359.007L2438.87 356.946L2426.01 321.122L2420.05 341.326L2414.44 340.44L2416.8 346.006L2413.29 349.251L2417.92 351.649L2399.47 364.005L2404.21 371.035L2395.42 373L2404.78 379.384L2397 387.002L2401.01 394.995H2369L2366.01 372.874L2361.85 370.756L2357 354.172L2344.96 394.966L2321.85 394.995L2324.7 409.691L2040 408.679V411.058L2503.83 411.135L2521.41 471.632L2549 475.003L2572 483.005L2586.49 494.523L2606.95 562.031L2637.22 663.765L2646.85 696.97L2620 696.998L2618.99 729L2617.06 797.307L2626.59 797.297L2626.03 735.972L2625 717H2653.1L2664.38 760.982L2663.57 801.794L2667.67 802.103L2666.99 764.506L2668.98 769.1L2675.79 794.639L2673.84 813.851L2668.21 821.642L2656.93 826.419L2627.01 827.681L1392.99 832.399L1294 832.679L1209.74 831.696L1170.56 828.085L1154.25 823.761L1142.84 813.977L1138.77 803.239L1139.7 791.644L1151.43 753.355L1163 717H1179L1179.58 795.352L1187.59 795.593C1187.12 762.946 1184.95 729.308 1185 697.047L1169.3 696.7L1211.53 556.513L1236.08 489.101L1268.35 475.215L1308 470.168L1312.17 463.004L1311.09 402.998H1330.92L1332.47 468.002L1369.45 467.462L1368.29 402.998H1387.88L1389.48 467.414L1703.43 467.491L1707.34 411.01L2040 411.058V408.574L1509.11 406.802L1509.04 396.931L1462.73 370.476L1455.17 396.96H1455V396.805H1443.3L1432.32 396.661L1435.65 394.35L1423.35 387.763L1427.66 384.662L1424.52 381.734L1428.99 380.405L1424.01 377.93L1425.76 375.003L1421.56 372.489L1425.81 368.916L1410.78 362.002L1414.69 354.288L1400.19 325.349L1387.66 393.955L1387.72 396.805H1368.17L1368.15 395.39L1356.22 386.328L1352.88 378.874L1356.55 376.004L1354.17 368.695L1334.32 387.002L1334.21 396.805H1332.33L1330.77 396.699L1330.78 396.805H1310.98L1310.95 395.342L1308.57 395.178L1304.77 387.897L1308.78 383.997L1302.79 382.004L1308.64 376.178L1298.38 359.007L1272.1 357.158L1276.05 361.896L1271.8 364.612L1273.44 369.436L1263.61 372.027L1267.94 379.404L1260.19 380.126L1261.76 387.724L1255.43 389.583L1262.68 392.356L1262.99 396.805H1252.66L1232 396.517L1227.91 385.981L1230.76 382.245L1222 367.135L1216 375.003L1210 396.998L1184.49 396.931L1177 373.934L1169 396.998H1160L1146 362.079L1137 396.998L1084.95 396.911L1081.06 385.875L1083.83 383.005L1075 374.203L1070 377.998L1066 396.998L1037.79 396.757L1045.92 378.017C965.525 371.825 1024.16 374.54 911.404 374.54V374.454L892.047 374.54H891.979L820.003 374.858L822.786 387.069L819.628 390.613L830.125 393.993L827.351 398.78L831.338 407.649L843.52 410.528L838.801 415.488L839.177 421.998L842.528 422.364L840.275 425.494L839.678 426.004L848.2 430.001L843.029 432.495L843.732 436.511L848.258 441.721L858.505 443.435L859.333 450.571L874.549 451.659L875.309 445.005L871.371 440.998L880.356 441.461L883.341 430.001L887.193 429.182L884.997 427.324L891.999 420.062L900.878 417L889.755 411.809L898.287 410.923L900.001 404.153L913.455 401.466L904.576 396.95L908.168 394.003L900.107 387.859L909.006 388.706L911.201 383.997L911.288 380.087H925.753L924.867 381.397L927.9 380.087H930.597L936.182 384.999L932.657 388.003L936.558 398.337L947.998 401.312L943.954 406.609L944.262 413.292L948.576 414.564L944.965 417L954.489 421.603L948.316 424.3L949.578 427.449L958.004 429.616L961.49 426.601L965.005 432.273L963.339 420.005L965.063 412.551L970.013 411.992L967.365 408.4L972.738 405.28L977.005 408.169L971.226 402.689L981.232 388.08L977.351 380.087H1005.64L1013.94 396.998L1005.2 402.025L1014.59 406.484L1009.41 410.586L1010.92 417.135L1017.44 423.529L1009.66 437.503L1014.82 467L1071 469.003L1096.01 471.998L1116 476.996L1135 487.002V495.997L1132.56 507.563L1101.61 596.613L1076.9 667.983L1044 668.002L1043.93 697.008H975.001L974.79 795.997L983.399 797.153L982.282 717H1009.01L1009 727.998H1019.99V717H1049L1049.01 727.96L1055.82 728.181L1040.45 772.422L1030.1 798.655L1017.76 809.797L997.69 817.155L965.997 818.002L907.417 817.588L905.568 742.424L900.175 739.005L904.556 745.217L904.999 818.002H643.539H532.763L532.686 817.646L543.134 814.006L525.762 817.588L484.631 818.002H478.574H468ZM359.592 905.55H381V905.435L460.045 905.146L460.536 886.377L450.463 890.171L447.998 888.303L445.985 892.607L441.16 892.251L441.593 896.508L434.862 892.338L426.416 837.003L439.061 818.002L436.952 817.915L429.999 818.002H388.502H381.905H368.77H364.407L365.293 825.697L370.994 831.138L369.213 833.266L364.61 834.749L362.202 833.651L361.22 833.131L363.319 904H359.554L357.984 844.996L351.002 830.232L349.538 835.51L342.999 837.619L339.995 831.639L340.428 824.204L337.144 818.002H288.194H281.587H214.532H0V845.246L3.99654 842.367L14.8979 843.012L19.5879 840.701L21.9665 842.916L22.9007 851.217L27.4654 851.573L26.0786 854.212L24.7111 856.716L29.5551 860.048L33.3494 863.004L31.0286 866.413L33.3013 880.714L33.5709 881.417L33.3205 892.309L28.1876 896.999L33.6961 901.891L33.3013 905.579L48.3533 902.546L50.6164 899.705L53.9966 895.14L72.2459 896.286L75.9631 895.304L77.9084 894.004L76.5313 892.521L72.3229 887.003H76.5891L72.5155 882.602L66.8433 877.902L79.1604 874.965L74.8075 869.37L75.5587 868.917L77.6484 867.559L79.3722 865.315L78.1203 860.076L84.6881 861.954L82.1939 858.064L82.2228 857.159L82.1457 856.619L80.576 852.998L81.5775 851.612L81.982 850.957L85.0059 839.073L88.4824 843.792L86.4697 848.472L94.0005 859.094L92.6812 864.757L97.843 864.218L93.9331 870.246L96.9377 870.67L97.5059 870.882L101.657 873.414L105.268 874.888L102.61 879.992L108.619 879.934L108.455 886.28L107.204 889.006L111.219 890.922L111.672 890.893L112.182 890.787L117.999 889.092L116.718 894.283L120.994 894.967L120.002 896.276L118.943 898.222L124.182 904.453L142.431 904.732L140.688 900.639L142.961 894.899L149.201 888.149L152.003 886.059L155.788 889.824L167.161 888.9L175.703 894.004L172.256 899.137L171.167 902.209L173.999 905.387L249.75 905.57L248.055 899.002L250.241 893.32L256.404 885.5L259.034 865.884L260.786 865.209L261.085 864.824L261.441 864.41L267.662 862.59L271.004 855.435L279.055 854.915L282.002 856.542L281.587 818.137L288.203 818.147L289.542 852.016L290.524 852.363L291.266 852.738L296.004 856.523L300 853.21L306.366 861.743L307.714 860.568L310.208 858.94L310.507 867.453L313.223 870.005L312.712 870.246L311.788 870.747L310.391 871.691L314.138 872.538L318.23 878.326L319.165 878.769L320.802 878.258L320.58 882.438L325.058 881.793L324.875 890.614L324.644 891.201L322.063 899.117L324.721 901.005L318.404 905.001L359.592 905.579V905.55ZM2768.62 376.842L2769.44 375.426L2775.19 376.842H2768.62ZM2775.59 376.842L2771.06 373.886L2777 369.995L2775.24 363.003L2781 357.996L2782.07 371.998L2786.93 375.157L2786.31 376.842H2775.59ZM2798 376.842L2801.55 372.73L2807.83 373.924L2809.82 376.842H2798ZM2759.54 382.004L2752.08 391.721L2750.57 383.429L2726.33 388.658L2734.78 383.005L2731.31 382.004H2759.54Z" fill="#00FF00" fill-opacity="0.5"/>
</svg>
