<svg width="218" height="31" viewBox="0 0 218 31" fill="none" xmlns="http://www.w3.org/2000/svg">
<g clip-path="url(#clip0_1939_10323)">
<path d="M27.7425 0.0604525L22.7383 0.060452V5.12817H27.7425V0.0604525Z" fill="white"/>
<path d="M15.2329 12.7279H10.2285V17.7957H15.2329V12.7279Z" fill="white"/>
<path fill-rule="evenodd" clip-rule="evenodd" d="M0.219729 2.59408L0.219727 27.9326H25.2413V7.6618H20.2371V2.59408H0.219729ZM5.22407 7.6618H20.2371V22.865H5.22407V7.6618Z" fill="white"/>
<path d="M40.1943 24.3903V7.67411H44.156L49.1081 18.0381H49.9335L54.8856 7.67411H58.8473V24.3903H56.2062V11.0173L56.2393 10.683H56.1732L51.2542 21.047H47.7877L42.8684 10.683H42.8023L42.8354 11.0173V24.3903H40.1943ZM63.472 24.3903V7.67411H66.1131V20.2112L66.08 20.5455H66.1461L75.0268 7.67411H77.9981V24.3903H75.3571V11.8531L75.3901 11.5188H75.3241L66.4431 24.3903H63.472ZM82.6226 24.3903V7.67411H85.2639V14.5277H94.508V7.67411H97.149V24.3903H94.508V17.0352H85.2639V24.3903H82.6226ZM101.774 24.3903V7.67411H104.415V21.8828H112.998V7.67411H115.64V21.8828H117.951V28.2349H115.309V24.3903H101.774ZM120.763 24.3903V7.67411H123.404V20.2112L123.371 20.5455H123.437L132.318 7.67411H135.289V24.3903H132.648V11.8531L132.681 11.5188H132.615L123.734 24.3903H120.763ZM141.201 21.8828C139.573 20.2558 138.759 18.3056 138.759 16.0322C138.759 13.7588 139.573 11.8197 141.201 10.215C142.83 8.58792 144.877 7.68524 147.342 7.50693V0.987637H149.983V7.50693C152.448 7.68524 154.495 8.58792 156.124 10.215C157.753 11.8197 158.567 13.7588 158.567 16.0322C158.567 18.3056 157.753 20.2558 156.124 21.8828C154.495 23.4876 152.448 24.3791 149.983 24.5574V30.7424H147.342V24.5574C144.877 24.3791 142.83 23.4876 141.201 21.8828ZM149.983 10.0144V22.05C151.7 21.9609 153.12 21.3591 154.242 20.2446C155.365 19.108 155.926 17.7038 155.926 16.0322C155.926 14.3606 155.365 12.9676 154.242 11.8531C153.12 10.7164 151.7 10.1035 149.983 10.0144ZM143.083 11.8531C141.961 12.9676 141.4 14.3606 141.4 16.0322C141.4 17.7038 141.961 19.108 143.083 20.2446C144.206 21.3591 145.625 21.9609 147.342 22.05V10.0144C145.625 10.1035 144.206 10.7164 143.083 11.8531ZM162.031 30.7424V7.67411H164.672V10.3487H164.705L165.035 9.8472C165.409 9.26771 166.081 8.71051 167.049 8.17559C168.018 7.61839 169.206 7.33977 170.615 7.33977C172.816 7.33977 174.686 8.17559 176.227 9.8472C177.768 11.4965 178.538 13.5582 178.538 16.0322C178.538 18.5062 177.768 20.579 176.227 22.2506C174.686 23.8999 172.816 24.7246 170.615 24.7246C169.206 24.7246 168.006 24.4571 167.016 23.9222C166.048 23.365 165.387 22.7855 165.035 22.1837L164.705 21.7157H164.672V30.7424H162.031ZM166.257 11.5857C165.2 12.7447 164.672 14.2268 164.672 16.0322C164.672 17.8375 165.2 19.3197 166.257 20.4787C167.335 21.6377 168.678 22.2172 170.284 22.2172C171.891 22.2172 173.223 21.6377 174.279 20.4787C175.358 19.3197 175.897 17.8375 175.897 16.0322C175.897 14.2268 175.358 12.7447 174.279 11.5857C173.223 10.4267 171.891 9.8472 170.284 9.8472C168.678 9.8472 167.335 10.4267 166.257 11.5857ZM197.203 24.3903V7.67411H199.844V24.3903H197.203ZM182.181 24.3903V7.67411H184.822V13.3576H188.784C190.633 13.3576 192.14 13.8925 193.307 14.9624C194.473 16.0099 195.057 17.3138 195.057 18.8739C195.057 20.4341 194.473 21.7491 193.307 22.8189C192.14 23.8665 190.633 24.3903 188.784 24.3903H182.181ZM184.822 21.8828H188.784C189.928 21.8828 190.82 21.6042 191.458 21.047C192.096 20.4898 192.416 19.7655 192.416 18.8739C192.416 17.9824 192.096 17.258 191.458 16.7008C190.82 16.1436 189.928 15.865 188.784 15.865H184.822V21.8828Z" fill="white"/>
<path d="M218.001 27.1594H203.484V24.6636H218.001V27.1594Z" fill="white"/>
</g>
<defs>
<clipPath id="clip0_1939_10323">
<rect width="218" height="31" fill="white"/>
</clipPath>
</defs>
</svg>
