<svg width="82" height="80" viewBox="0 0 82 80" fill="none" xmlns="http://www.w3.org/2000/svg">
<path fill-rule="evenodd" clip-rule="evenodd" d="M41 76.6667C41 76.6667 71.75 56.6667 71.75 33.3334C71.75 25.3769 68.5103 17.7463 62.7435 12.1202C56.9768 6.49408 49.1554 3.33337 41 3.33337C32.8446 3.33337 25.0232 6.49408 19.2565 12.1202C13.4897 17.7463 10.25 25.3769 10.25 33.3334C10.25 56.6667 41 76.6667 41 76.6667ZM51.25 33.3334C51.25 38.8562 46.6609 43.3334 41 43.3334C35.3391 43.3334 30.75 38.8562 30.75 33.3334C30.75 27.8105 35.3391 23.3334 41 23.3334C46.6609 23.3334 51.25 27.8105 51.25 33.3334Z" fill="#00AA4D"/>
</svg>
