<svg width="64" height="64" viewBox="0 0 64 64" fill="none" xmlns="http://www.w3.org/2000/svg">
<path d="M18.5384 6.98218H16.9731C16.685 6.98218 16.4514 7.2158 16.4514 7.50395C16.4514 7.79209 16.685 8.02571 16.9731 8.02571H18.5384C18.8266 8.02571 19.0602 7.79209 19.0602 7.50395C19.0602 7.2158 18.8266 6.98218 18.5384 6.98218Z" fill="#00AA4D"/>
<path d="M3.62107 12.7947C3.33293 12.7947 3.0993 13.0283 3.0993 13.3164V18.7585C3.0993 19.0466 3.33293 19.2802 3.62107 19.2802C3.90922 19.2802 4.14284 19.0466 4.14284 18.7585V13.3164C4.14284 13.0283 3.90922 12.7947 3.62107 12.7947Z" fill="#00AA4D"/>
<path d="M63.4782 32.7888H45.0442V31.2966H45.3103C46.4947 31.2966 47.4548 30.3365 47.4548 29.1521C47.4548 27.9677 46.4947 27.0077 45.3103 27.0077H43.6406C42.4562 27.0077 41.4962 27.9677 41.4962 29.1521C41.4962 30.3365 42.4562 31.2966 43.6406 31.2966H44.0007V32.7888H40.4526C40.5605 32.1293 40.6249 31.4636 40.6457 30.7957C40.7605 27.6651 41.324 26.3346 42.5554 23.4336C44.2824 19.3533 43.7659 16.6506 40.9901 15.3618C38.7412 14.3183 37.0403 14.1826 34.661 14.1774V7.16484C34.6588 5.97299 33.713 4.99716 32.5218 4.95776H3.04712C1.82814 4.95776 0.840046 5.94586 0.840046 7.16484V23.611V27.039C0.840046 28.2579 1.82814 29.246 3.04712 29.246H13.0129L12.2511 32.8045H0.521767C0.233621 32.8045 0 33.0381 0 33.3263V37.2291C0 37.5172 0.233621 37.7509 0.521767 37.7509H4.99853V60.0721H1.11136C0.823219 60.0721 0.589597 60.3057 0.589597 60.5938C0.589597 60.882 0.823219 61.1156 1.11136 61.1156H12.919C13.2071 61.1156 13.4407 60.882 13.4407 60.5938C13.4407 60.3057 13.2071 60.0721 12.919 60.0721H9.33964V37.7352H19.5089C19.797 37.7352 20.0307 37.5016 20.0307 37.2134C20.0307 36.9253 19.797 36.6917 19.5089 36.6917H1.04353V33.8324H18.9558V34.9646C18.9546 35.1279 19.0299 35.2824 19.1593 35.382L22.6082 38.0222C21.6012 38.2831 20.255 39.0657 19.9993 40.4745C19.9486 40.7978 20.0597 41.1254 20.2968 41.351C20.5432 41.5882 20.8901 41.6895 21.2255 41.6224L21.7107 41.5389L26.4067 44.2312V45.4365C26.4025 45.6916 26.5835 45.9123 26.8345 45.9583L31.4782 46.8244V48.5567H30.586C30.2979 48.5567 30.0642 48.7903 30.0642 49.0784V51.5412L17.761 54.8022C17.5266 54.8652 17.3665 55.0815 17.3749 55.324V57.4111C16.2588 57.6992 15.5877 58.8376 15.8758 59.9536C16.164 61.0697 17.3023 61.7408 18.4184 61.4527C19.5345 61.1645 20.2056 60.0261 19.9174 58.9101C19.7276 58.1749 19.1536 57.6008 18.4184 57.4111V55.7466L22.8586 54.5726V57.4111C21.7426 57.6992 21.0715 58.8376 21.3596 59.9536C21.6477 61.0697 22.7861 61.7408 23.9022 61.4527C25.0182 61.1645 25.6894 60.0261 25.4012 58.9101C25.2114 58.1749 24.6373 57.6008 23.9022 57.4111V54.2804L31.4782 52.2508V57.3693C30.3622 57.6575 29.691 58.7958 29.9792 59.9119C30.2673 61.0279 31.4057 61.6991 32.5218 61.4109C33.6378 61.1228 34.309 59.9844 34.0208 58.8683C33.831 58.1332 33.2569 57.5591 32.5218 57.3693V52.2508L40.0978 54.2544V57.385C38.9818 57.6731 38.3106 58.8115 38.5988 59.9275C38.8869 61.0436 40.0253 61.7147 41.1414 61.4266C42.2574 61.1384 42.9286 60.0001 42.6404 58.884C42.4506 58.1488 41.8765 57.5748 41.1414 57.385V54.5465L45.566 55.7049V57.3693C44.4499 57.6575 43.7788 58.7958 44.0669 59.9119C44.3551 61.0279 45.4934 61.6991 46.6095 61.4109C47.7256 61.1228 48.3967 59.9844 48.1085 58.8683C47.9187 58.1332 47.3447 57.5591 46.6095 57.3693V55.2822C46.6178 55.0397 46.4578 54.8235 46.2234 54.7605L33.9201 51.4994V49.0784C33.9201 48.7903 33.6865 48.5567 33.3983 48.5567H32.5218V46.8244L37.1498 45.9635C37.4008 45.9176 37.5819 45.6969 37.5777 45.4417V44.2469L42.2736 41.5545L42.7588 41.638C43.1019 41.7066 43.4565 41.5989 43.7032 41.351C43.9403 41.1254 44.0514 40.7977 44.0007 40.4745C43.745 39.0709 42.3988 38.2831 41.3918 38.0222L44.8668 35.382C44.9962 35.2824 45.0716 35.1279 45.0703 34.9646V33.8324H62.9669V36.6917H44.4911C44.203 36.6917 43.9693 36.9253 43.9693 37.2134C43.9693 37.5016 44.203 37.7352 44.4911 37.7352H54.6604V60.0564H51.081C50.7929 60.0564 50.5593 60.29 50.5593 60.5782C50.5593 60.8663 50.7929 61.0999 51.081 61.0999H62.8939C63.182 61.0999 63.4156 60.8663 63.4156 60.5782C63.4156 60.29 63.182 60.0564 62.8939 60.0564H59.0015V37.7352H63.4782C63.7664 37.7352 64 37.5016 64 37.2134V33.3106C64 33.0225 63.7664 32.7888 63.4782 32.7888ZM6.04207 37.7352H8.2961V60.0564H6.04207V37.7352ZM18.9558 59.3833C18.9558 59.9596 18.4886 60.4269 17.9123 60.4269C17.336 60.4269 16.8687 59.9596 16.8687 59.3833C16.8687 58.807 17.336 58.3398 17.9123 58.3398C18.4886 58.3398 18.9558 58.807 18.9558 59.3833ZM24.4292 59.3833H24.4448C24.4448 59.9596 23.9776 60.4269 23.4013 60.4269C22.825 60.4269 22.3577 59.9596 22.3577 59.3833C22.3577 58.807 22.825 58.3398 23.4013 58.3398C23.9714 58.3483 24.4293 58.813 24.4292 59.3833ZM47.1313 59.3833H47.1521C47.1521 59.9596 46.6849 60.4269 46.1086 60.4269C45.5323 60.4269 45.0651 59.9596 45.0651 59.3833C45.0651 58.807 45.5323 58.3398 46.1086 58.3398C46.6768 58.3511 47.1314 58.815 47.1313 59.3833ZM41.6631 59.3833C41.6631 59.9596 41.1959 60.4269 40.6196 60.4269C40.0433 60.4269 39.5761 59.9596 39.5761 59.3833C39.5761 58.807 40.0433 58.3398 40.6196 58.3398C41.1959 58.3398 41.6631 58.807 41.6631 59.3833ZM40.5935 16.3062C43.4789 17.6524 42.5606 20.783 41.6057 23.0266C40.3639 25.9589 39.7378 27.4303 39.623 30.7539C39.5395 33.0184 39.1013 34.4533 38.3708 35.0324C37.7394 35.5229 36.889 35.3298 36.1428 35.1629L35.7619 35.0898L35.1306 34.975V29.4547C35.1306 27.7257 33.729 26.3241 32 26.3241C30.271 26.3241 28.8694 27.7257 28.8694 29.4547V34.975L28.2485 35.0794L27.8676 35.1629C27.1215 35.3298 26.2762 35.5229 25.6397 35.0324C24.8883 34.4533 24.4709 33.0184 24.3874 30.7539C24.2726 27.4303 23.6465 25.9589 22.4047 23.0266C21.4394 20.783 20.5211 17.6524 23.4065 16.3062C25.8275 15.1844 27.5128 15.1948 30.5495 15.2209C31.4574 15.2209 32.5426 15.2209 33.4453 15.2209C36.4976 15.1948 38.1777 15.1844 40.5935 16.3062ZM32 34.7403C31.3478 34.7403 30.6069 34.782 29.9129 34.8498V29.4547C29.9129 28.302 30.8473 27.3677 32 27.3677C33.1527 27.3677 34.0871 28.302 34.0871 29.4547V34.8498C33.3931 34.782 32.6522 34.7403 32 34.7403ZM34.0871 35.8986V38.2674L34.0192 38.2726C32.6767 38.4135 31.3233 38.4135 29.9808 38.2726H29.9129V35.8986C31.3002 35.747 32.6998 35.747 34.0871 35.8986ZM3.04712 28.1869C2.40457 28.1869 1.88358 27.6659 1.88358 27.0233V24.1327H20.0828C20.371 24.1327 20.6046 23.8991 20.6046 23.611C20.6046 23.3228 20.371 23.0892 20.0828 23.0892H4.14283V21.6752C4.14283 21.387 3.90921 21.1534 3.62107 21.1534C3.33292 21.1534 3.0993 21.387 3.0993 21.6752V23.0892H1.88358V7.16484C1.88358 6.52228 2.40457 6.0013 3.04712 6.0013H32.5218C33.1643 6.0013 33.6853 6.52228 33.6853 7.16484V14.1774H33.4662C32.5635 14.1774 31.4887 14.1774 30.586 14.1774C27.4919 14.1513 25.624 14.1409 22.9943 15.3566C20.2446 16.6297 19.728 19.3481 21.4551 23.4283C22.6865 26.3294 23.25 27.6546 23.3647 30.7905C23.3855 31.4583 23.4499 32.1241 23.5578 32.7836H19.9993V31.2966H20.375C21.5594 31.2966 22.5195 30.3365 22.5195 29.1521C22.5195 27.9677 21.5594 27.0077 20.375 27.0077H18.6741C17.8681 27.0116 17.1324 27.4671 16.7696 28.1869H3.04712ZM18.9558 32.8097L13.3207 32.7888L14.0825 29.2304H16.54C16.5683 30.3894 17.5147 31.315 18.6741 31.3175H18.9558V32.8097ZM18.6741 30.2687C18.0661 30.2687 17.5731 29.7758 17.5731 29.1678C17.5731 28.5598 18.0661 28.0668 18.6741 28.0668H20.3594C20.9674 28.0668 21.4603 28.5598 21.4603 29.1678C21.4603 29.7758 20.9674 30.2687 20.3594 30.2687H18.6741ZM19.9889 34.7089L19.9837 33.8324H23.7665C23.9506 34.62 24.3798 35.3289 24.9927 35.8568C26.0362 36.6447 27.2102 36.3786 28.0867 36.1803L28.4363 36.1073L28.859 36.0342V38.163C27.231 38.0065 25.457 37.8761 24.1631 37.8813L19.9889 34.7089ZM33.0435 59.3833H33.0644C33.0644 59.9596 32.5972 60.4269 32.0209 60.4269C31.4446 60.4269 30.9773 59.9596 30.9773 59.3833C30.9773 58.807 31.4446 58.3398 32.0209 58.3398C32.5891 58.3511 33.0437 58.815 33.0435 59.3833ZM32.8922 49.6002V51.2646L32.1357 51.0664C32.1357 51.0664 32.1357 51.0664 32.1044 51.0664H32.0365H31.9635H31.9009C31.9009 51.0664 31.8748 51.0664 31.8643 51.0664L31.1078 51.2646V49.6002H32.8922ZM36.795 43.4903C36.6329 43.5838 36.5334 43.757 36.5342 43.9442V44.9878L32 45.8591L27.4658 45.0034V43.9599C27.4666 43.7727 27.3671 43.5995 27.205 43.5059L23.6204 41.4606C25.325 41.5061 27.0098 41.8396 28.6033 42.4468C29.6519 42.855 30.7652 43.0724 31.8904 43.0885H32.0939C33.2243 43.0741 34.343 42.8566 35.3967 42.4468C36.9904 41.8403 38.675 41.5071 40.3796 41.4606L36.795 43.4903ZM42.9571 40.6101C40.2898 40.1479 37.5464 40.4406 35.0367 41.4554C34.07 41.8376 33.0395 42.0325 32 42.0293C30.9629 42.025 29.9354 41.8306 28.9685 41.4554C26.726 40.5617 24.2979 40.2338 21.8986 40.5006C21.8009 40.4871 21.7014 40.5016 21.6116 40.5423C21.3977 40.5788 21.2098 40.6206 21.0429 40.6623C21.2203 39.6814 22.4047 39.097 23.13 38.977C23.4107 38.9452 23.6928 38.9278 23.9752 38.9248C25.9427 38.9469 27.9074 39.0758 29.8608 39.3109C31.2759 39.4623 32.7032 39.4623 34.1184 39.3109C36.072 39.0785 38.0366 38.9496 40.0039 38.9248C40.2863 38.9278 40.5685 38.9452 40.8492 38.977C41.5901 39.0761 42.7484 39.6605 42.9571 40.6101ZM44.0007 34.7089L39.8265 37.8813C38.5273 37.8813 36.7533 38.0065 35.1306 38.163V36.0342L35.5532 36.1073L35.9028 36.1803C36.3752 36.3045 36.86 36.3746 37.3481 36.389C37.9411 36.4077 38.5226 36.2236 38.9969 35.8673C39.6097 35.3394 40.039 34.6304 40.2231 33.8428H44.0007V34.7089ZM43.6406 30.2374C43.0398 30.2347 42.5511 29.7528 42.5397 29.1521V29.1365C42.5426 28.5297 43.0338 28.0384 43.6406 28.0355H45.3259C45.9339 28.0355 46.4269 28.5285 46.4269 29.1365C46.4269 29.7445 45.9339 30.2374 45.3259 30.2374H43.6406ZM57.9423 60.0564H55.6882V37.7352H57.9423V60.0564Z" fill="#00AA4D"/>
<path d="M63.473 12.6538H59.2102L59.878 12.2677C59.9911 12.1945 60.0715 12.0805 60.1024 11.9494C60.1384 11.8156 60.1196 11.6729 60.0502 11.5529L54.9578 2.74025C54.8128 2.4911 54.4935 2.40671 54.2444 2.5515C54.2439 2.55176 54.2433 2.55202 54.2429 2.55241L52.5315 3.53855V3.01678C52.5315 2.72864 52.2979 2.49502 52.0098 2.49502H46.5625C46.2744 2.49502 46.0408 2.72864 46.0408 3.01678V12.6538H43.4319C43.1438 12.6538 42.9102 12.8874 42.9102 13.1756C42.9102 13.4637 43.1438 13.6974 43.4319 13.6974H45.3833V15.3879C45.3833 15.676 45.617 15.9097 45.9051 15.9097C46.1933 15.9097 46.4269 15.676 46.4269 15.3879V13.6974H60.4781V15.3879C60.4781 15.676 60.7117 15.9097 60.9998 15.9097C61.288 15.9097 61.5216 15.676 61.5216 15.3879V13.6974H63.473C63.7612 13.6974 63.9948 13.4637 63.9948 13.1756C63.9948 12.8874 63.7612 12.6538 63.473 12.6538ZM48.7435 12.6538H47.0843V3.49159H48.7435V12.6538ZM51.4776 12.6538H49.7871V3.49159H51.4776V12.6538ZM52.5211 12.6538V6.00129L56.3561 12.6538H52.5211ZM57.4466 12.4399L52.8707 4.51947L54.3056 3.68986L58.8815 11.6103L57.4466 12.4399Z" fill="#00AA4D"/>
</svg>
