<svg width="64" height="64" viewBox="0 0 64 64" fill="none" xmlns="http://www.w3.org/2000/svg">
<g clip-path="url(#clip0_2778_1046)">
<path d="M49.0304 6.01086C44.0933 6.01086 40.0766 10.0275 40.0766 14.9646C40.0766 19.9017 44.0933 23.9184 49.0304 23.9184C53.9675 23.9184 57.9841 19.9017 57.9841 14.9646C57.9841 10.0276 53.9675 6.01086 49.0304 6.01086ZM49.0304 22.04C45.129 22.04 41.955 18.866 41.955 14.9646C41.955 11.0632 45.129 7.88924 49.0304 7.88924C52.9318 7.88924 56.1058 11.0632 56.1058 14.9646C56.1058 18.866 52.9318 22.04 49.0304 22.04Z" fill="#00AA4D"/>
<path d="M45.1484 11.02H45.0231C44.5042 11.02 44.0839 11.4405 44.0839 11.9593C44.0839 12.478 44.5044 12.8985 45.0231 12.8985H45.1484C45.6672 12.8985 46.0876 12.478 46.0876 11.9593C46.0876 11.4405 45.6672 11.02 45.1484 11.02Z" fill="#00AA4D"/>
<path d="M49.1556 11.02H49.0304C48.5115 11.02 48.0911 11.4405 48.0911 11.9593C48.0911 12.478 48.5116 12.8985 49.0304 12.8985H49.1556C49.6745 12.8985 50.0949 12.478 50.0949 11.9593C50.0949 11.4405 49.6745 11.02 49.1556 11.02Z" fill="#00AA4D"/>
<path d="M53.1629 11.02H53.0376C52.5188 11.02 52.0984 11.4405 52.0984 11.9593C52.0984 12.478 52.5189 12.8985 53.0376 12.8985H53.1629C53.6818 12.8985 54.1021 12.478 54.1021 11.9593C54.1021 11.4405 53.6818 11.02 53.1629 11.02Z" fill="#00AA4D"/>
<path d="M49.1556 8.01453H49.0304C48.5115 8.01453 48.0911 8.43503 48.0911 8.95378C48.0911 9.47253 48.5116 9.89303 49.0304 9.89303H49.1556C49.6745 9.89303 50.0949 9.47253 50.0949 8.95378C50.0949 8.43503 49.6745 8.01453 49.1556 8.01453Z" fill="#00AA4D"/>
<path d="M45.1484 14.0255H45.0231C44.5042 14.0255 44.0839 14.446 44.0839 14.9648C44.0839 15.4835 44.5044 15.904 45.0231 15.904H45.1484C45.6672 15.904 46.0876 15.4835 46.0876 14.9648C46.0876 14.446 45.6672 14.0255 45.1484 14.0255Z" fill="#00AA4D"/>
<path d="M49.1556 14.0255H49.0304C48.5115 14.0255 48.0911 14.446 48.0911 14.9648C48.0911 15.4835 48.5116 15.904 49.0304 15.904H49.1556C49.6745 15.904 50.0949 15.4835 50.0949 14.9648C50.0949 14.446 49.6745 14.0255 49.1556 14.0255Z" fill="#00AA4D"/>
<path d="M53.1629 14.0255H53.0376C52.5188 14.0255 52.0984 14.446 52.0984 14.9648C52.0984 15.4835 52.5189 15.904 53.0376 15.904H53.1629C53.6818 15.904 54.1021 15.4835 54.1021 14.9648C54.1021 14.446 53.6818 14.0255 53.1629 14.0255Z" fill="#00AA4D"/>
<path d="M45.1484 17.0309H45.0231C44.5042 17.0309 44.0839 17.4514 44.0839 17.9701C44.0839 18.4888 44.5044 18.9094 45.0231 18.9094H45.1484C45.6672 18.9094 46.0876 18.4889 46.0876 17.9701C46.0876 17.4514 45.6672 17.0309 45.1484 17.0309Z" fill="#00AA4D"/>
<path d="M49.1556 17.0309H49.0304C48.5115 17.0309 48.0911 17.4514 48.0911 17.9701C48.0911 18.4888 48.5116 18.9094 49.0304 18.9094H49.1556C49.6745 18.9094 50.0949 18.4889 50.0949 17.9701C50.0949 17.4514 49.6745 17.0309 49.1556 17.0309Z" fill="#00AA4D"/>
<path d="M53.1629 17.0309H53.0376C52.5188 17.0309 52.0984 17.4514 52.0984 17.9701C52.0984 18.4888 52.5189 18.9094 53.0376 18.9094H53.1629C53.6818 18.9094 54.1021 18.4889 54.1021 17.9701C54.1021 17.4514 53.6818 17.0309 53.1629 17.0309Z" fill="#00AA4D"/>
<path d="M49.1556 20.0364H49.0304C48.5115 20.0364 48.0911 20.4569 48.0911 20.9756C48.0911 21.4944 48.5116 21.9149 49.0304 21.9149H49.1556C49.6745 21.9149 50.0949 21.4944 50.0949 20.9756C50.0949 20.4569 49.6745 20.0364 49.1556 20.0364Z" fill="#00AA4D"/>
<path d="M63.3214 55.2081C62.5571 51.1391 60.7623 45.4045 56.5508 41.1928C55.2326 39.8747 53.6794 38.7061 51.9346 37.7195C51.4834 37.4641 50.9101 37.6232 50.6548 38.0746C50.3994 38.5262 50.5585 39.0992 51.01 39.3545C52.607 40.2576 54.0244 41.3231 55.2224 42.5211C58.3103 45.6088 60.0206 49.6427 60.9651 53.3127C59.3831 53.645 57.9263 54.3486 56.6849 55.3788L53.7309 52.4248L54.4836 51.6721C54.8504 51.3053 54.8504 50.7106 54.4836 50.344C54.1169 49.9773 53.5223 49.9771 53.1554 50.344L52.4028 51.0966L50.189 48.883L50.9416 48.1303C51.3084 47.7636 51.3084 47.1688 50.9416 46.8022C50.5748 46.4355 49.9801 46.4355 49.6134 46.8022L48.8608 47.5548L46.6471 45.3412L47.3998 44.5886C47.7665 44.2218 47.7665 43.6271 47.3998 43.2605C47.0329 42.8937 46.4383 42.8937 46.0715 43.2605L45.3189 44.0131L42.3648 41.059C43.3975 39.8147 44.1019 38.3545 44.4331 36.7686C45.564 37.0596 46.7289 37.4231 47.8901 37.8786C48.3728 38.068 48.9181 37.8301 49.1075 37.3472C49.2971 36.8643 49.0591 36.3193 48.5763 36.1298C41.7321 33.4443 34.9449 33.75 34.659 33.764C34.1773 33.7881 33.7921 34.1733 33.7681 34.655C33.761 34.7958 33.6046 38.1553 34.4264 42.5312C35.1906 46.6002 36.9855 52.3348 41.1971 56.5465C45.4089 60.7582 51.1434 62.5531 55.2124 63.3172C58.3336 63.9035 60.9375 63.9918 62.2254 63.9918C62.5525 63.9918 62.9203 64.0256 63.2436 63.9547C63.6524 63.8652 63.9589 63.5022 63.9799 63.0845C63.9868 62.9437 64.1431 59.5842 63.3214 55.2081ZM35.6336 35.6281C36.9343 35.6355 39.5465 35.741 42.6015 36.3507C42.2846 37.8972 41.5319 39.2988 40.404 40.4265C39.2888 41.5418 37.8996 42.2935 36.3683 42.6156C35.7533 39.5506 35.6434 36.9305 35.6336 35.6281ZM42.5251 55.218C39.4429 52.136 37.7331 48.111 36.7874 44.4463C38.3574 44.111 39.8044 43.4083 41.0361 42.3867L43.9904 45.341L43.2378 46.0936C42.871 46.4603 42.871 47.0551 43.2378 47.4217C43.5996 47.7835 44.2041 47.7835 44.566 47.4217L45.3186 46.6691L47.5323 48.8827L46.7796 49.6353C46.4129 50.0021 46.4129 50.5968 46.7796 50.9635C47.1415 51.3252 47.746 51.3252 48.1079 50.9635L48.8605 50.2108L51.0741 52.4245L50.3215 53.1771C49.9548 53.5438 49.9548 54.1386 50.3215 54.5052C50.6834 54.8671 51.2879 54.867 51.6498 54.5052L52.4024 53.7526L55.3564 56.7066C54.332 57.9411 53.6306 59.388 53.2963 60.9597C49.634 60.0145 45.6111 58.304 42.5251 55.218ZM55.1278 61.3792C55.4488 59.8466 56.1983 58.4583 57.3171 57.3393C58.4421 56.2143 59.8404 55.4621 61.3831 55.144C61.9946 58.1997 62.1039 60.8107 62.1138 62.1106C60.8105 62.1017 58.1916 61.9937 55.1278 61.3792Z" fill="#00AA4D"/>
<path d="M14.9686 40.0728C10.0315 40.0728 6.01486 44.0894 6.01486 49.0265C6.01486 53.9636 10.0315 57.9803 14.9686 57.9803C19.9057 57.9803 23.9224 53.9636 23.9224 49.0265C23.9224 44.0894 19.9057 40.0728 14.9686 40.0728ZM9.72786 53.7749C8.58849 52.5185 7.89324 50.8523 7.89324 49.0265C7.89324 47.7063 8.25761 46.47 8.88974 45.4113C10.2344 46.56 11.0239 48.2453 11.0239 50.0284C11.024 51.4011 10.5671 52.7089 9.72786 53.7749ZM14.9686 56.1018C13.569 56.1018 12.2641 55.6915 11.1647 54.9875C12.2901 53.5824 12.9024 51.8488 12.9024 50.0283C12.9024 47.6708 11.8512 45.4419 10.0602 43.9378C11.3335 42.7091 13.0639 41.9511 14.9686 41.9511C16.8734 41.9511 18.6037 42.7091 19.877 43.9378C18.086 45.442 17.0349 47.6708 17.0349 50.0283C17.0349 51.8488 17.6471 53.5824 18.7725 54.9876C17.6731 55.6916 16.3682 56.1018 14.9686 56.1018ZM20.2094 53.7748C19.3701 52.7086 18.9132 51.4011 18.9132 50.0284C18.9132 48.2454 19.7027 46.56 21.0474 45.4113C21.6795 46.47 22.0439 47.7064 22.0439 49.0265C22.044 50.8521 21.3489 52.5184 20.2094 53.7748Z" fill="#00AA4D"/>
<path d="M16.9722 0C7.61587 0 0.0039978 7.612 0.0039978 16.9683C0.0039978 26.3245 7.616 33.9365 16.9722 33.9365C26.3285 33.9365 33.9405 26.3245 33.9405 16.9683C33.9405 7.612 26.3286 0 16.9722 0ZM30.8607 11.069C31.2035 11.8729 31.4785 12.712 31.6784 13.5798L30.432 12.5951L30.8607 11.069ZM29.5825 8.6905C29.5715 8.71875 29.5616 8.74788 29.5532 8.77763L28.5902 12.2059L23.1766 13.9649L17.9116 10.4548V4.44737L20.9609 2.4145C24.5391 3.39613 27.5899 5.66513 29.5825 8.6905ZM21.8465 15.5232L20.3067 20.9136C20.2019 20.9363 20.0996 20.9779 20.0045 21.0381H13.9402C13.8451 20.9779 13.7429 20.9364 13.638 20.9136L12.098 15.5232C12.1171 15.4839 12.1351 15.4438 12.149 15.4009C12.1617 15.3614 12.1709 15.3219 12.1782 15.2821L16.9724 12.086L21.7665 15.2821C21.7739 15.3219 21.783 15.3614 21.7957 15.4009C21.8094 15.4438 21.8274 15.484 21.8465 15.5232ZM16.9724 1.87838C17.4166 1.87838 17.8564 1.89875 18.2911 1.93675L16.9724 2.816L15.6536 1.93675C16.0884 1.899 16.5281 1.87838 16.9724 1.87838ZM12.9906 2.41263C13.0159 2.4335 13.0424 2.45362 13.0702 2.47225L16.033 4.44737V10.4549L10.768 13.965L5.35425 12.2059L4.36537 8.68538C6.35937 5.66063 9.41137 3.39275 12.9906 2.41263ZM3.08375 11.069L3.5125 12.595L2.26612 13.5796C2.46612 12.7119 2.741 11.8726 3.08375 11.069ZM1.88225 16.9683C1.88237 16.7284 1.88862 16.4898 1.89975 16.2525C1.92662 16.2354 1.95425 16.2199 1.97975 16.1996L4.77375 13.9923L10.2114 15.759L12.04 22.159L8.85275 26.5459L5.20125 26.3986C3.12587 23.8134 1.88225 20.5336 1.88225 16.9683ZM7.08025 28.3544L8.65362 28.4179L9.20175 29.8991C8.4495 29.4452 7.73975 28.928 7.08025 28.3544ZM22.3002 31.0858C20.6426 31.7134 18.847 32.0581 16.9721 32.0581C15.095 32.0581 13.2971 31.7125 11.6376 31.0833C11.6296 31.0519 11.62 31.0205 11.6085 30.9895L10.3725 27.65L13.8115 22.9166H20.1331L23.5721 27.65L22.3002 31.0858ZM24.7426 29.8991L25.2907 28.4179L26.8641 28.3545C26.2046 28.9281 25.4949 29.4454 24.7426 29.8991ZM28.7394 26.4032C28.7099 26.4016 28.6799 26.4011 28.6497 26.4024L25.0917 26.5459L21.9045 22.159L23.7331 15.759L29.1707 13.9923L32.0452 16.2633C32.056 16.4969 32.0622 16.7319 32.0622 16.9683C32.0621 20.5358 30.817 23.8175 28.7394 26.4032Z" fill="#00AA4D"/>
</g>
<defs>
<clipPath id="clip0_2778_1046">
<rect width="64" height="64" fill="white"/>
</clipPath>
</defs>
</svg>
