<svg width="52" height="52" viewBox="0 0 52 52" fill="none" xmlns="http://www.w3.org/2000/svg">
<rect x="0.5" y="0.5" width="51" height="51" rx="25.5" stroke="white"/>
<path d="M35.5414 20.8465C35.6812 20.3581 35.5414 20 34.8807 20H32.6919C32.135 20 31.8805 20.3098 31.7407 20.6501C31.7407 20.6501 30.6279 23.5057 29.0509 25.3573C28.5419 25.8961 28.3093 26.0662 28.0319 26.0662C27.8931 26.0662 27.6915 25.8961 27.6915 25.4077V20.8465C27.6915 20.2605 27.5308 20 27.0667 20H23.6273C23.28 20 23.0704 20.271 23.0704 20.5293C23.0704 21.0839 23.8589 21.212 23.9397 22.7747V26.1649C23.9397 26.9075 23.813 27.0429 23.5335 27.0429C22.7919 27.0429 20.9874 24.1768 19.9165 20.8959C19.7079 20.2584 19.4973 20.0011 18.9384 20.0011H16.7506C16.1248 20.0011 16 20.3109 16 20.6512C16 21.2624 16.7416 24.2871 19.4544 28.2875C21.2629 31.0192 23.809 32.5 26.1285 32.5C27.5189 32.5 27.6905 32.1713 27.6905 31.6041V29.5394C27.6905 28.8819 27.8233 28.7496 28.2634 28.7496C28.5868 28.7496 29.1437 28.9218 30.4422 30.2378C31.9254 31.7984 32.1709 32.499 33.0043 32.499H35.1921C35.8169 32.499 36.1293 32.1702 35.9497 31.5212C35.753 30.8753 35.0444 29.9353 34.1042 28.8231C33.5932 28.1887 32.8296 27.5061 32.5971 27.1648C32.2727 26.7247 32.3665 26.5304 32.5971 26.1397C32.5971 26.1397 35.264 22.1898 35.5414 20.8465Z" fill="white"/>
</svg>
