<svg width="52" height="52" viewBox="0 0 52 52" fill="none" xmlns="http://www.w3.org/2000/svg">
<rect x="0.5" y="0.5" width="51" height="51" rx="25.5" stroke="white"/>
<path fill-rule="evenodd" clip-rule="evenodd" d="M32.403 19.633C31.5714 18.7959 30.5819 18.1321 29.4919 17.6802C28.4019 17.2282 27.233 16.997 26.053 17C21.105 17 17.077 21.027 17.075 25.977C17.075 27.559 17.488 29.103 18.273 30.465L17 35.116L21.759 33.867C23.0754 34.5836 24.5502 34.9594 26.049 34.96H26.053C31 34.96 35.028 30.933 35.03 25.983C35.0334 24.8035 34.803 23.635 34.3521 22.5451C33.9012 21.4552 33.2387 20.4654 32.403 19.633ZM26.053 33.445H26.05C24.7135 33.4452 23.4016 33.0856 22.252 32.404L21.98 32.242L19.156 32.983L19.909 30.23L19.732 29.948C18.9848 28.7585 18.5892 27.3818 18.591 25.977C18.593 21.863 21.94 18.516 26.056 18.516C27.0363 18.5139 28.0072 18.7061 28.9127 19.0817C29.8181 19.4572 30.6401 20.0087 31.331 20.704C32.0256 21.3961 32.5762 22.2189 32.9509 23.125C33.3256 24.0311 33.517 25.0025 33.514 25.983C33.512 30.097 30.165 33.445 26.053 33.445ZM30.146 27.856C29.921 27.743 28.819 27.201 28.613 27.126C28.408 27.051 28.259 27.014 28.109 27.238C27.959 27.462 27.529 27.967 27.398 28.117C27.267 28.267 27.136 28.285 26.912 28.173C26.688 28.061 25.965 27.824 25.108 27.06C24.441 26.465 23.991 25.731 23.86 25.506C23.729 25.281 23.846 25.16 23.959 25.048C24.06 24.948 24.183 24.786 24.295 24.655C24.407 24.524 24.444 24.431 24.519 24.281C24.594 24.131 24.557 24 24.5 23.888C24.444 23.775 23.995 22.671 23.808 22.222C23.627 21.787 23.442 21.845 23.304 21.839C23.1611 21.8332 23.018 21.8305 22.875 21.831C22.7613 21.8339 22.6493 21.8603 22.5463 21.9085C22.4432 21.9567 22.3512 22.0256 22.276 22.111C22.07 22.336 21.491 22.878 21.491 23.982C21.491 25.086 22.295 26.153 22.407 26.303C22.519 26.453 23.989 28.718 26.239 29.69C26.775 29.921 27.193 30.059 27.518 30.163C28.055 30.334 28.544 30.309 28.931 30.252C29.362 30.188 30.258 29.71 30.445 29.186C30.632 28.662 30.632 28.213 30.576 28.119C30.52 28.025 30.369 27.968 30.146 27.856Z" fill="white"/>
</svg>
